<svg width="150" height="126" viewBox="0 0 150 126" fill="none" xmlns="http://www.w3.org/2000/svg">
<path fill-rule="evenodd" clip-rule="evenodd" d="M65.2273 33.2802C65.2273 33.3227 65.0568 33.3574 64.8485 33.3574C64.6402 33.3574 64.4697 33.3921 64.4697 33.4345C64.4697 33.4769 64.3674 33.5116 64.2424 33.5116C64.1174 33.5116 64.0152 33.5463 64.0152 33.5887C64.0152 33.6311 63.9129 33.6658 63.7879 33.6658C63.6629 33.6658 63.5606 33.7006 63.5606 33.743C63.5606 33.7854 63.4924 33.8201 63.4091 33.8201C63.3258 33.8201 63.2576 33.8548 63.2576 33.8972C63.2576 33.9396 63.1894 33.9743 63.1061 33.9743C63.0227 33.9743 62.9545 34.009 62.9545 34.0515C62.9545 34.0939 62.8864 34.1286 62.803 34.1286C62.7197 34.1286 62.6515 34.1633 62.6515 34.2057C62.6515 34.2481 62.5908 34.2828 62.5167 34.2828C62.4426 34.2828 62.3328 34.3522 62.2727 34.4371C62.2127 34.5219 62.1195 34.5913 62.0658 34.5913C61.9381 34.5913 60.3788 36.1787 60.3788 36.3086C60.3788 36.3634 60.3106 36.4582 60.2273 36.5193C60.1439 36.5805 60.0758 36.6922 60.0758 36.7677C60.0758 36.8431 60.0417 36.9049 60 36.9049C59.9583 36.9049 59.9242 36.9743 59.9242 37.0592C59.9242 37.144 59.8902 37.2134 59.8485 37.2134C59.8068 37.2134 59.7727 37.2828 59.7727 37.3676C59.7727 37.4525 59.7386 37.5219 59.697 37.5219C59.6553 37.5219 59.6212 37.5913 59.6212 37.6761C59.6212 37.761 59.5871 37.8304 59.5455 37.8304C59.5038 37.8304 59.4697 37.9345 59.4697 38.0617C59.4697 38.189 59.4356 38.2931 59.3939 38.2931C59.3523 38.2931 59.3182 38.3972 59.3182 38.5245C59.3182 38.6517 59.2841 38.7558 59.2424 38.7558C59.2008 38.7558 59.1667 38.9293 59.1667 39.1414C59.1667 39.3535 59.1326 39.527 59.0909 39.527C59.0408 39.527 59.0152 42.9203 59.0152 49.5527C59.0152 56.1851 59.0408 59.5784 59.0909 59.5784C59.1326 59.5784 59.1667 59.752 59.1667 59.964C59.1667 60.1761 59.2008 60.3496 59.2424 60.3496C59.2841 60.3496 59.3182 60.4538 59.3182 60.581C59.3182 60.7083 59.3523 60.8124 59.3939 60.8124C59.4356 60.8124 59.4697 60.9165 59.4697 61.0437C59.4697 61.171 59.5038 61.2751 59.5455 61.2751C59.5871 61.2751 59.6212 61.3445 59.6212 61.4293C59.6212 61.5142 59.6553 61.5836 59.697 61.5836C59.7386 61.5836 59.7727 61.653 59.7727 61.7378C59.7727 61.8227 59.8068 61.8921 59.8485 61.8921C59.8902 61.8921 59.9242 61.9615 59.9242 62.0463C59.9242 62.1311 59.9583 62.2005 60 62.2005C60.0417 62.2005 60.0758 62.256 60.0758 62.3239C60.0758 62.3916 60.178 62.5444 60.303 62.6633C60.428 62.7821 60.5303 62.918 60.5303 62.9652C60.5303 63.0857 61.7945 64.3599 61.914 64.3599C61.9679 64.3599 62.0611 64.4293 62.1212 64.5142C62.1813 64.599 62.2836 64.6684 62.3485 64.6684C62.4134 64.6684 62.5157 64.7378 62.5758 64.8227C62.6358 64.9075 62.7456 64.9769 62.8198 64.9769C62.8939 64.9769 62.9545 65.0116 62.9545 65.054C62.9545 65.0964 63.0227 65.1311 63.1061 65.1311C63.1894 65.1311 63.2576 65.1658 63.2576 65.2083C63.2576 65.2507 63.3598 65.2854 63.4848 65.2854C63.6098 65.2854 63.7121 65.3201 63.7121 65.3625C63.7121 65.4049 63.8144 65.4396 63.9394 65.4396C64.0644 65.4396 64.1667 65.4743 64.1667 65.5167C64.1667 65.5592 64.2689 65.5939 64.3939 65.5939C64.5189 65.5939 64.6212 65.6286 64.6212 65.671C64.6212 65.7139 64.8233 65.7481 65.0758 65.7481C65.3283 65.7481 65.5303 65.7823 65.5303 65.8252C65.5303 65.8762 68.7374 65.9023 75 65.9023C81.2627 65.9023 84.4697 65.8762 84.4697 65.8252C84.4697 65.7823 84.6717 65.7481 84.9242 65.7481C85.1767 65.7481 85.3788 65.7139 85.3788 65.671C85.3788 65.6286 85.5152 65.5939 85.6818 65.5939C85.8485 65.5939 85.9849 65.5592 85.9849 65.5167C85.9849 65.4743 86.0871 65.4396 86.2121 65.4396C86.3371 65.4396 86.4394 65.4049 86.4394 65.3625C86.4394 65.3201 86.5076 65.2854 86.5909 65.2854C86.6742 65.2854 86.7424 65.2507 86.7424 65.2083C86.7424 65.1658 86.8106 65.1311 86.8939 65.1311C86.9773 65.1311 87.0455 65.0964 87.0455 65.054C87.0455 65.0116 87.1136 64.9769 87.197 64.9769C87.2803 64.9769 87.3485 64.9422 87.3485 64.8998C87.3485 64.8574 87.4092 64.8227 87.4833 64.8227C87.5574 64.8227 87.6672 64.7532 87.7273 64.6684C87.7874 64.5836 87.8835 64.5142 87.9409 64.5142C87.9983 64.5142 88.1408 64.4101 88.2576 64.2828C88.3743 64.1556 88.5083 64.0514 88.5552 64.0514C88.6661 64.0514 89.3182 63.3876 89.3182 63.2747C89.3182 63.2269 89.4205 63.0906 89.5455 62.9718C89.6705 62.8529 89.7727 62.7078 89.7727 62.6494C89.7727 62.5909 89.8409 62.4931 89.9242 62.4319C90.0076 62.3708 90.0758 62.259 90.0758 62.1835C90.0758 62.1081 90.1098 62.0463 90.1515 62.0463C90.1932 62.0463 90.2273 61.9769 90.2273 61.8921C90.2273 61.8072 90.2614 61.7378 90.303 61.7378C90.3447 61.7378 90.3788 61.6684 90.3788 61.5836C90.3788 61.4987 90.4129 61.4293 90.4545 61.4293C90.4962 61.4293 90.5303 61.3599 90.5303 61.2751C90.5303 61.1903 90.5644 61.1209 90.6061 61.1209C90.6477 61.1209 90.6818 61.0167 90.6818 60.8895C90.6818 60.7622 90.7159 60.6581 90.7576 60.6581C90.7992 60.6581 90.8333 60.5193 90.8333 60.3496C90.8333 60.18 90.8674 60.0412 90.9091 60.0412C90.9523 60.0412 90.9848 59.8098 90.9848 59.5013C90.9848 59.1928 91.0173 58.9615 91.0606 58.9615C91.1107 58.9615 91.1364 55.7738 91.1364 49.5527C91.1364 43.3316 91.1107 40.144 91.0606 40.144C91.0173 40.144 90.9848 39.9126 90.9848 39.6042C90.9848 39.2957 90.9523 39.0643 90.9091 39.0643C90.8674 39.0643 90.8333 38.9255 90.8333 38.7558C90.8333 38.5862 90.7992 38.4473 90.7576 38.4473C90.7159 38.4473 90.6818 38.3432 90.6818 38.216C90.6818 38.0887 90.6477 37.9846 90.6061 37.9846C90.5644 37.9846 90.5303 37.9152 90.5303 37.8304C90.5303 37.7455 90.4962 37.6761 90.4545 37.6761C90.4129 37.6761 90.3788 37.6067 90.3788 37.5219C90.3788 37.4371 90.3447 37.3676 90.303 37.3676C90.2614 37.3676 90.2273 37.2982 90.2273 37.2134C90.2273 37.1286 90.1932 37.0592 90.1515 37.0592C90.1098 37.0592 90.0758 36.9898 90.0758 36.9049C90.0758 36.8201 90.0417 36.7507 90 36.7507C89.9583 36.7507 89.9242 36.6952 89.9242 36.6274C89.9242 36.5596 89.822 36.4068 89.697 36.288C89.572 36.1691 89.4697 36.0331 89.4697 35.9856C89.4697 35.8734 88.5133 34.8998 88.403 34.8998C88.3564 34.8998 88.2228 34.7957 88.1061 34.6684C87.9893 34.5412 87.8467 34.4371 87.7894 34.4371C87.732 34.4371 87.6358 34.3676 87.5758 34.2828C87.5157 34.198 87.4059 34.1286 87.3317 34.1286C87.2577 34.1286 87.197 34.0939 87.197 34.0515C87.197 34.009 87.1288 33.9743 87.0455 33.9743C86.9621 33.9743 86.8939 33.9396 86.8939 33.8972C86.8939 33.8548 86.7917 33.8201 86.6667 33.8201C86.5417 33.8201 86.4394 33.7854 86.4394 33.743C86.4394 33.7006 86.3712 33.6658 86.2879 33.6658C86.2045 33.6658 86.1364 33.6311 86.1364 33.5887C86.1364 33.5463 86 33.5116 85.8333 33.5116C85.6667 33.5116 85.5303 33.4769 85.5303 33.4345C85.5303 33.3921 85.3599 33.3574 85.1515 33.3574C84.9432 33.3574 84.7727 33.3227 84.7727 33.2802C84.7727 33.2293 81.4646 33.2031 75 33.2031C68.5354 33.2031 65.2273 33.2293 65.2273 33.2802ZM84.7727 35.2854C84.7727 35.3278 84.9091 35.3625 85.0758 35.3625C85.2424 35.3625 85.3788 35.3972 85.3788 35.4396C85.3788 35.482 85.4811 35.5167 85.6061 35.5167C85.7311 35.5167 85.8333 35.5515 85.8333 35.5939C85.8333 35.6363 85.9015 35.671 85.9849 35.671C86.0682 35.671 86.1364 35.7057 86.1364 35.7481C86.1364 35.7905 86.1971 35.8252 86.2711 35.8252C86.3453 35.8252 86.4551 35.8946 86.5152 35.9795C86.5752 36.0643 86.6684 36.1337 86.7223 36.1337C86.86 36.1337 88.2576 37.5719 88.2576 37.7137C88.2576 37.7779 88.2917 37.8304 88.3333 37.8304C88.375 37.8304 88.4091 37.8998 88.4091 37.9846C88.4091 38.0694 88.4432 38.1389 88.4848 38.1389C88.5265 38.1389 88.5606 38.2083 88.5606 38.2931C88.5606 38.3779 88.5947 38.4473 88.6364 38.4473C88.678 38.4473 88.7121 38.5167 88.7121 38.6016C88.7121 38.6864 88.7462 38.7558 88.7879 38.7558C88.8295 38.7558 88.8636 38.8599 88.8636 38.9872C88.8636 39.1144 88.8977 39.2185 88.9394 39.2185C88.9811 39.2185 89.0152 39.3921 89.0152 39.6042C89.0152 39.8162 89.0492 39.9898 89.0909 39.9898C89.141 39.9898 89.1667 43.2288 89.1667 49.5527C89.1667 55.8766 89.141 59.1157 89.0909 59.1157C89.0492 59.1157 89.0152 59.2892 89.0152 59.5013C89.0152 59.7134 88.9811 59.8869 88.9394 59.8869C88.8977 59.8869 88.8636 59.991 88.8636 60.1183C88.8636 60.2455 88.8295 60.3496 88.7879 60.3496C88.7462 60.3496 88.7121 60.4191 88.7121 60.5039C88.7121 60.5887 88.678 60.6581 88.6364 60.6581C88.5947 60.6581 88.5606 60.7275 88.5606 60.8124C88.5606 60.8972 88.5265 60.9666 88.4848 60.9666C88.4432 60.9666 88.4091 61.0284 88.4091 61.1038C88.4091 61.1793 88.3409 61.2911 88.2576 61.3522C88.1742 61.4134 88.1061 61.5083 88.1061 61.5633C88.1061 61.6936 87.002 62.8175 86.874 62.8175C86.82 62.8175 86.7267 62.8869 86.6667 62.9718C86.6066 63.0566 86.4968 63.126 86.4227 63.126C86.3486 63.126 86.2879 63.1607 86.2879 63.2031C86.2879 63.2455 86.2197 63.2802 86.1364 63.2802C86.053 63.2802 85.9849 63.3149 85.9849 63.3574C85.9849 63.3998 85.9167 63.4345 85.8333 63.4345C85.75 63.4345 85.6818 63.4692 85.6818 63.5116C85.6818 63.554 85.5795 63.5887 85.4545 63.5887C85.3295 63.5887 85.2273 63.6234 85.2273 63.6658C85.2273 63.7083 85.0909 63.743 84.9242 63.743C84.7576 63.743 84.6212 63.7777 84.6212 63.8201C84.6212 63.8711 81.3889 63.8972 75.0758 63.8972C68.7627 63.8972 65.5303 63.8711 65.5303 63.8201C65.5303 63.7777 65.3598 63.743 65.1515 63.743C64.9432 63.743 64.7727 63.7083 64.7727 63.6658C64.7727 63.6234 64.6705 63.5887 64.5455 63.5887C64.4205 63.5887 64.3182 63.554 64.3182 63.5116C64.3182 63.4692 64.25 63.4345 64.1667 63.4345C64.0833 63.4345 64.0152 63.3998 64.0152 63.3574C64.0152 63.3149 63.9545 63.2802 63.8804 63.2802C63.8062 63.2802 63.6964 63.2108 63.6364 63.126C63.5763 63.0412 63.4802 62.9718 63.4227 62.9718C63.3654 62.9718 63.2228 62.8676 63.1061 62.7404C62.9893 62.6131 62.8552 62.509 62.808 62.509C62.6964 62.509 62.197 62.0006 62.197 61.887C62.197 61.839 62.0947 61.7024 61.9697 61.5836C61.8447 61.4647 61.7424 61.312 61.7424 61.2442C61.7424 61.1763 61.7083 61.1209 61.6667 61.1209C61.625 61.1209 61.5909 61.0514 61.5909 60.9666C61.5909 60.8818 61.5568 60.8124 61.5152 60.8124C61.4735 60.8124 61.4394 60.743 61.4394 60.6581C61.4394 60.5733 61.4053 60.5039 61.3636 60.5039C61.322 60.5039 61.2879 60.3998 61.2879 60.2725C61.2879 60.1453 61.2538 60.0412 61.2121 60.0412C61.1705 60.0412 61.1364 59.937 61.1364 59.8098C61.1364 59.6826 61.1023 59.5784 61.0606 59.5784C61.0105 59.5784 60.9848 56.1851 60.9848 49.5527C60.9848 42.9203 61.0105 39.527 61.0606 39.527C61.1023 39.527 61.1364 39.3882 61.1364 39.2185C61.1364 39.0489 61.1705 38.9101 61.2121 38.9101C61.2538 38.9101 61.2879 38.8407 61.2879 38.7558C61.2879 38.671 61.322 38.6016 61.3636 38.6016C61.4053 38.6016 61.4394 38.5322 61.4394 38.4473C61.4394 38.3625 61.4735 38.2931 61.5152 38.2931C61.5568 38.2931 61.5909 38.2237 61.5909 38.1389C61.5909 38.054 61.625 37.9846 61.6667 37.9846C61.7083 37.9846 61.7424 37.9228 61.7424 37.8474C61.7424 37.7719 61.8106 37.6602 61.8939 37.599C61.9773 37.5379 62.0455 37.4428 62.0455 37.3878C62.0455 37.2574 62.9977 36.288 63.1258 36.288C63.1798 36.288 63.2733 36.2185 63.3333 36.1337C63.3934 36.0489 63.5032 35.9795 63.5774 35.9795C63.6514 35.9795 63.7121 35.9448 63.7121 35.9024C63.7121 35.8599 63.7803 35.8252 63.8636 35.8252C63.947 35.8252 64.0152 35.7905 64.0152 35.7481C64.0152 35.7057 64.0833 35.671 64.1667 35.671C64.25 35.671 64.3182 35.6363 64.3182 35.5939C64.3182 35.5515 64.4205 35.5167 64.5455 35.5167C64.6705 35.5167 64.7727 35.482 64.7727 35.4396C64.7727 35.3972 64.9091 35.3625 65.0758 35.3625C65.2424 35.3625 65.3788 35.3278 65.3788 35.2854C65.3788 35.2344 68.6616 35.2083 75.0758 35.2083C81.4899 35.2083 84.7727 35.2344 84.7727 35.2854ZM78.1818 45.6967C75.286 48.6589 72.8737 51.0854 72.8213 51.0888C72.7688 51.0923 71.3629 49.707 69.697 48.0103C68.0311 46.3137 66.6507 44.9255 66.6295 44.9255C66.6083 44.9255 66.5909 46.5049 66.5909 48.4353V51.9453L69.0152 54.4113L71.4394 56.8774V58.1509C71.4394 58.8512 71.4565 59.4242 71.4774 59.4242C71.4983 59.4242 74.2255 56.6653 77.538 53.2932L83.5606 47.1622V43.7303C83.5606 41.8427 83.535 40.3011 83.5038 40.3046C83.4726 40.308 81.0777 42.7345 78.1818 45.6967ZM22.6705 75.1973L22.5 75.3827V81.825C22.5 86.0685 22.5258 88.2674 22.5758 88.2674C22.6174 88.2674 22.6515 88.4409 22.6515 88.653C22.6515 88.8651 22.6856 89.0386 22.7273 89.0386C22.7689 89.0386 22.803 89.1427 22.803 89.2699C22.803 89.3972 22.8371 89.5013 22.8788 89.5013C22.9205 89.5013 22.9545 89.5707 22.9545 89.6555C22.9545 89.7404 22.9886 89.8098 23.0303 89.8098C23.072 89.8098 23.1061 89.8792 23.1061 89.964C23.1061 90.0489 23.1402 90.1183 23.1818 90.1183C23.2235 90.1183 23.2576 90.1877 23.2576 90.2725C23.2576 90.3573 23.2917 90.4268 23.3333 90.4268C23.375 90.4268 23.4091 90.4815 23.4091 90.5485C23.4091 90.6155 23.5455 90.8036 23.7121 90.9666C23.8788 91.1296 24.0152 91.3029 24.0152 91.3517C24.0152 91.4662 24.2062 91.6607 24.3187 91.6607C24.3666 91.6607 24.5368 91.7995 24.697 91.9692C24.8571 92.1388 25.0419 92.2777 25.1077 92.2777C25.1735 92.2777 25.2273 92.3124 25.2273 92.3548C25.2273 92.3972 25.2955 92.4319 25.3788 92.4319C25.4621 92.4319 25.5303 92.4666 25.5303 92.509C25.5303 92.5514 25.5985 92.5861 25.6818 92.5861C25.7652 92.5861 25.8333 92.6208 25.8333 92.6633C25.8333 92.7057 25.9015 92.7404 25.9848 92.7404C26.0682 92.7404 26.1364 92.7751 26.1364 92.8175C26.1364 92.8599 26.2386 92.8946 26.3636 92.8946C26.4886 92.8946 26.5909 92.9293 26.5909 92.9717C26.5909 93.0142 26.7614 93.0489 26.9697 93.0489C27.178 93.0489 27.3485 93.0836 27.3485 93.126C27.3485 93.1765 28.8384 93.2031 31.6667 93.2031C34.4949 93.2031 35.9848 93.1765 35.9848 93.126C35.9848 93.0836 36.1212 93.0489 36.2879 93.0489C36.4545 93.0489 36.5909 93.0142 36.5909 92.9717C36.5909 92.9293 36.6932 92.8946 36.8182 92.8946C36.9432 92.8946 37.0455 92.8599 37.0455 92.8175C37.0455 92.7751 37.1477 92.7404 37.2727 92.7404C37.3977 92.7404 37.5 92.7057 37.5 92.6633C37.5 92.6208 37.5607 92.5861 37.6348 92.5861C37.7089 92.5861 37.8187 92.5167 37.8788 92.4319C37.9389 92.3471 38.0411 92.2777 38.1061 92.2777C38.171 92.2777 38.2733 92.2082 38.3333 92.1234C38.3934 92.0386 38.4869 91.9692 38.5411 91.9692C38.6614 91.9692 39.4697 91.1585 39.4697 91.0378C39.4697 90.9903 39.572 90.8541 39.697 90.7352C39.822 90.6164 39.9242 90.4636 39.9242 90.3958C39.9242 90.328 39.9583 90.2725 40 90.2725C40.0417 90.2725 40.0758 90.2031 40.0758 90.1183C40.0758 90.0334 40.1098 89.964 40.1515 89.964C40.1932 89.964 40.2273 89.8946 40.2273 89.8098C40.2273 89.725 40.2614 89.6555 40.303 89.6555C40.3447 89.6555 40.3788 89.5514 40.3788 89.4242C40.3788 89.2969 40.4129 89.1928 40.4545 89.1928C40.4962 89.1928 40.5303 89.054 40.5303 88.8843C40.5303 88.7147 40.5644 88.5759 40.6061 88.5759C40.6548 88.5759 40.6818 87.779 40.6818 86.3394C40.6818 84.8997 40.6548 84.1029 40.6061 84.1029C40.5644 84.1029 40.5303 83.9987 40.5303 83.8715C40.5303 83.7442 40.4962 83.6401 40.4545 83.6401C40.4129 83.6401 40.3788 83.536 40.3788 83.4088C40.3788 83.2815 40.3447 83.1774 40.303 83.1774C40.2614 83.1774 40.2273 83.0733 40.2273 82.946C40.2273 82.8188 40.1932 82.7147 40.1515 82.7147C40.1098 82.7147 40.0758 82.6529 40.0758 82.5775C40.0758 82.502 40.0076 82.3902 39.9242 82.3291C39.8409 82.2679 39.7727 82.1731 39.7727 82.1182C39.7727 81.9883 38.3651 80.5553 38.2374 80.5553C38.1836 80.5553 38.0904 80.4859 38.0303 80.4011C37.9702 80.3162 37.8605 80.2468 37.7863 80.2468C37.7122 80.2468 37.6515 80.2121 37.6515 80.1697C37.6515 80.1273 37.5833 80.0926 37.5 80.0926C37.4167 80.0926 37.3485 80.0579 37.3485 80.0154C37.3485 79.973 37.2462 79.9383 37.1212 79.9383C36.9962 79.9383 36.8939 79.9036 36.8939 79.8612C36.8939 79.8188 36.7576 79.7841 36.5909 79.7841C36.4242 79.7841 36.2879 79.7494 36.2879 79.707C36.2879 79.662 36.0354 79.6298 35.6818 79.6298C35.3283 79.6298 35.0758 79.5977 35.0758 79.5527C35.0758 79.5022 33.5858 79.4756 30.7576 79.4756C27.9293 79.4756 26.4394 79.5022 26.4394 79.5527C26.4394 79.5951 26.3371 79.6298 26.2121 79.6298C26.0354 79.6298 25.9848 79.6641 25.9848 79.7841C25.9848 79.8689 25.9508 79.9383 25.9091 79.9383C25.8636 79.9383 25.8333 80.2468 25.8333 80.7095C25.8333 81.1723 25.8636 81.4807 25.9091 81.4807C25.9508 81.4807 25.9848 81.5502 25.9848 81.635C25.9848 81.7875 26.0354 81.7892 30.6818 81.7892C33.7627 81.7892 35.3788 81.8158 35.3788 81.8663C35.3788 81.9088 35.5492 81.9435 35.7576 81.9435C35.9659 81.9435 36.1364 81.9782 36.1364 82.0206C36.1364 82.063 36.2045 82.0977 36.2879 82.0977C36.3712 82.0977 36.4394 82.1324 36.4394 82.1748C36.4394 82.2172 36.5076 82.2519 36.5909 82.2519C36.6742 82.2519 36.7424 82.2867 36.7424 82.3291C36.7424 82.3715 36.7942 82.4062 36.8575 82.4062C37.0073 82.4062 37.9545 83.3705 37.9545 83.523C37.9545 83.5875 37.9886 83.6401 38.0303 83.6401C38.072 83.6401 38.1061 83.7095 38.1061 83.7944C38.1061 83.8792 38.1402 83.9486 38.1818 83.9486C38.2235 83.9486 38.2576 84.0527 38.2576 84.18C38.2576 84.3072 38.2917 84.4113 38.3333 84.4113C38.3818 84.4113 38.4091 85.1054 38.4091 86.3394C38.4091 87.5733 38.3818 88.2674 38.3333 88.2674C38.2917 88.2674 38.2576 88.3715 38.2576 88.4987C38.2576 88.626 38.2235 88.7301 38.1818 88.7301C38.1402 88.7301 38.1061 88.7995 38.1061 88.8843C38.1061 88.9692 38.072 89.0386 38.0303 89.0386C37.9886 89.0386 37.9545 89.1004 37.9545 89.1758C37.9545 89.2513 37.8864 89.363 37.803 89.4242C37.7197 89.4853 37.6515 89.5814 37.6515 89.6375C37.6515 89.7699 37.3093 90.1183 37.1792 90.1183C37.1241 90.1183 37.0298 90.1877 36.9697 90.2725C36.9096 90.3573 36.7998 90.4268 36.7257 90.4268C36.6516 90.4268 36.5909 90.4615 36.5909 90.5039C36.5909 90.5463 36.5227 90.581 36.4394 90.581C36.3561 90.581 36.2879 90.6157 36.2879 90.6581C36.2879 90.7005 36.1856 90.7352 36.0606 90.7352C35.9356 90.7352 35.8333 90.7699 35.8333 90.8124C35.8333 90.8629 34.3687 90.8895 31.5909 90.8895C28.8131 90.8895 27.3485 90.8629 27.3485 90.8124C27.3485 90.7699 27.2462 90.7352 27.1212 90.7352C26.9962 90.7352 26.8939 90.7005 26.8939 90.6581C26.8939 90.6157 26.8258 90.581 26.7424 90.581C26.6591 90.581 26.5909 90.5463 26.5909 90.5039C26.5909 90.4615 26.5392 90.4268 26.4758 90.4268C26.3359 90.4268 25.3788 89.4673 25.3788 89.3269C25.3788 89.2719 25.3106 89.1769 25.2273 89.1157C25.1383 89.0504 25.0758 88.916 25.0758 88.7902C25.0758 88.6723 25.0417 88.5759 25 88.5759C24.9583 88.5759 24.9242 88.437 24.9242 88.2674C24.9242 88.0977 24.8902 87.9589 24.8485 87.9589C24.7986 87.9589 24.7727 85.7849 24.7727 81.591C24.7727 76.1748 24.7565 75.2065 24.6645 75.1128C24.5829 75.0297 24.3458 75.0037 23.6986 75.0073C22.8937 75.0118 22.8304 75.0234 22.6705 75.1973ZM118.049 75.118C117.928 75.2587 117.909 88.7301 118.03 88.7301C118.072 88.7301 118.106 88.8342 118.106 88.9615C118.106 89.0887 118.14 89.1928 118.182 89.1928C118.223 89.1928 118.258 89.2969 118.258 89.4242C118.258 89.5514 118.292 89.6555 118.333 89.6555C118.375 89.6555 118.409 89.725 118.409 89.8098C118.409 89.8946 118.443 89.964 118.485 89.964C118.527 89.964 118.561 90.0334 118.561 90.1183C118.561 90.2031 118.595 90.2725 118.636 90.2725C118.678 90.2725 118.712 90.3343 118.712 90.4097C118.712 90.4852 118.78 90.597 118.864 90.6581C118.947 90.7193 119.015 90.8142 119.015 90.8692C119.015 90.9241 119.27 91.2288 119.582 91.5462C119.894 91.8637 120.193 92.1234 120.247 92.1234C120.301 92.1234 120.394 92.1928 120.455 92.2777C120.515 92.3625 120.624 92.4319 120.699 92.4319C120.773 92.4319 120.833 92.4666 120.833 92.509C120.833 92.5514 120.902 92.5861 120.985 92.5861C121.068 92.5861 121.136 92.6208 121.136 92.6633C121.136 92.7057 121.239 92.7404 121.364 92.7404C121.489 92.7404 121.591 92.7751 121.591 92.8175C121.591 92.8599 121.693 92.8946 121.818 92.8946C121.943 92.8946 122.045 92.9293 122.045 92.9717C122.045 93.0142 122.182 93.0489 122.348 93.0489C122.515 93.0489 122.652 93.0836 122.652 93.126C122.652 93.1757 123.474 93.2031 124.968 93.2031C126.874 93.2031 127.303 93.1836 127.392 93.0929C127.474 93.0091 127.5 92.7506 127.5 92.0132C127.5 91.0952 127.492 91.0437 127.348 91.0437C127.265 91.0437 127.197 91.009 127.197 90.9666C127.197 90.9169 126.414 90.8895 125 90.8895C123.586 90.8895 122.803 90.862 122.803 90.8124C122.803 90.7699 122.701 90.7352 122.576 90.7352C122.451 90.7352 122.348 90.7005 122.348 90.6581C122.348 90.6157 122.28 90.581 122.197 90.581C122.114 90.581 122.045 90.5463 122.045 90.5039C122.045 90.4615 121.977 90.4268 121.894 90.4268C121.811 90.4268 121.742 90.3921 121.742 90.3496C121.742 90.3072 121.69 90.2725 121.627 90.2725C121.486 90.2725 120.833 89.6222 120.833 89.4818C120.833 89.4264 120.765 89.3311 120.682 89.2699C120.598 89.2088 120.53 89.097 120.53 89.0215C120.53 88.9461 120.496 88.8843 120.455 88.8843C120.413 88.8843 120.379 88.7802 120.379 88.653C120.379 88.5257 120.345 88.4216 120.303 88.4216C120.254 88.4216 120.227 87.2648 120.227 85.1054V81.7892H123.755C126.712 81.7892 127.301 81.7714 127.392 81.679C127.473 81.5967 127.5 81.3515 127.5 80.7095C127.5 79.8229 127.44 79.6298 127.164 79.6298C127.099 79.6298 127.045 79.5951 127.045 79.5527C127.045 79.5024 125.859 79.4756 123.636 79.4756H120.227V77.4284V75.3812L120.041 75.1919C119.865 75.0129 119.809 75.0028 119 75.0055C118.358 75.0078 118.12 75.0359 118.049 75.118ZM48.4091 79.5527C48.4091 79.5977 48.1566 79.6298 47.803 79.6298C47.4495 79.6298 47.197 79.662 47.197 79.707C47.197 79.7494 47.0947 79.7841 46.9697 79.7841C46.8447 79.7841 46.7424 79.8188 46.7424 79.8612C46.7424 79.9036 46.6402 79.9383 46.5152 79.9383C46.3902 79.9383 46.2879 79.973 46.2879 80.0154C46.2879 80.0579 46.2197 80.0926 46.1364 80.0926C46.053 80.0926 45.9848 80.1273 45.9848 80.1697C45.9848 80.2121 45.9242 80.2468 45.8501 80.2468C45.7759 80.2468 45.6661 80.3162 45.6061 80.4011C45.546 80.4859 45.4498 80.5553 45.3924 80.5553C45.3351 80.5553 45.1925 80.6594 45.0758 80.7867C44.959 80.9139 44.8245 81.018 44.7767 81.018C44.6643 81.018 44.3182 81.3704 44.3182 81.4848C44.3182 81.5334 44.2159 81.6704 44.0909 81.7892C43.9659 81.9081 43.8636 82.0532 43.8636 82.1116C43.8636 82.17 43.7955 82.2679 43.7121 82.3291C43.6288 82.3902 43.5606 82.502 43.5606 82.5775C43.5606 82.6529 43.5265 82.7147 43.4848 82.7147C43.4432 82.7147 43.4091 82.7841 43.4091 82.8689C43.4091 82.9538 43.375 83.0232 43.3333 83.0232C43.2917 83.0232 43.2576 83.1273 43.2576 83.2545C43.2576 83.3818 43.2235 83.4859 43.1818 83.4859C43.1402 83.4859 43.1061 83.6247 43.1061 83.7944C43.1061 83.964 43.072 84.1029 43.0303 84.1029C42.9815 84.1029 42.9545 84.9255 42.9545 86.4165C42.9545 87.9075 42.9815 88.7301 43.0303 88.7301C43.072 88.7301 43.1061 88.8342 43.1061 88.9615C43.1061 89.0887 43.1402 89.1928 43.1818 89.1928C43.2235 89.1928 43.2576 89.2969 43.2576 89.4242C43.2576 89.5514 43.2917 89.6555 43.3333 89.6555C43.375 89.6555 43.4091 89.725 43.4091 89.8098C43.4091 89.8946 43.4432 89.964 43.4848 89.964C43.5265 89.964 43.5606 90.0334 43.5606 90.1183C43.5606 90.2031 43.5947 90.2725 43.6364 90.2725C43.678 90.2725 43.7121 90.3343 43.7121 90.4097C43.7121 90.4852 43.7803 90.597 43.8636 90.6581C43.947 90.7193 44.0152 90.8142 44.0152 90.8692C44.0152 90.9995 45.1192 92.1234 45.2472 92.1234C45.3012 92.1234 45.3945 92.1928 45.4545 92.2777C45.5146 92.3625 45.6244 92.4319 45.6986 92.4319C45.7727 92.4319 45.8333 92.4666 45.8333 92.509C45.8333 92.5514 45.9015 92.5861 45.9848 92.5861C46.0682 92.5861 46.1364 92.6208 46.1364 92.6633C46.1364 92.7057 46.2386 92.7404 46.3636 92.7404C46.4886 92.7404 46.5909 92.7751 46.5909 92.8175C46.5909 92.8599 46.6932 92.8946 46.8182 92.8946C46.9432 92.8946 47.0455 92.9293 47.0455 92.9717C47.0455 93.0142 47.1818 93.0489 47.3485 93.0489C47.5152 93.0489 47.6515 93.0836 47.6515 93.126C47.6515 93.1768 49.8882 93.2031 54.2099 93.2031C61.1655 93.2031 60.9848 93.2122 60.9848 92.8615C60.9848 92.7949 61.0189 92.7404 61.0606 92.7404C61.1055 92.7404 61.1364 92.4576 61.1364 92.0463C61.1364 91.635 61.1055 91.3522 61.0606 91.3522C61.0189 91.3522 60.9848 91.2977 60.9848 91.231C60.9848 90.8805 61.1602 90.8895 54.2857 90.8895C50.0144 90.8895 47.803 90.8632 47.803 90.8124C47.803 90.7699 47.7008 90.7352 47.5758 90.7352C47.4508 90.7352 47.3485 90.7005 47.3485 90.6581C47.3485 90.6157 47.2803 90.581 47.197 90.581C47.1136 90.581 47.0455 90.5463 47.0455 90.5039C47.0455 90.4615 46.9773 90.4268 46.8939 90.4268C46.8106 90.4268 46.7424 90.3921 46.7424 90.3496C46.7424 90.3072 46.6904 90.2725 46.6268 90.2725C46.4858 90.2725 45.8333 89.6222 45.8333 89.4818C45.8333 89.4264 45.7652 89.3311 45.6818 89.2699C45.5985 89.2088 45.5303 89.097 45.5303 89.0215C45.5303 88.9461 45.4962 88.8843 45.4545 88.8843C45.4129 88.8843 45.3788 88.7802 45.3788 88.653C45.3788 88.5257 45.3447 88.4216 45.303 88.4216C45.2545 88.4216 45.2273 87.7018 45.2273 86.4165C45.2273 85.1311 45.2545 84.4113 45.303 84.4113C45.3447 84.4113 45.3788 84.3072 45.3788 84.18C45.3788 84.0527 45.4129 83.9486 45.4545 83.9486C45.4962 83.9486 45.5303 83.8792 45.5303 83.7944C45.5303 83.7095 45.5644 83.6401 45.6061 83.6401C45.6477 83.6401 45.6818 83.5875 45.6818 83.523C45.6818 83.3805 46.6243 82.4062 46.7622 82.4062C46.8162 82.4062 46.9096 82.3368 46.9697 82.2519C47.0339 82.1614 47.1658 82.0977 47.2895 82.0977C47.4052 82.0977 47.5 82.063 47.5 82.0206C47.5 81.9782 47.6364 81.9435 47.803 81.9435C47.9697 81.9435 48.1061 81.9088 48.1061 81.8663C48.1061 81.8158 49.7222 81.7892 52.803 81.7892C55.8839 81.7892 57.5 81.8158 57.5 81.8663C57.5 81.9088 57.6705 81.9435 57.8788 81.9435C58.0871 81.9435 58.2576 81.9782 58.2576 82.0206C58.2576 82.063 58.3258 82.0977 58.4091 82.0977C58.4924 82.0977 58.5606 82.1324 58.5606 82.1748C58.5606 82.2172 58.6127 82.2519 58.6762 82.2519C58.8716 82.2519 59.4697 82.919 59.4697 83.1368C59.4697 83.244 59.5038 83.3316 59.5455 83.3316C59.5871 83.3316 59.6212 83.5052 59.6212 83.7172C59.6212 83.9293 59.5871 84.1029 59.5455 84.1029C59.5038 84.1029 59.4697 84.1905 59.4697 84.2977C59.4697 84.5155 58.8716 85.1825 58.6762 85.1825C58.6127 85.1825 58.5606 85.2172 58.5606 85.2597C58.5606 85.3021 58.4583 85.3368 58.3333 85.3368C58.2083 85.3368 58.1061 85.3715 58.1061 85.4139C58.1061 85.4646 56.1479 85.491 52.383 85.491H46.6598L46.4739 85.6804C46.2987 85.8586 46.2879 85.9195 46.2879 86.727C46.2879 87.3671 46.3153 87.6122 46.3961 87.6944C46.488 87.7881 47.399 87.8046 52.4567 87.8046C56.3745 87.8046 58.4091 87.7783 58.4091 87.7275C58.4091 87.6851 58.5455 87.6504 58.7121 87.6504C58.8788 87.6504 59.0152 87.6157 59.0152 87.5733C59.0152 87.5309 59.1515 87.4962 59.3182 87.4962C59.4848 87.4962 59.6212 87.4615 59.6212 87.419C59.6212 87.3766 59.6894 87.3419 59.7727 87.3419C59.8561 87.3419 59.9242 87.3072 59.9242 87.2648C59.9242 87.2224 59.9924 87.1877 60.0758 87.1877C60.1591 87.1877 60.2273 87.153 60.2273 87.1106C60.2273 87.0681 60.279 87.0334 60.3424 87.0334C60.4921 87.0334 61.4394 86.0691 61.4394 85.9167C61.4394 85.8522 61.4735 85.7995 61.5152 85.7995C61.5568 85.7995 61.5909 85.7301 61.5909 85.6453C61.5909 85.5604 61.625 85.491 61.6667 85.491C61.7083 85.491 61.7424 85.3869 61.7424 85.2597C61.7424 85.1324 61.7765 85.0283 61.8182 85.0283C61.8598 85.0283 61.8939 84.8895 61.8939 84.7198C61.8939 84.5502 61.928 84.4113 61.9697 84.4113C62.0139 84.4113 62.0455 84.1543 62.0455 83.7944C62.0455 83.4344 62.0139 83.1774 61.9697 83.1774C61.928 83.1774 61.8939 83.0386 61.8939 82.8689C61.8939 82.6993 61.8598 82.5604 61.8182 82.5604C61.7765 82.5604 61.7424 82.491 61.7424 82.4062C61.7424 82.3214 61.7083 82.2519 61.6667 82.2519C61.625 82.2519 61.5909 82.1825 61.5909 82.0977C61.5909 82.0129 61.5568 81.9435 61.5152 81.9435C61.4735 81.9435 61.4394 81.8817 61.4394 81.8063C61.4394 81.7308 61.3712 81.619 61.2879 81.5579C61.2045 81.4967 61.1364 81.4012 61.1364 81.3455C61.1364 81.2139 60.6409 80.7095 60.5117 80.7095C60.457 80.7095 60.3631 80.6401 60.303 80.5553C60.243 80.4705 60.1407 80.4011 60.0758 80.4011C60.0108 80.4011 59.9086 80.3316 59.8485 80.2468C59.7843 80.1563 59.6523 80.0926 59.5287 80.0926C59.413 80.0926 59.3182 80.0579 59.3182 80.0154C59.3182 79.973 59.25 79.9383 59.1667 79.9383C59.0833 79.9383 59.0152 79.9036 59.0152 79.8612C59.0152 79.8188 58.8788 79.7841 58.7121 79.7841C58.5455 79.7841 58.4091 79.7494 58.4091 79.707C58.4091 79.662 58.1566 79.6298 57.803 79.6298C57.4495 79.6298 57.197 79.5977 57.197 79.5527C57.197 79.5022 55.6818 79.4756 52.803 79.4756C49.9242 79.4756 48.4091 79.5022 48.4091 79.5527ZM70.0758 79.5527C70.0758 79.5977 69.8233 79.6298 69.4697 79.6298C69.1161 79.6298 68.8636 79.662 68.8636 79.707C68.8636 79.7494 68.7273 79.7841 68.5606 79.7841C68.3939 79.7841 68.2576 79.8188 68.2576 79.8612C68.2576 79.9036 68.1894 79.9383 68.1061 79.9383C68.0227 79.9383 67.9545 79.973 67.9545 80.0154C67.9545 80.0579 67.8598 80.0926 67.744 80.0926C67.6204 80.0926 67.4884 80.1563 67.4242 80.2468C67.3642 80.3316 67.2544 80.4011 67.1802 80.4011C67.1061 80.4011 67.0455 80.4358 67.0455 80.4782C67.0455 80.5206 66.9939 80.5553 66.9308 80.5553C66.7913 80.5553 65.5303 81.8236 65.5303 81.9639C65.5303 82.0187 65.4621 82.1137 65.3788 82.1748C65.2955 82.236 65.2273 82.3477 65.2273 82.4232C65.2273 82.4987 65.1932 82.5604 65.1515 82.5604C65.1098 82.5604 65.0758 82.6298 65.0758 82.7147C65.0758 82.7995 65.0417 82.8689 65 82.8689C64.9583 82.8689 64.9242 82.9383 64.9242 83.0232C64.9242 83.108 64.8902 83.1774 64.8485 83.1774C64.8068 83.1774 64.7727 83.2815 64.7727 83.4088C64.7727 83.536 64.7386 83.6401 64.697 83.6401C64.6553 83.6401 64.6212 83.7789 64.6212 83.9486C64.6212 84.1183 64.5871 84.2571 64.5455 84.2571C64.4958 84.2571 64.4697 85.7738 64.4697 88.653C64.4697 92.9974 64.4714 93.0489 64.6212 93.0489C64.7045 93.0489 64.7727 93.0836 64.7727 93.126C64.7727 93.1725 65.0895 93.2031 65.5716 93.2031C66.3189 93.2031 66.3826 93.1908 66.5564 93.0138L66.7424 92.8245V88.695C66.7424 85.9935 66.7686 84.5656 66.8182 84.5656C66.8598 84.5656 66.8939 84.4615 66.8939 84.3342C66.8939 84.207 66.928 84.1029 66.9697 84.1029C67.0114 84.1029 67.0455 84.0064 67.0455 83.8885C67.0455 83.7627 67.108 83.6283 67.197 83.563C67.2803 83.5018 67.3485 83.4067 67.3485 83.3515C67.3485 83.2111 68.1534 82.4062 68.2938 82.4062C68.3572 82.4062 68.4091 82.3715 68.4091 82.3291C68.4091 82.2867 68.4773 82.2519 68.5606 82.2519C68.6439 82.2519 68.7121 82.2172 68.7121 82.1748C68.7121 82.1324 68.7803 82.0977 68.8636 82.0977C68.947 82.0977 69.0152 82.063 69.0152 82.0206C69.0152 81.9782 69.1856 81.9435 69.3939 81.9435C69.6023 81.9435 69.7727 81.9088 69.7727 81.8663C69.7727 81.816 71.0498 81.7892 73.4524 81.7892C76.5404 81.7892 77.1495 81.7715 77.2402 81.679C77.3211 81.5967 77.3485 81.3515 77.3485 80.7095C77.3485 79.8229 77.2885 79.6298 77.013 79.6298C76.9475 79.6298 76.8939 79.5951 76.8939 79.5527C76.8939 79.5024 75.707 79.4756 73.4849 79.4756C71.2627 79.4756 70.0758 79.5024 70.0758 79.5527ZM83.7121 79.5527C83.7121 79.5977 83.4596 79.6298 83.1061 79.6298C82.7525 79.6298 82.5 79.662 82.5 79.707C82.5 79.7494 82.3636 79.7841 82.197 79.7841C82.0303 79.7841 81.8939 79.8188 81.8939 79.8612C81.8939 79.9036 81.8258 79.9383 81.7424 79.9383C81.6591 79.9383 81.5909 79.973 81.5909 80.0154C81.5909 80.0579 81.4886 80.0926 81.3636 80.0926C81.2386 80.0926 81.1364 80.1273 81.1364 80.1697C81.1364 80.2121 81.0757 80.2468 81.0016 80.2468C80.9274 80.2468 80.8177 80.3162 80.7576 80.4011C80.6975 80.4859 80.6042 80.5553 80.5504 80.5553C80.4226 80.5553 79.1667 81.8338 79.1667 81.9639C79.1667 82.0187 79.0985 82.1137 79.0152 82.1748C78.9318 82.236 78.8636 82.3477 78.8636 82.4232C78.8636 82.4987 78.8295 82.5604 78.7879 82.5604C78.7462 82.5604 78.7121 82.6298 78.7121 82.7147C78.7121 82.7995 78.678 82.8689 78.6364 82.8689C78.5947 82.8689 78.5606 82.9383 78.5606 83.0232C78.5606 83.108 78.5265 83.1774 78.4849 83.1774C78.4432 83.1774 78.4091 83.2815 78.4091 83.4088C78.4091 83.536 78.375 83.6401 78.3333 83.6401C78.2917 83.6401 78.2576 83.7789 78.2576 83.9486C78.2576 84.1183 78.2235 84.2571 78.1818 84.2571C78.1331 84.2571 78.1061 85.0283 78.1061 86.4165C78.1061 87.8046 78.1331 88.5759 78.1818 88.5759C78.2235 88.5759 78.2576 88.7147 78.2576 88.8843C78.2576 89.054 78.2917 89.1928 78.3333 89.1928C78.375 89.1928 78.4091 89.2969 78.4091 89.4242C78.4091 89.5514 78.4432 89.6555 78.4849 89.6555C78.5265 89.6555 78.5606 89.725 78.5606 89.8098C78.5606 89.8946 78.5947 89.964 78.6364 89.964C78.678 89.964 78.7121 90.0258 78.7121 90.1012C78.7121 90.1767 78.7803 90.2885 78.8636 90.3496C78.947 90.4108 79.0152 90.5149 79.0152 90.581C79.0152 90.6471 79.0833 90.7512 79.1667 90.8124C79.25 90.8735 79.3182 90.9687 79.3182 91.0238C79.3182 91.1545 80.1184 91.9692 80.2468 91.9692C80.301 91.9692 80.3945 92.0386 80.4545 92.1234C80.5146 92.2082 80.6169 92.2777 80.6818 92.2777C80.7467 92.2777 80.849 92.3471 80.9091 92.4319C80.9692 92.5167 81.0789 92.5861 81.1531 92.5861C81.2272 92.5861 81.2879 92.6208 81.2879 92.6633C81.2879 92.7057 81.3902 92.7404 81.5152 92.7404C81.6402 92.7404 81.7424 92.7751 81.7424 92.8175C81.7424 92.8599 81.8447 92.8946 81.9697 92.8946C82.0947 92.8946 82.197 92.9293 82.197 92.9717C82.197 93.0142 82.3333 93.0489 82.5 93.0489C82.6667 93.0489 82.803 93.0836 82.803 93.126C82.803 93.1767 84.8875 93.2031 88.9049 93.2031H95.0069L95.1928 93.0138C95.3657 92.8379 95.3788 92.7697 95.3788 92.0463C95.3788 91.3229 95.3657 91.2547 95.1928 91.0788L95.0069 90.8895H88.9807C85.0138 90.8895 82.9545 90.8631 82.9545 90.8124C82.9545 90.7699 82.8523 90.7352 82.7273 90.7352C82.6023 90.7352 82.5 90.7005 82.5 90.6581C82.5 90.6157 82.4318 90.581 82.3485 90.581C82.2652 90.581 82.197 90.5463 82.197 90.5039C82.197 90.4615 82.1363 90.4268 82.0622 90.4268C81.988 90.4268 81.8783 90.3573 81.8182 90.2725C81.7581 90.1877 81.663 90.1183 81.6067 90.1183C81.4809 90.1183 81.2879 89.9303 81.2879 89.8077C81.2879 89.758 81.1856 89.6201 81.0606 89.5013C80.9356 89.3825 80.8333 89.2297 80.8333 89.1619C80.8333 89.094 80.7992 89.0386 80.7576 89.0386C80.7159 89.0386 80.6818 88.9692 80.6818 88.8843C80.6818 88.7995 80.6477 88.7301 80.6061 88.7301C80.5644 88.7301 80.5303 88.626 80.5303 88.4987C80.5303 88.3715 80.4962 88.2674 80.4545 88.2674C80.4061 88.2674 80.3788 87.599 80.3788 86.4165C80.3788 85.234 80.4061 84.5656 80.4545 84.5656C80.4962 84.5656 80.5303 84.4268 80.5303 84.2571C80.5303 84.0874 80.5644 83.9486 80.6061 83.9486C80.6477 83.9486 80.6818 83.8868 80.6818 83.8114C80.6818 83.7359 80.75 83.6242 80.8333 83.563C80.9167 83.5018 80.9849 83.4067 80.9849 83.3515C80.9849 83.2111 81.7898 82.4062 81.9302 82.4062C81.9936 82.4062 82.0455 82.3715 82.0455 82.3291C82.0455 82.2867 82.1136 82.2519 82.197 82.2519C82.2803 82.2519 82.3485 82.2172 82.3485 82.1748C82.3485 82.1324 82.4167 82.0977 82.5 82.0977C82.5833 82.0977 82.6515 82.063 82.6515 82.0206C82.6515 81.9782 82.822 81.9435 83.0303 81.9435C83.2386 81.9435 83.4091 81.9088 83.4091 81.8663C83.4091 81.8156 85.4185 81.7892 89.2857 81.7892C94.2778 81.7892 95.1786 81.7726 95.2705 81.679C95.3514 81.5967 95.3788 81.3515 95.3788 80.7095C95.3788 79.8229 95.3188 79.6298 95.0433 79.6298C94.9778 79.6298 94.9242 79.5951 94.9242 79.5527C94.9242 79.502 93.0051 79.4756 89.3182 79.4756C85.6313 79.4756 83.7121 79.502 83.7121 79.5527ZM98.5606 79.5527C98.5606 79.5951 98.4583 79.6298 98.3333 79.6298C98.1566 79.6298 98.1061 79.6641 98.1061 79.7841C98.1061 79.8689 98.072 79.9383 98.0303 79.9383C97.9808 79.9383 97.9545 81.3522 97.9545 84.0257C97.9545 86.6993 97.9808 88.1131 98.0303 88.1131C98.072 88.1131 98.1061 88.2867 98.1061 88.4987C98.1061 88.7108 98.1402 88.8843 98.1818 88.8843C98.2235 88.8843 98.2576 88.9885 98.2576 89.1157C98.2576 89.243 98.2917 89.3471 98.3333 89.3471C98.375 89.3471 98.4091 89.4512 98.4091 89.5784C98.4091 89.7057 98.4432 89.8098 98.4848 89.8098C98.5265 89.8098 98.5606 89.8792 98.5606 89.964C98.5606 90.0489 98.5947 90.1183 98.6364 90.1183C98.678 90.1183 98.7121 90.18 98.7121 90.2555C98.7121 90.331 98.7803 90.4427 98.8636 90.5039C98.947 90.565 99.0152 90.66 99.0152 90.7148C99.0152 90.8449 100.271 92.1234 100.399 92.1234C100.453 92.1234 100.546 92.1928 100.606 92.2777C100.666 92.3625 100.776 92.4319 100.85 92.4319C100.924 92.4319 100.985 92.4666 100.985 92.509C100.985 92.5514 101.053 92.5861 101.136 92.5861C101.22 92.5861 101.288 92.6208 101.288 92.6633C101.288 92.7057 101.356 92.7404 101.439 92.7404C101.523 92.7404 101.591 92.7751 101.591 92.8175C101.591 92.8599 101.693 92.8946 101.818 92.8946C101.943 92.8946 102.045 92.9293 102.045 92.9717C102.045 93.0142 102.216 93.0489 102.424 93.0489C102.633 93.0489 102.803 93.0836 102.803 93.126C102.803 93.1764 104.167 93.2031 106.742 93.2031C109.318 93.2031 110.682 93.1764 110.682 93.126C110.682 93.0836 110.818 93.0489 110.985 93.0489C111.152 93.0489 111.288 93.0142 111.288 92.9717C111.288 92.9293 111.39 92.8946 111.515 92.8946C111.64 92.8946 111.742 92.8599 111.742 92.8175C111.742 92.7751 111.811 92.7404 111.894 92.7404C111.977 92.7404 112.045 92.7057 112.045 92.6633C112.045 92.6208 112.114 92.5861 112.197 92.5861C112.28 92.5861 112.348 92.5514 112.348 92.509C112.348 92.4666 112.417 92.4319 112.5 92.4319C112.583 92.4319 112.652 92.3972 112.652 92.3548C112.652 92.3124 112.706 92.2777 112.773 92.2777C112.839 92.2777 112.989 92.1735 113.106 92.0463C113.223 91.919 113.357 91.8149 113.404 91.8149C113.516 91.8149 114.015 91.3065 114.015 91.193C114.015 91.1449 114.117 91.0083 114.242 90.8895C114.367 90.7706 114.47 90.6255 114.47 90.5671C114.47 90.5087 114.538 90.4108 114.621 90.3496C114.705 90.2885 114.773 90.1767 114.773 90.1012C114.773 90.0258 114.807 89.964 114.848 89.964C114.89 89.964 114.924 89.8599 114.924 89.7327C114.924 89.6054 114.958 89.5013 115 89.5013C115.042 89.5013 115.076 89.3972 115.076 89.2699C115.076 89.1427 115.11 89.0386 115.152 89.0386C115.193 89.0386 115.227 88.8998 115.227 88.7301C115.227 88.5604 115.261 88.4216 115.303 88.4216C115.353 88.4216 115.379 86.9417 115.379 84.1359C115.379 79.6088 115.38 79.6298 115.043 79.6298C114.978 79.6298 114.924 79.5951 114.924 79.5527C114.924 79.507 114.646 79.4756 114.242 79.4756C113.838 79.4756 113.561 79.507 113.561 79.5527C113.561 79.5951 113.507 79.6298 113.442 79.6298C113.105 79.6298 113.106 79.6192 113.106 83.9817C113.106 86.6845 113.08 88.1131 113.03 88.1131C112.989 88.1131 112.955 88.2519 112.955 88.4216C112.955 88.5913 112.92 88.7301 112.879 88.7301C112.837 88.7301 112.803 88.7995 112.803 88.8843C112.803 88.9692 112.769 89.0386 112.727 89.0386C112.686 89.0386 112.652 89.0912 112.652 89.1555C112.652 89.3079 111.552 90.4268 111.403 90.4268C111.34 90.4268 111.288 90.4615 111.288 90.5039C111.288 90.5463 111.22 90.581 111.136 90.581C111.053 90.581 110.985 90.6157 110.985 90.6581C110.985 90.7005 110.883 90.7352 110.758 90.7352C110.633 90.7352 110.53 90.7699 110.53 90.8124C110.53 90.8628 109.192 90.8895 106.667 90.8895C104.141 90.8895 102.803 90.8628 102.803 90.8124C102.803 90.7699 102.701 90.7352 102.576 90.7352C102.451 90.7352 102.348 90.7005 102.348 90.6581C102.348 90.6157 102.288 90.581 102.214 90.581C102.14 90.581 102.03 90.5116 101.97 90.4268C101.91 90.3419 101.816 90.2725 101.762 90.2725C101.624 90.2725 100.833 89.4531 100.833 89.3102C100.833 89.2456 100.799 89.1928 100.758 89.1928C100.716 89.1928 100.682 89.1234 100.682 89.0386C100.682 88.9537 100.648 88.8843 100.606 88.8843C100.564 88.8843 100.53 88.8149 100.53 88.7301C100.53 88.6453 100.496 88.5759 100.455 88.5759C100.412 88.5759 100.379 88.3702 100.379 88.1131C100.379 87.8561 100.345 87.6504 100.303 87.6504C100.254 87.6504 100.227 86.2989 100.227 83.7503C100.227 79.6347 100.227 79.6298 99.8917 79.6298C99.8263 79.6298 99.7727 79.5951 99.7727 79.5527C99.7727 79.5078 99.5202 79.4756 99.1667 79.4756C98.8131 79.4756 98.5606 79.5078 98.5606 79.5527Z" fill="#727181"/>
</svg>
