<svg width="150" height="126" viewBox="0 0 150 126" fill="none" xmlns="http://www.w3.org/2000/svg">
<path d="M47.5135 59.2279V66.3759C47.5135 66.5121 47.5135 66.6142 47.4795 66.7503C47.2756 69.8138 44.7606 72.2645 41.6338 72.2645C38.507 72.2645 35.958 69.8138 35.7881 66.7503C35.7881 66.6482 35.7881 66.5121 35.7881 66.3759V59.2279H38.7109V66.3759C38.7109 66.444 38.7109 66.478 38.7109 66.5461C38.8129 68.0438 40.0024 69.2351 41.4638 69.3032C41.5318 69.3032 41.5658 69.3032 41.6338 69.3032C41.7018 69.3032 41.7357 69.3032 41.8037 69.3032C43.2991 69.2011 44.4887 68.0098 44.5566 66.5461C44.5566 66.478 44.5566 66.444 44.5566 66.3759V59.2279H47.5135Z" fill="#727181"/>
<path d="M68.9592 58.8536C65.2548 58.8536 62.2637 61.849 62.2637 65.5591C62.2637 69.2693 65.2548 72.2646 68.9592 72.2646C71.2362 72.2646 73.2075 71.1414 74.4312 69.4055L71.8819 67.9078C71.2021 68.7587 70.1487 69.3033 68.9592 69.3033C67.4298 69.3033 66.1043 68.3503 65.5263 67.0228H75.1446C75.2465 66.5463 75.3149 66.0357 75.3149 65.5251C75.3149 61.849 72.6637 58.8536 68.9592 58.8536ZM65.5263 64.0955C66.1043 62.734 67.226 61.7809 68.7896 61.7809C70.3525 61.7809 71.542 62.734 72.12 64.0955H65.5263Z" fill="#727181"/>
<path d="M55.0923 72.2646C53.5629 72.2646 52.3054 71.9583 51.3538 71.3116C50.4021 70.6989 49.7564 69.882 49.3826 68.8608L52.2714 67.6015C52.5433 68.1801 52.9172 68.6567 53.393 68.963C53.9028 69.2693 54.4466 69.4055 55.0923 69.4055C55.7041 69.4055 56.1799 69.3033 56.5877 69.1332C56.9956 68.9289 57.1995 68.6226 57.1995 68.1801C57.1995 67.7716 57.0296 67.4653 56.6557 67.2611C56.2818 67.0568 55.7381 66.8526 55.0243 66.6824L53.5289 66.3761C52.5093 66.1378 51.6596 65.6953 50.9799 65.0486C50.3002 64.4018 49.9603 63.5849 49.9603 62.5978C49.9603 61.883 50.1642 61.2363 50.6061 60.6576C51.0479 60.079 51.6596 59.6365 52.4074 59.3302C53.155 59.0238 54.0048 58.8536 54.9224 58.8536C57.5393 58.8536 59.2727 59.7727 60.1564 61.6107L57.3694 62.8361C56.8596 61.9511 56.0779 61.5086 54.9903 61.5086C54.4126 61.5086 53.9708 61.6108 53.6649 61.8149C53.325 62.0192 53.155 62.2575 53.155 62.5978C53.155 63.1765 53.7328 63.653 54.8544 63.9253L56.7237 64.3678C57.9812 64.6742 58.9328 65.1507 59.5446 65.7974C60.1904 66.4442 60.4962 67.227 60.4962 68.1801C60.4962 68.997 60.2583 69.7118 59.7825 70.3245C59.3066 70.9372 58.661 71.4137 57.8452 71.7541C56.9616 72.0945 56.0779 72.2646 55.0923 72.2646Z" fill="#727181"/>
<path d="M119.565 62.1892V67.1928C119.565 68.248 120.415 69.133 121.502 69.133H121.944V71.9922H120.823C118.512 71.9922 116.643 70.1201 116.643 67.8055V56.0283H119.565V59.2619H121.944V62.1892H119.565Z" fill="#727181"/>
<path d="M17.469 71.9583C15.3618 71.9583 13.6965 70.2564 13.6965 68.1801V53.2714H16.6194V67.5674C16.6194 68.4183 17.2991 69.1331 18.1827 69.1331V71.9924H17.469V71.9583Z" fill="#727181"/>
<path d="M110.729 59.228V60.0109C109.675 59.2961 108.383 58.8536 106.99 58.8536C103.32 58.8536 100.295 61.849 100.295 65.5591C100.295 69.2693 103.286 72.2646 106.99 72.2646C108.383 72.2646 109.675 71.8562 110.729 71.1073V71.9583H113.652V59.228H110.729ZM106.99 69.3033C104.917 69.3033 103.251 67.6015 103.251 65.5591C103.251 63.4828 104.917 61.8149 106.99 61.8149C109.063 61.8149 110.729 63.4828 110.729 65.5591C110.729 67.6355 109.063 69.3033 106.99 69.3033Z" fill="#727181"/>
<path d="M30.0443 59.228V60.0109C28.9907 59.2961 27.6992 58.8536 26.3058 58.8536C22.6012 58.8536 19.6104 61.849 19.6104 65.5591C19.6104 69.2693 22.6012 72.2646 26.3058 72.2646C27.6992 72.2646 28.9907 71.8562 30.0443 71.1073V71.9583H32.9672V59.228H30.0443ZM26.2718 69.3033C24.1986 69.3033 22.5332 67.6015 22.5332 65.5591C22.5332 63.4828 24.1986 61.8149 26.2718 61.8149C28.345 61.8149 30.0103 63.4828 30.0103 65.5591C30.0443 67.6355 28.345 69.3033 26.2718 69.3033Z" fill="#727181"/>
<path d="M130.339 72.2646C132.141 72.2646 133.805 71.5499 134.995 70.3585L132.922 68.2822C132.242 68.9289 131.325 69.3033 130.339 69.3033C128.266 69.3033 126.6 67.6355 126.6 65.5591C126.6 63.4828 128.266 61.8149 130.339 61.8149C131.392 61.8149 132.378 62.2575 133.058 62.9722L135.131 60.8959C133.907 59.6365 132.208 58.8536 130.339 58.8536C126.634 58.8536 123.643 61.849 123.643 65.5591C123.643 69.2693 126.634 72.2646 130.339 72.2646Z" fill="#727181"/>
<path d="M6.69537 72.2646C8.49665 72.2646 10.162 71.5499 11.3516 70.3585L9.27838 68.2822C8.59863 68.9289 7.68099 69.3033 6.69537 69.3033C4.62219 69.3033 2.95682 67.6355 2.95682 65.5591C2.95682 63.4828 4.62219 61.8149 6.69537 61.8149C7.74898 61.8149 8.73461 62.2575 9.41429 62.9722L11.4875 60.8959C10.264 59.6365 8.56464 58.8536 6.69537 58.8536C2.99081 58.8536 0 61.849 0 65.5591C0.0339943 69.2693 3.02481 72.2646 6.69537 72.2646Z" fill="#727181"/>
<path d="M149.338 65.559V71.9582H146.415V65.559C146.415 65.5249 146.415 65.4909 146.415 65.4909C146.381 63.4486 145.531 61.8148 143.492 61.8148C141.453 61.8148 140.569 63.4486 140.569 65.4909V71.9582H137.646V53.2031H140.569V59.6023C141.385 59.1257 142.37 58.8194 143.492 58.8194C147.129 58.8534 149.338 61.8488 149.338 65.559Z" fill="#727181"/>
<path d="M98.2557 64.7422V71.9584H95.3331V64.7422C95.3331 64.6742 95.3331 64.6401 95.3331 64.5721C95.2312 63.0744 94.041 61.883 92.58 61.8149C92.5116 61.8149 92.4781 61.8149 92.4097 61.8149C92.342 61.8149 92.3078 61.8149 92.2401 61.8149C90.7449 61.9171 89.5547 63.1084 89.487 64.5721C89.487 64.6401 89.487 64.6742 89.487 64.7422V71.9584H86.5644V64.7422C86.5644 64.6742 86.5644 64.6401 86.5644 64.5721C86.4624 63.0744 85.273 61.883 83.8113 61.8149C83.7436 61.8149 83.7094 61.8149 83.6417 61.8149C83.5733 61.8149 83.5398 61.8149 83.4714 61.8149C81.9762 61.9171 80.7867 63.1084 80.7183 64.5721C80.7183 64.6401 80.7183 64.6742 80.7183 64.7422V71.9584H77.6937V59.228H80.6164V60.3513C81.3305 59.3983 82.3838 58.8536 83.879 58.8536C85.6129 58.8536 87.0397 59.6025 88.0253 60.7598C89.0794 59.5684 90.643 58.8536 92.342 58.8536C95.4685 58.8536 98.0177 61.3044 98.1873 64.3678C98.2215 64.4699 98.2557 64.6061 98.2557 64.7422Z" fill="#727181"/>
</svg>
