<svg width="133" height="21" viewBox="0 0 133 21" fill="none" xmlns="http://www.w3.org/2000/svg">
<path d="M38 6.03113C38 4.7971 38.5314 4.32817 39.3769 4.32817C40.2225 4.32817 40.7539 4.7971 40.7539 6.03113V15.3604C40.7539 16.5944 40.2225 17.0634 39.3769 17.0634C38.5314 17.0634 38 16.5944 38 15.3604V6.03113ZM35.3427 15.1876C35.3427 17.9519 36.7679 19.5314 39.3769 19.5314C41.9859 19.5314 43.4112 17.9519 43.4112 15.1876V6.2039C43.4112 3.43967 41.9859 1.86011 39.3769 1.86011C36.7679 1.86011 35.3427 3.43967 35.3427 6.2039V15.1876Z" fill="white"/>
<path d="M45.6213 19.334H52.6511V16.8659H48.2786V2.05755H45.6213V19.334Z" fill="white"/>
<path d="M58.2765 12.1766H59.4844V15.3604C59.4844 16.5944 58.9529 17.0387 58.1074 17.0387C57.2619 17.0387 56.7305 16.5944 56.7305 15.3604V6.03113C56.7305 4.7971 57.2619 4.32817 58.1074 4.32817C58.9529 4.32817 59.4844 4.7971 59.4844 6.03113V7.88218H61.9968V6.2039C61.9968 3.43967 60.644 1.86011 58.035 1.86011C55.426 1.86011 54.0732 3.43967 54.0732 6.2039V15.1876C54.0732 17.9519 55.426 19.5314 58.035 19.5314C60.644 19.5314 61.9968 17.9519 61.9968 15.1876V9.70855H58.2765V12.1766Z" fill="white"/>
<path d="M70.0574 2.05755H66.1681L63.4625 19.334H65.9024L66.3614 16.1996H69.6226L70.0816 19.334H72.7631L70.0574 2.05755ZM67.9799 5.11795L69.2602 13.8549H66.6996L67.9799 5.11795Z" fill="white"/>
<path d="M84.7814 19.334H87.5112L83.8151 9.75791L87.5112 2.05755H84.8539L81.3752 9.58514V2.05755H78.7179V19.334H81.3752V14.0277L82.1965 12.4481L84.7814 19.334Z" fill="white"/>
<path d="M91.4785 6.03113C91.4785 4.7971 92.0099 4.32817 92.8554 4.32817C93.701 4.32817 94.2324 4.7971 94.2324 6.03113V15.3604C94.2324 16.5944 93.701 17.0634 92.8554 17.0634C92.0099 17.0634 91.4785 16.5944 91.4785 15.3604V6.03113ZM88.8212 15.1876C88.8212 17.9519 90.2464 19.5314 92.8554 19.5314C95.4645 19.5314 96.8897 17.9519 96.8897 15.1876V6.2039C96.8897 3.43967 95.4645 1.86011 92.8554 1.86011C90.2464 1.86011 88.8212 3.43967 88.8212 6.2039V15.1876Z" fill="white"/>
<path d="M98.9307 2.05755V4.52561H103.738L98.6891 16.9153V19.334H106.468V16.8659H101.419L106.468 4.47625V2.05755H98.9307Z" fill="white"/>
<path d="M108.524 19.334H111.181V2.05755H108.524V19.334Z" fill="white"/>
<path d="M119.284 19.334H122.014V2.05755H119.647V12.3987L116.917 2.05755H113.583V19.334H115.975V6.82091L119.284 19.334Z" fill="white"/>
<path d="M130.294 2.05755H126.405L123.699 19.334H126.139L126.598 16.1996H129.86L130.319 19.334H133L130.294 2.05755ZM128.217 5.11795L129.497 13.8549H126.936L128.217 5.11795Z" fill="white"/>
<rect x="9.30066" width="20.4615" height="20.4615" rx="0.93007" fill="white"/>
<rect width="20.4615" height="20.4615" rx="10.2308" fill="#1A1A1A"/>
<path fill-rule="evenodd" clip-rule="evenodd" d="M10.2308 0C4.58047 0 0 4.58047 0 10.2308C0 15.8811 4.58047 20.4615 10.2308 20.4615V0Z" fill="white"/>
</svg>
