<svg width="48" height="48" viewBox="0 0 48 48" fill="none" xmlns="http://www.w3.org/2000/svg">
<path d="M36.6096 37.6095H36.4194V37.51H36.9314V37.6095H36.7425V38.1059H36.6096V37.6095ZM37.6309 37.6354H37.6279L37.4394 38.106H37.3532L37.166 37.6354H37.1636V38.106H37.0384V37.5101H37.2227L37.3963 37.9321L37.5694 37.5101H37.753V38.106H37.6308V37.6354H37.6309Z" fill="#E76F00"/>
<path d="M19.5835 25.4248C19.5835 25.4248 18.2602 26.1444 20.5253 26.3879C23.2693 26.6806 24.6717 26.6386 27.6956 26.1034C27.6956 26.1034 28.4906 26.5696 29.6009 26.9733C22.8221 29.6899 14.2591 26.8159 19.5835 25.4248Z" fill="#5382A1"/>
<path d="M18.7551 21.8799C18.7551 21.8799 17.2709 22.9072 19.5376 23.1264C22.4689 23.4092 24.7837 23.4323 28.7893 22.7111C28.7893 22.7111 29.3433 23.2363 30.2145 23.5235C22.0185 25.7645 12.8897 23.7002 18.7551 21.8799Z" fill="#5382A1"/>
<path d="M25.7383 15.8661C27.4085 17.6643 25.2994 19.2824 25.2994 19.2824C25.2994 19.2824 29.5406 17.2352 27.5928 14.6716C25.7736 12.2808 24.3786 11.0929 31.9308 6.99731C31.9308 6.99731 20.0763 9.76578 25.7383 15.8661Z" fill="#E76F00"/>
<path d="M34.7037 28.0468C34.7037 28.0468 35.6829 28.8013 33.6252 29.385C29.7124 30.4933 17.3397 30.828 13.9026 29.4291C12.667 28.9265 14.984 28.229 15.7129 28.0827C16.473 27.9286 16.9074 27.9573 16.9074 27.9573C15.5333 27.0522 8.02603 29.7345 13.094 30.5027C26.9152 32.5985 38.2887 29.5589 34.7037 28.0468Z" fill="#5382A1"/>
<path d="M20.22 18.2064C20.22 18.2064 13.9264 19.6042 17.9913 20.1118C19.7076 20.3266 23.129 20.278 26.3159 20.0283C28.9205 19.8229 31.5358 19.3861 31.5358 19.3861C31.5358 19.3861 30.6174 19.7539 29.9529 20.1781C23.5619 21.7498 11.2157 21.0186 14.77 19.411C17.7759 18.0523 20.22 18.2064 20.22 18.2064Z" fill="#5382A1"/>
<path d="M31.5099 24.1072C38.0067 20.9505 35.0028 17.9169 32.9062 18.3256C32.3923 18.4256 32.1631 18.5123 32.1631 18.5123C32.1631 18.5123 32.3539 18.2328 32.7183 18.1119C36.8661 16.7483 40.0561 22.1335 31.3793 24.2663C31.3793 24.2664 31.4799 24.1824 31.5099 24.1072Z" fill="#5382A1"/>
<path d="M27.5928 0.383789C27.5928 0.383789 31.1908 3.74929 24.1802 8.92447C18.5585 13.0759 22.8983 15.4429 24.1779 18.1473C20.8964 15.3788 18.4882 12.9417 20.1038 10.6735C22.4751 7.34396 29.0445 5.72968 27.5928 0.383789Z" fill="#E76F00"/>
<path d="M20.8583 32.6615C27.0944 33.0348 36.6706 32.4544 36.8974 29.6953C36.8974 29.6953 36.4614 30.7413 31.7436 31.5719C26.421 32.5085 19.8563 32.3992 15.9627 31.7989C15.9628 31.7988 16.7598 32.4158 20.8583 32.6615Z" fill="#5382A1"/>
<path d="M19.8361 43.204C19.2479 43.6812 18.6265 43.949 18.069 43.949C17.2731 43.949 16.8431 43.5028 16.8431 42.7871C16.8431 42.0129 17.3038 41.4468 19.1521 41.4468H19.836V43.204H19.8361ZM21.4594 44.9166V39.6155C21.4594 38.2613 20.6334 37.3677 18.6418 37.3677C17.4792 37.3677 16.4607 37.6361 15.633 37.9785L15.8719 38.9169C16.5236 38.6932 17.3673 38.4849 18.1953 38.4849C19.3426 38.4849 19.8361 38.9169 19.8361 39.8098V40.4798H19.2635C16.4761 40.4798 15.2188 41.4916 15.2188 43.0102C15.2188 44.3208 16.0474 45.0657 17.6075 45.0657C18.6104 45.0657 19.359 44.6786 20.0588 44.112L20.1859 44.9167H21.4594V44.9166Z" fill="#E76F00"/>
<path d="M26.877 44.9166H24.8524L22.4158 37.502H24.1838L25.6958 42.0576L26.0318 43.4277C26.7967 41.4468 27.3377 39.4371 27.6082 37.502H29.3281C28.8673 39.9436 28.0381 42.6236 26.877 44.9166Z" fill="#E76F00"/>
<path d="M34.6435 43.204C34.0541 43.6812 33.4317 43.949 32.8741 43.949C32.0796 43.949 31.6485 43.5028 31.6485 42.7871C31.6485 42.0129 32.1103 41.4468 33.9584 41.4468H34.6435V43.204ZM36.2666 44.9166V39.6155C36.2666 38.2613 35.4385 37.3677 33.4493 37.3677C32.2858 37.3677 31.267 37.6361 30.4396 37.9785L30.6781 38.9169C31.3302 38.6932 32.1754 38.4849 33.0028 38.4849C34.1492 38.4849 34.6435 38.9169 34.6435 39.8098V40.4798H34.07C31.2817 40.4798 30.0249 41.4916 30.0249 43.0102C30.0249 44.3208 30.8529 45.0657 32.4127 45.0657C33.4162 45.0657 34.1645 44.6786 34.8655 44.112L34.993 44.9167H36.2666V44.9166Z" fill="#E76F00"/>
<path d="M13.4389 46.176C12.9762 46.8078 12.2288 47.3076 11.4105 47.5904L10.6091 46.7085C11.2319 46.4097 11.766 45.927 12.0142 45.4775C12.2289 45.0777 12.3177 44.5625 12.3177 43.3303V34.8652H14.0423V43.2143C14.0422 44.8616 13.9014 45.5271 13.4389 46.176Z" fill="#E76F00"/>
</svg>
