<svg width="133" height="21" viewBox="0 0 133 21" fill="none" xmlns="http://www.w3.org/2000/svg">
<path d="M38 6.03089C38 4.79686 38.5314 4.32792 39.3769 4.32792C40.2225 4.32792 40.7539 4.79686 40.7539 6.03089V15.3602C40.7539 16.5942 40.2225 17.0631 39.3769 17.0631C38.5314 17.0631 38 16.5942 38 15.3602V6.03089ZM35.3427 15.1874C35.3427 17.9516 36.7679 19.5312 39.3769 19.5312C41.9859 19.5312 43.4112 17.9516 43.4112 15.1874V6.20365C43.4112 3.43942 41.9859 1.85986 39.3769 1.85986C36.7679 1.85986 35.3427 3.43942 35.3427 6.20365V15.1874Z" fill="#1A1A1A"/>
<path d="M45.6213 19.3337H52.6511V16.8657H48.2786V2.05731H45.6213V19.3337Z" fill="#1A1A1A"/>
<path d="M58.2765 12.1764H59.4844V15.3602C59.4844 16.5942 58.9529 17.0384 58.1074 17.0384C57.2619 17.0384 56.7305 16.5942 56.7305 15.3602V6.03089C56.7305 4.79686 57.2619 4.32792 58.1074 4.32792C58.9529 4.32792 59.4844 4.79686 59.4844 6.03089V7.88194H61.9968V6.20365C61.9968 3.43942 60.644 1.85986 58.035 1.85986C55.426 1.85986 54.0732 3.43942 54.0732 6.20365V15.1874C54.0732 17.9516 55.426 19.5312 58.035 19.5312C60.644 19.5312 61.9968 17.9516 61.9968 15.1874V9.7083H58.2765V12.1764Z" fill="#1A1A1A"/>
<path d="M70.0574 2.05731H66.1681L63.4625 19.3337H65.9024L66.3614 16.1993H69.6226L70.0816 19.3337H72.7631L70.0574 2.05731ZM67.9799 5.11771L69.2602 13.8546H66.6996L67.9799 5.11771Z" fill="#1A1A1A"/>
<path d="M84.7814 19.3337H87.5112L83.8151 9.75766L87.5112 2.05731H84.8539L81.3752 9.5849V2.05731H78.7179V19.3337H81.3752V14.0274L82.1965 12.4479L84.7814 19.3337Z" fill="#1A1A1A"/>
<path d="M91.4785 6.03089C91.4785 4.79686 92.0099 4.32792 92.8554 4.32792C93.701 4.32792 94.2324 4.79686 94.2324 6.03089V15.3602C94.2324 16.5942 93.701 17.0631 92.8554 17.0631C92.0099 17.0631 91.4785 16.5942 91.4785 15.3602V6.03089ZM88.8212 15.1874C88.8212 17.9516 90.2464 19.5312 92.8554 19.5312C95.4645 19.5312 96.8897 17.9516 96.8897 15.1874V6.20365C96.8897 3.43942 95.4645 1.85986 92.8554 1.85986C90.2464 1.85986 88.8212 3.43942 88.8212 6.20365V15.1874Z" fill="#1A1A1A"/>
<path d="M98.9307 2.05731V4.52537H103.738L98.6891 16.915V19.3337H106.468V16.8657H101.419L106.468 4.47601V2.05731H98.9307Z" fill="#1A1A1A"/>
<path d="M108.524 19.3337H111.181V2.05731H108.524V19.3337Z" fill="#1A1A1A"/>
<path d="M119.284 19.3337H122.014V2.05731H119.647V12.3985L116.917 2.05731H113.583V19.3337H115.975V6.82067L119.284 19.3337Z" fill="#1A1A1A"/>
<path d="M130.294 2.05731H126.405L123.699 19.3337H126.139L126.598 16.1993H129.86L130.319 19.3337H133L130.294 2.05731ZM128.217 5.11771L129.497 13.8546H126.936L128.217 5.11771Z" fill="#1A1A1A"/>
<rect x="9.30066" width="20.4615" height="20.4615" rx="0.93007" fill="#1A1A1A"/>
<rect width="20.4615" height="20.4615" rx="10.2308" fill="white"/>
<path fill-rule="evenodd" clip-rule="evenodd" d="M10.2308 0C4.58047 0 0 4.58047 0 10.2308C0 15.8811 4.58047 20.4615 10.2308 20.4615V0Z" fill="#1A1A1A"/>
</svg>
