<svg width="150" height="126" viewBox="0 0 150 126" fill="none" xmlns="http://www.w3.org/2000/svg">
<path d="M30.0414 52.3006C27.7024 52.3608 25.1236 52.6017 24.4039 52.7824C25.1236 52.6017 27.7024 52.3608 30.0414 52.3006ZM31.4808 55.6734H30.1613C30.0414 56.2154 29.9814 56.7575 29.9214 57.2995L28.9619 63.1416H30.5812C32.6802 63.1416 34.2396 61.395 34.2396 58.745C34.2396 56.8779 33.16 55.6734 31.4808 55.6734ZM49.3529 61.9973C48.3933 61.9973 47.7336 63.8644 47.3738 65.37H47.9136C49.113 65.37 50.0726 64.5871 50.1926 63.6234V63.2621C50.1926 62.9609 50.1326 62.6598 49.9527 62.4189C49.8927 62.178 49.6528 61.9973 49.3529 61.9973ZM80.7192 62.2382C80.6592 62.2382 80.6592 62.178 80.5992 62.178C80.5393 62.1177 80.4193 62.1177 80.3593 62.1177C80.1794 62.1177 79.9995 62.178 79.8795 62.2984C79.8196 62.3587 79.7596 62.3587 79.6996 62.4189C79.6396 62.4791 79.6396 62.5393 79.5797 62.5393C79.2798 62.9609 79.0399 63.3825 78.92 63.8644C78.86 63.9246 78.86 64.045 78.8 64.1655C78.6801 64.4666 78.6201 64.828 78.5001 65.1291C78.4402 65.37 78.3802 65.6712 78.3202 65.9121C78.2003 66.7553 78.0803 67.6587 78.0803 68.5621C78.0803 68.9837 78.0803 69.4655 78.1403 69.8871C78.1403 70.0076 78.1403 70.0678 78.2003 70.1883L78.3802 70.911L78.5601 71.2724C78.74 71.6337 78.92 71.8144 79.1599 71.8144C79.2798 71.8144 79.3398 71.8144 79.4597 71.7542C79.5797 71.694 79.6996 71.6337 79.8196 71.5133C80.1794 71.0917 80.5393 70.369 80.8391 69.4053L81.019 68.6826L81.199 67.7792C81.2589 67.3576 81.3189 66.936 81.3189 66.5144C81.3789 66.0928 81.3789 65.7314 81.3789 65.3098C81.4389 64.4666 81.3189 63.5632 81.019 62.72C81.019 62.5996 80.8991 62.3587 80.7192 62.2382ZM126.659 67.5382L126.959 65.4905C128.278 65.37 129.298 65.1291 130.078 64.5871C131.037 63.9848 132.237 62.8405 132.237 60.612C132.237 59.4075 131.937 58.2632 131.397 57.2393C130.797 56.1552 129.658 55.4927 128.458 55.4927H128.278C128.218 53.6858 126.719 52.3006 124.92 52.2404C123.241 52.2404 121.561 52.3608 119.942 52.6017C118.503 52.8427 117.363 54.1677 117.123 55.6131C117.123 55.6734 113.285 55.6131 110.766 55.6131C108.787 55.6131 107.767 56.5768 107.767 56.5768C107.767 56.5768 106.808 55.312 104.229 55.6131C102.969 55.6734 101.77 55.854 100.51 56.095C100.75 54.529 100.93 52.9631 100.99 51.3972V51.2767C100.99 49.4097 99.4909 47.904 97.6318 47.8438C95.1728 47.8438 92.3541 48.2051 90.9147 48.5063C89.3554 48.9279 88.2759 50.3733 88.3358 51.9995C88.3958 53.4449 87.7361 57.7813 87.7361 57.7813C86.1768 56.4563 84.0777 55.7336 81.6788 55.7336C79.5197 55.7336 77.3606 56.2154 75.4415 57.2393C74.7818 56.5166 73.8222 56.0347 72.8626 56.095C70.9435 56.095 69.5041 56.095 68.1247 56.2154C67.0452 56.2756 66.0856 56.8779 65.4859 57.8416C65.4259 57.7813 65.4259 57.7211 65.3659 57.6609C64.7662 56.5768 63.6267 55.9143 62.4272 55.9143C59.9083 55.9143 55.5302 56.637 55.3503 56.7575C53.851 56.095 52.2317 55.7336 50.5524 55.7938C48.0935 55.7336 45.6945 56.3961 43.6554 57.6609C43.2956 52.5415 38.9175 49.0483 32.6802 49.0483C32.6802 49.0483 25.0636 49.3494 23.6842 49.6506C22.0649 50.012 20.9254 51.5176 21.0453 53.1438C21.0453 54.2881 20.9854 55.4927 20.7455 56.7575L18.5264 71.0917C18.3465 71.9349 17.9267 74.5247 19.546 76.452C20.2057 77.2349 21.4052 78.1383 23.5043 78.1383C24.4638 78.1383 27.0427 78.0179 29.1418 77.0542C29.6816 76.8133 30.1613 76.3917 30.5212 75.9099C31.6607 77.2349 33.3399 78.1986 35.7989 78.1986C37.9579 78.1986 40.057 77.6565 41.9762 76.6929C43.7154 77.7167 45.6945 78.2588 47.7336 78.1986C51.392 78.1986 54.8105 76.7531 56.9696 74.2838C58.1691 77.3554 60.3881 78.0781 62.1873 78.0781C63.6866 78.0781 65.4859 77.8974 67.2851 76.994C68.7844 76.2713 69.4441 73.8019 69.744 73.2599C71.2433 76.2713 74.242 78.1383 78.0204 78.1383C81.019 78.1383 83.9578 77.1747 86.3567 75.2474C86.5366 75.5485 86.7165 75.7895 86.8965 76.0304C87.6761 76.9338 89.1755 78.0179 91.7543 78.0179C93.6135 78.0781 95.4727 77.5361 96.9721 76.5122C97.8117 77.3554 99.1911 78.1383 101.29 78.1383C102.849 78.1383 104.409 77.7167 105.788 76.994C106.808 77.7167 108.127 78.0781 109.686 78.0781C112.145 78.0781 114.364 77.2349 115.804 75.7292C117.003 76.9338 119.102 78.1383 122.701 78.1383C125.999 78.1383 129.298 76.0304 130.977 73.1997C132.297 71.0917 130.857 67.3576 126.659 67.5382ZM40.2369 58.6848C40.057 61.3348 38.3777 63.503 35.7989 64.8882L38.1378 71.0917C38.7976 72.7781 39.2174 73.4406 39.9371 73.9826C39.7571 74.1031 39.5772 74.1633 39.3973 74.2235C38.2578 74.5849 36.9983 74.8258 35.7989 74.7656C34.5994 74.7656 32.9801 74.4644 31.9606 71.5133L30.2213 66.4541H28.4821L27.7024 71.2724C27.5825 71.8144 27.5225 72.3565 27.5225 72.8985V73.019C27.5225 73.3201 27.5825 73.6213 27.7024 73.9224C26.383 74.5247 24.5838 74.7054 23.5043 74.7054C22.6047 74.7054 21.765 74.4042 21.705 72.8383C21.705 72.4167 21.765 71.9951 21.825 71.5735L24.044 57.2393C24.2239 56.1552 24.3439 55.0109 24.3439 53.9268V52.7824C25.0636 52.6017 27.6424 52.3006 29.9814 52.3006H32.5603C34.1196 52.2404 35.6189 52.6017 37.0583 53.204C37.4182 53.3847 37.838 53.6256 38.1378 53.8665C38.4377 54.1074 38.7376 54.4086 39.0375 54.7097C39.3973 55.1915 39.6972 55.6734 39.9371 56.2756C40.117 56.8779 40.2369 57.4802 40.2369 58.1427V58.6848ZM48.8132 68.3212C48.5733 68.3212 48.3334 68.3814 48.1535 68.3814H47.1939V68.7428C47.3138 70.4292 48.0335 71.8746 49.5928 71.8746H49.9527C51.452 71.694 52.3516 70.6099 53.1313 70.6099C53.4911 70.6701 53.851 70.7905 54.1508 70.9712L54.9305 71.4531C54.3907 72.236 53.731 72.8985 52.8914 73.3803C51.3321 74.4042 49.5328 74.886 47.6737 74.886C43.7154 74.886 41.3165 72.6576 41.1365 69.1042V68.5019C41.1365 63.9848 44.0752 59.0461 50.6124 59.0461C51.572 59.0461 52.5315 59.1666 53.3712 59.4677C54.9305 60.0098 55.8301 61.1541 55.8301 62.6598C55.8901 64.4666 54.7506 67.7792 48.8132 68.3212ZM66.9852 71.2121C66.4454 72.1156 65.9656 73.0792 65.6058 74.1031C64.5263 74.6451 63.3268 74.7656 62.1273 74.7656C61.1078 74.7656 60.1482 74.2838 59.6684 71.6337L58.1691 64.1053C57.8692 62.5996 57.3894 61.0939 56.7897 59.6484C57.3294 59.5279 57.8692 59.4075 58.409 59.3473C58.5289 59.3473 58.6489 59.287 58.7688 59.287H58.8288C58.9487 59.287 59.0687 59.287 59.2486 59.2268H59.3086C59.6084 59.2268 59.9083 59.1666 60.2681 59.1666H62.4872C62.7271 59.6484 62.967 60.1302 63.1469 60.612C63.2069 60.7927 63.2668 60.9132 63.3268 61.0939C63.4467 61.4552 63.5067 61.8166 63.5667 62.178L64.5862 69.0439C65.4259 67.4178 66.2055 65.7314 66.9252 64.045C67.405 62.9007 67.8248 61.7564 68.1247 60.5518C68.2446 60.1302 68.3046 59.7689 68.4246 59.3473C68.7844 59.287 69.1443 59.287 69.5041 59.287H72.8626C72.7427 60.3109 72.5028 61.2746 72.083 62.2382C70.6436 65.3098 68.8444 68.261 66.9852 71.2121ZM85.637 71.2724C85.0973 71.9951 84.4375 72.5974 83.7179 73.0792C83.5979 73.1997 83.418 73.2599 83.298 73.3803C83.298 73.3803 83.2381 73.3803 83.2381 73.4406C83.1181 73.5008 82.9982 73.6213 82.8782 73.6815C82.8782 73.6815 82.8183 73.6815 82.8183 73.7417C82.6983 73.8019 82.5784 73.8622 82.3984 73.9224C82.3984 73.9224 82.3385 73.9224 82.3385 73.9826C82.1585 74.0428 82.0386 74.1031 81.8587 74.1633C81.5588 74.2838 81.199 74.4042 80.8391 74.5247C80.7791 74.5247 80.7791 74.5247 80.7192 74.5849C80.5992 74.6451 80.4793 74.6451 80.3593 74.7054C80.2994 74.7054 80.2394 74.7054 80.1794 74.7656C80.0595 74.7656 79.9395 74.8258 79.8196 74.8258C79.7596 74.8258 79.6996 74.8258 79.6396 74.886C79.5197 74.886 79.3998 74.9463 79.2798 74.9463H77.1208C77.0008 74.9463 76.8209 74.886 76.7009 74.886C76.641 74.886 76.521 74.8258 76.461 74.8258C76.3411 74.8258 76.2211 74.7656 76.1012 74.7656C76.0412 74.7656 75.9213 74.7054 75.8613 74.7054C75.7414 74.6451 75.6214 74.6451 75.5614 74.5849C75.5015 74.5247 75.3815 74.5247 75.3215 74.4644C75.2016 74.4042 75.1416 74.4042 75.0217 74.344C74.9617 74.2838 74.8418 74.2838 74.7818 74.2235C74.7218 74.1633 74.6019 74.1031 74.5419 74.0429C74.4819 73.9826 74.4219 73.9224 74.302 73.9224C74.242 73.8622 74.1221 73.8019 74.0621 73.7417L73.8822 73.561L73.7023 73.3803L73.5223 73.1997L73.3424 73.019C73.2824 72.9587 73.2225 72.8985 73.1625 72.7781C73.1025 72.7178 73.0425 72.6576 72.9826 72.5372C72.9226 72.4769 72.8626 72.3565 72.8626 72.2962C72.8026 72.236 72.8026 72.1156 72.7427 72.0553C72.6827 71.9951 72.6827 71.8746 72.6227 71.8144C72.5628 71.7542 72.5628 71.6337 72.5028 71.5735C72.4428 71.4531 72.4428 71.3928 72.3828 71.2724C72.3828 71.2121 72.3229 71.0917 72.3229 71.0315C72.3229 70.911 72.2629 70.8508 72.2629 70.7303C72.2629 70.6701 72.2029 70.5496 72.2029 70.4894C72.1429 70.1883 72.083 69.8871 72.083 69.586V68.8633C72.083 65.4905 73.6423 62.6598 76.0412 60.9734C76.461 60.6723 76.8209 60.4314 77.3007 60.2507C77.7205 60.07 78.2003 59.8893 78.6201 59.7086H78.6801C78.92 59.6484 79.0999 59.5882 79.3398 59.5279H79.3998C79.6396 59.4677 79.8196 59.4677 80.0595 59.4075H80.1194C80.3593 59.3473 80.5992 59.3473 80.7791 59.3473H82.4584C82.6383 59.3473 82.7583 59.4075 82.9382 59.4075H83.0582C83.2381 59.4677 83.418 59.4677 83.5979 59.5279C83.6579 59.5279 83.7179 59.5882 83.7778 59.5882C83.8978 59.6484 84.0177 59.6484 84.1377 59.7086C84.1976 59.7086 84.2576 59.7689 84.3176 59.7689C84.4375 59.8291 84.6175 59.8893 84.7374 59.9495C84.7974 59.9495 84.8574 60.0098 84.9173 60.07C84.9773 60.1302 85.0973 60.1905 85.1572 60.2507C85.2172 60.3109 85.2772 60.3109 85.3372 60.3711C85.3971 60.4314 85.4571 60.4916 85.577 60.5518C85.697 60.612 85.757 60.7325 85.8769 60.7927L86.0568 60.9734L86.2368 61.1541L86.3567 61.2746C86.4767 61.4552 86.6566 61.6359 86.7765 61.8166C86.8365 61.9371 86.8965 61.9973 86.9564 62.1177C86.9564 62.178 87.0164 62.178 87.0164 62.2382C87.4962 63.2621 87.7961 64.3462 87.7361 65.4905C87.6761 67.4178 86.9564 69.5258 85.637 71.2724ZM97.4518 53.6256L97.092 56.1552L96.4323 60.4916L94.753 71.2121C94.753 71.3326 94.693 71.4531 94.693 71.5735V71.9951C94.693 72.0553 94.753 72.1156 94.753 72.1758V72.236C94.753 72.2962 94.813 72.3565 94.873 72.4167L94.9329 72.4769L95.0529 72.5974L95.1129 72.6576C95.3528 72.8383 95.6526 72.8985 95.9525 72.8985C95.7126 73.2599 95.4127 73.561 95.0529 73.7417C94.9929 73.7417 94.9929 73.8019 94.9329 73.8019C94.873 73.8622 94.753 73.9224 94.693 73.9826C94.6331 74.0428 94.5731 74.0429 94.5131 74.0429C94.4532 74.1031 94.3332 74.1031 94.2732 74.1633C94.1533 74.2235 93.9734 74.2838 93.7934 74.344C93.7335 74.344 93.6735 74.4042 93.5536 74.4042C93.4336 74.4644 93.3137 74.4644 93.1937 74.4644C93.1337 74.4644 93.0738 74.4644 92.9538 74.5247C92.8339 74.5247 92.7139 74.5849 92.534 74.5849H90.7348C90.6748 74.5849 90.6148 74.5849 90.6148 74.5247C90.5549 74.5247 90.5549 74.5247 90.4949 74.4644C90.4349 74.4644 90.3749 74.4042 90.3749 74.4042C90.3749 74.4042 90.315 74.4042 90.315 74.344C90.255 74.344 90.195 74.2838 90.135 74.2838H90.0751C89.8352 74.1633 89.5953 73.9826 89.4154 73.7417V73.6815C89.3554 73.6213 89.3554 73.561 89.2954 73.5008C89.2954 73.5008 89.2954 73.4406 89.2354 73.4406C89.1755 73.3803 89.1755 73.3201 89.1755 73.2599V73.1997C89.1755 73.1394 89.1155 73.0792 89.1155 72.9587V72.8985C89.1155 72.8383 89.0555 72.7178 89.0555 72.6576V72.2962C89.0555 71.9951 89.0555 71.7542 89.1155 71.4531L91.5744 56.095C91.6344 55.9143 91.6344 55.7336 91.6344 55.4927C91.7543 54.7699 91.8143 54.1074 91.8743 53.3847V51.6381C91.9942 51.6381 92.0542 51.5779 92.1741 51.5779C92.2941 51.5779 92.414 51.5176 92.534 51.5176C92.7139 51.4574 92.9538 51.4574 93.1937 51.3972C93.3137 51.3972 93.4336 51.3972 93.5536 51.337C93.9134 51.2767 94.2732 51.2767 94.693 51.2165C94.9929 51.2165 95.2328 51.1563 95.5327 51.1563C96.2524 51.0961 97.032 51.0961 97.7517 51.0961C97.7517 51.5779 97.6917 52.1802 97.6917 52.7824C97.5118 53.204 97.4518 53.4449 97.4518 53.6256ZM113.825 72.9587C113.105 74.0429 111.546 74.7656 109.686 74.7656H109.087C108.907 74.7656 108.727 74.7054 108.547 74.6451L108.007 74.4644C107.168 74.1031 106.688 73.2599 106.928 71.6337L106.988 71.3326C106.928 71.5133 106.808 71.6337 106.688 71.8144C106.508 72.1156 106.268 72.4167 106.088 72.6576C105.848 72.8985 105.608 73.1394 105.368 73.3201C105.248 73.4406 105.128 73.5008 105.009 73.6213C104.769 73.8019 104.469 73.9826 104.229 74.1031C103.749 74.344 103.209 74.5849 102.67 74.7054C102.43 74.7656 102.19 74.8258 101.95 74.8258C101.71 74.8258 101.53 74.886 101.29 74.886H100.75C100.69 74.886 100.57 74.886 100.51 74.8258C100.451 74.8258 100.391 74.8258 100.331 74.7656C100.271 74.7656 100.211 74.7054 100.151 74.7054C100.091 74.7054 100.031 74.6451 99.9707 74.6451C99.9707 74.6451 99.9108 74.6451 99.9108 74.5849C98.5314 73.9826 98.1115 72.3565 98.4714 70.1883L99.431 64.045C99.431 63.8643 99.4909 63.6837 99.4909 63.5632V63.3825C99.4909 63.2621 99.4909 63.2018 99.5509 63.0814V62.5996C99.6109 62.2382 99.6109 61.9371 99.6109 61.5757V60.612C99.6109 60.2507 99.6109 59.9495 99.5509 59.5279C99.6109 59.5279 99.6709 59.4677 99.7908 59.4677C99.8508 59.4677 99.9108 59.4677 100.031 59.4075H105.488C105.548 60.7325 105.248 62.5393 105.009 64.2257L104.169 69.4053C104.169 69.5258 104.049 70.4292 104.049 70.6701C104.049 70.911 104.049 71.2121 104.109 71.4531C104.109 71.5735 104.169 71.694 104.229 71.8746C104.289 71.9349 104.349 72.0553 104.409 72.0553H104.469C104.649 72.0553 104.949 71.8746 105.308 71.5133C105.848 70.9712 106.268 70.3087 106.628 69.6462C106.748 69.3451 106.928 69.1042 107.048 68.7428C107.168 68.4417 107.288 68.0803 107.407 67.7792C107.467 67.5985 107.527 67.4178 107.527 67.2371L107.947 64.2859C108.007 63.8643 108.067 63.503 108.127 63.1416C108.187 62.5996 108.247 62.0575 108.307 61.4552C108.367 60.9132 108.427 60.3109 108.427 59.6484C109.147 59.5882 111.965 59.2268 114.125 59.287C114.065 60.9132 113.885 62.5393 113.585 64.1655L112.445 71.3928C112.445 72.4167 112.925 72.9587 113.825 72.9587ZM117.183 71.0315C117.183 70.6701 117.183 70.3087 117.243 70.0076L118.443 62.4791C118.203 62.4791 118.083 62.5393 117.963 62.5393C117.663 62.5996 117.543 62.5996 117.423 62.6598C117.243 62.72 117.003 62.72 116.823 62.7802C116.643 61.6961 116.643 60.612 116.823 59.5279C117.063 59.5279 117.303 59.5279 117.663 59.4677H119.102C119.522 58.3234 120.182 57.3597 120.422 56.0347C120.782 55.9745 121.261 55.9143 121.741 55.854C121.981 55.854 122.101 55.7938 122.281 55.7938C122.461 55.7938 122.641 55.7938 122.881 55.7336C123.48 55.6734 124.14 55.6734 124.92 55.6734C124.86 56.6972 124.74 57.962 124.56 59.4677H125.639C127.319 59.4677 127.978 59.287 128.518 58.8654C128.818 59.4075 128.998 60.0098 128.998 60.612C128.998 61.4552 128.758 61.9973 126.119 62.0575H124.14L122.941 69.586V70.0678C122.941 71.0917 123.42 71.9349 124.2 71.9349C125.46 71.9349 125.759 70.9712 126.239 70.9712C127.379 71.1519 128.038 71.8144 128.038 71.8144C127.199 73.4406 125.04 74.9463 122.761 74.9463C119.282 74.886 117.303 73.3201 117.183 71.0315Z" fill="#727181"/>
</svg>
