<svg width="48" height="48" viewBox="0 0 48 48" fill="none" xmlns="http://www.w3.org/2000/svg">
<path d="M24 19.722C23.4382 19.722 22.8819 19.8327 22.3629 20.0477C21.8438 20.2627 21.3722 20.5778 20.975 20.975C20.5777 21.3723 20.2626 21.8439 20.0476 22.3629C19.8327 22.8819 19.722 23.4382 19.722 24C19.722 24.5618 19.8327 25.1181 20.0476 25.6371C20.2626 26.1562 20.5777 26.6278 20.975 27.025C21.3722 27.4223 21.8438 27.7374 22.3629 27.9524C22.8819 28.1674 23.4382 28.278 24 28.278C24.5618 28.278 25.1181 28.1674 25.6371 27.9524C26.1562 27.7374 26.6278 27.4223 27.025 27.025C27.4223 26.6278 27.7374 26.1562 27.9524 25.6371C28.1673 25.1181 28.278 24.5618 28.278 24C28.278 23.4382 28.1673 22.8819 27.9524 22.3629C27.7374 21.8439 27.4223 21.3723 27.025 20.975C26.6278 20.5778 26.1562 20.2627 25.6371 20.0477C25.1181 19.8327 24.5618 19.722 24 19.722ZM12.016 32.51L11.072 32.27C4.036 30.492 0 27.474 0 23.992C0 20.51 4.036 17.492 11.072 15.714L12.016 15.476L12.282 16.412C12.9948 18.8675 13.9064 21.2607 15.008 23.568L15.21 23.994L15.008 24.42C13.9046 26.7266 12.9929 29.12 12.282 31.576L12.016 32.51ZM10.634 17.9C5.286 19.402 2.004 21.7 2.004 23.992C2.004 26.282 5.286 28.58 10.634 30.084C11.288 28.0039 12.0777 25.9689 12.998 23.992C12.0767 22.0156 11.287 19.9805 10.634 17.9ZM35.984 32.51L35.718 31.572C35.006 29.1167 34.0936 26.724 32.99 24.418L32.788 23.992L32.99 23.566C34.0931 21.2592 35.0055 18.8658 35.718 16.41L35.984 15.474L36.93 15.712C43.964 17.49 48 20.508 48 23.992C48 27.476 43.964 30.492 36.93 32.27L35.984 32.51ZM35.002 23.992C35.962 26.07 36.756 28.112 37.366 30.084C42.716 28.58 45.996 26.282 45.996 23.992C45.996 21.7 42.714 19.404 37.366 17.9C36.7128 19.9805 35.9231 22.0156 35.002 23.992ZM10.62 17.89L10.354 16.956C8.376 9.98403 8.976 4.98803 12 3.24403C14.966 1.53203 19.728 3.55403 24.718 8.67603L25.398 9.37403L24.718 10.072C22.9449 11.9152 21.3249 13.8998 19.874 16.006L19.604 16.392L19.134 16.432C16.5818 16.6332 14.0502 17.0412 11.564 17.652L10.62 17.89ZM14.412 4.63003C13.876 4.63003 13.402 4.74603 13.002 4.97603C11.014 6.12203 10.662 10.106 12.032 15.482C14.1633 15.0079 16.3232 14.6732 18.498 14.48C19.7528 12.6958 21.1238 10.9961 22.602 9.39203C19.482 6.35403 16.528 4.63003 14.412 4.63003ZM33.59 45.354C33.588 45.354 33.588 45.354 33.59 45.354C30.74 45.354 27.08 43.208 23.282 39.308L22.602 38.61L23.282 37.912C25.0546 36.0682 26.674 34.083 28.124 31.976L28.394 31.59L28.862 31.55C31.4155 31.3499 33.9485 30.9426 36.436 30.332L37.38 30.094L37.648 31.03C39.622 37.998 39.024 42.996 36 44.738C35.2655 45.1533 34.4337 45.3659 33.59 45.354ZM25.398 38.592C28.518 41.63 31.472 43.354 33.588 43.354H33.59C34.124 43.354 34.6 43.238 34.998 43.008C36.986 41.862 37.34 37.876 35.968 32.5C33.8362 32.9748 31.6756 33.3095 29.5 33.502C28.2467 35.2875 26.8763 36.9879 25.398 38.592ZM37.38 17.89L36.436 17.652C33.9488 17.0395 31.4157 16.6314 28.862 16.432L28.394 16.392L28.124 16.006C26.6747 13.8991 25.0553 11.9145 23.282 10.072L22.602 9.37403L23.282 8.67603C28.27 3.55603 33.03 1.53403 36 3.24403C39.024 4.98803 39.624 9.98403 37.648 16.954L37.38 17.89ZM29.5 14.48C31.784 14.688 33.954 15.026 35.968 15.482C37.34 10.106 36.986 6.12203 34.998 4.97603C33.022 3.83403 29.308 5.58403 25.398 9.39203C26.8755 10.9962 28.2458 12.6959 29.5 14.48ZM14.412 45.354C13.5676 45.3663 12.7351 45.1537 12 44.738C8.976 42.996 8.376 38 10.354 31.03L10.618 30.094L11.562 30.332C13.872 30.914 16.42 31.324 19.132 31.55L19.602 31.59L19.87 31.976C21.3211 34.0827 22.9411 36.0679 24.714 37.912L25.394 38.61L24.714 39.308C20.918 43.208 17.258 45.354 14.412 45.354ZM12.032 32.5C10.66 37.876 11.014 41.862 13.002 43.008C14.976 44.134 18.688 42.398 22.602 38.592C21.1244 36.9867 19.7535 35.2864 18.498 33.502C16.3231 33.3097 14.1631 32.975 12.032 32.5ZM24 33.756C22.354 33.756 20.662 33.684 18.968 33.544L18.498 33.504L18.228 33.118C17.2698 31.7412 16.369 30.3254 15.528 28.874C14.6894 27.4215 13.9114 25.9349 13.196 24.418L12.996 23.992L13.196 23.566C13.9113 22.0491 14.6893 20.5625 15.528 19.11C16.356 17.678 17.266 16.25 18.228 14.866L18.498 14.48L18.968 14.44C22.3173 14.156 25.6847 14.156 29.034 14.44L29.502 14.48L29.77 14.866C31.6883 17.6202 33.3722 20.5304 34.804 23.566L35.006 23.992L34.804 24.418C33.3757 27.4555 31.6916 30.366 29.77 33.118L29.502 33.504L29.034 33.544C27.34 33.684 25.646 33.756 24 33.756ZM19.606 31.588C22.566 31.81 25.434 31.81 28.396 31.588C30.0497 29.1705 31.5179 26.6313 32.788 23.992C31.5201 21.3512 30.0511 18.8117 28.394 16.396C25.4689 16.174 22.5311 16.174 19.606 16.396C17.9482 18.8113 16.4791 21.3508 15.212 23.992C16.4835 26.631 17.9524 29.1702 19.606 31.588Z" fill="#61DAFB"/>
</svg>
