<svg width="150" height="126" viewBox="0 0 150 126" fill="none" xmlns="http://www.w3.org/2000/svg">
<path fill-rule="evenodd" clip-rule="evenodd" d="M81.8097 22.0126C81.7609 22.0616 81.7209 22.1984 81.7209 22.3167C81.7209 22.4757 81.5749 22.5537 81.1606 22.6161C80.7181 22.6828 80.6003 22.7514 80.6003 22.9428C80.6003 23.1504 80.5108 23.1852 79.9778 23.1852C79.4013 23.1852 79.3553 23.2077 79.3553 23.4896C79.3553 23.7285 79.2818 23.8022 79.0129 23.8334C78.7677 23.8616 78.6592 23.9528 78.6306 24.1542C78.5963 24.3976 78.5166 24.4355 78.0392 24.4355C77.5339 24.4355 77.4877 24.4618 77.4877 24.7481C77.4877 25.0398 77.4462 25.0606 76.8651 25.0606C76.2841 25.0606 76.2426 25.0815 76.2426 25.3732C76.2426 25.6649 76.2011 25.6858 75.6201 25.6858C75.039 25.6858 74.9975 25.7067 74.9975 25.9983C74.9975 26.2484 74.9353 26.3109 74.6863 26.3109C74.4373 26.3109 74.375 26.3734 74.375 26.6235C74.375 26.9152 74.3335 26.9361 73.7525 26.9361C73.1714 26.9361 73.1299 26.9569 73.1299 27.2486C73.1299 27.5403 73.0885 27.5612 72.5074 27.5612C71.9263 27.5612 71.8849 27.5821 71.8849 27.8738C71.8849 28.1608 71.8392 28.1863 71.3246 28.1863C70.81 28.1863 70.7643 28.2118 70.7643 28.4989C70.7643 28.7628 70.7062 28.8115 70.3908 28.8115C70.1024 28.8115 70.0173 28.8675 70.0173 29.0573C70.0173 29.2577 69.9026 29.3182 69.3947 29.3858C68.8459 29.459 68.7722 29.504 68.7722 29.7653C68.7722 30.0326 68.718 30.0617 68.2206 30.0617C67.7433 30.0617 67.6636 30.0996 67.6292 30.343C67.5942 30.59 67.5056 30.6292 66.9046 30.6641C65.8157 30.7275 65.1615 30.5923 65.1615 30.3042C65.1615 30.1181 65.0746 30.0617 64.788 30.0617C64.4726 30.0617 64.4144 30.0131 64.4144 29.7492C64.4144 29.4621 64.3688 29.4366 63.8542 29.4366C63.3396 29.4366 63.2939 29.4111 63.2939 29.124C63.2939 28.8323 63.2524 28.8115 62.6714 28.8115C62.0903 28.8115 62.0488 28.7906 62.0488 28.4989C62.0488 28.235 61.9907 28.1863 61.6753 28.1863C61.3599 28.1863 61.3018 28.1377 61.3018 27.8738C61.3018 27.5867 61.2561 27.5612 60.7415 27.5612C60.2269 27.5612 60.1812 27.5357 60.1812 27.2486C60.1812 26.9569 60.1398 26.9361 59.5587 26.9361H58.9361V27.5612C58.9361 28.1447 58.9154 28.1863 58.6249 28.1863C58.3759 28.1863 58.3136 28.2488 58.3136 28.4989C58.3136 28.7852 58.3598 28.8115 58.8652 28.8115C59.3425 28.8115 59.4222 28.8493 59.4566 29.0928C59.4851 29.2942 59.5937 29.3853 59.8388 29.4136C60.074 29.4408 60.1812 29.5252 60.1812 29.6833C60.1812 29.8644 60.3133 29.9315 60.8037 29.9992C61.2985 30.0676 61.4263 30.1332 61.4263 30.3192C61.4263 30.5056 61.5529 30.5701 62.0488 30.6361C62.5976 30.7092 62.6714 30.7543 62.6714 31.0156C62.6714 31.2829 62.7255 31.312 63.2229 31.312C63.7003 31.312 63.78 31.3499 63.8143 31.5933C63.8428 31.7947 63.9514 31.8859 64.1966 31.9141C64.4318 31.9414 64.539 32.0258 64.539 32.1838C64.539 32.365 64.6711 32.432 65.1615 32.4998C65.6426 32.5661 65.784 32.6362 65.784 32.8077C65.784 33.069 66.4132 33.2112 67.0846 33.1018C67.3997 33.0504 67.5239 32.9611 67.5515 32.7658C67.5779 32.5805 67.6933 32.4878 67.9318 32.4602C68.1737 32.4322 68.2742 32.3497 68.2742 32.1789C68.2742 31.9758 68.3636 31.9371 68.8344 31.9371C69.3433 31.9371 69.3947 31.9095 69.3947 31.6363C69.3947 31.3701 69.4664 31.3255 70.0173 31.2495C70.5038 31.1823 70.6398 31.114 70.6398 30.9369C70.6398 30.7599 70.7758 30.6915 71.2623 30.6244C71.7617 30.5553 71.8849 30.4912 71.8849 30.3C71.8849 30.1292 71.973 30.0617 72.1961 30.0617C72.4451 30.0617 72.5074 29.9992 72.5074 29.7492C72.5074 29.4575 72.5489 29.4366 73.1299 29.4366C73.711 29.4366 73.7525 29.4157 73.7525 29.124C73.7525 28.8323 73.7939 28.8115 74.375 28.8115C74.9561 28.8115 74.9975 28.7906 74.9975 28.4989C74.9975 28.2488 75.0598 28.1863 75.3088 28.1863C75.5578 28.1863 75.6201 28.1238 75.6201 27.8738C75.6201 27.5821 75.6615 27.5612 76.2426 27.5612C76.8237 27.5612 76.8651 27.5403 76.8651 27.2486C76.8651 26.9569 76.9066 26.9361 77.4877 26.9361C78.0687 26.9361 78.1102 26.9152 78.1102 26.6235C78.1102 26.3364 78.1559 26.3109 78.6705 26.3109C79.1851 26.3109 79.2308 26.2854 79.2308 25.9983C79.2308 25.7344 79.2889 25.6858 79.6043 25.6858C79.8926 25.6858 79.9778 25.6298 79.9778 25.44C79.9778 25.2396 80.0925 25.179 80.6003 25.1114C81.1492 25.0383 81.2229 24.9933 81.2229 24.7319C81.2229 24.4646 81.277 24.4355 81.7744 24.4355C82.2518 24.4355 82.3315 24.3976 82.3659 24.1542C82.3998 23.9141 82.4925 23.8673 82.9971 23.8348C83.5311 23.8004 83.5885 23.767 83.5885 23.4909C83.5885 23.2483 83.6526 23.1852 83.8998 23.1852C84.1488 23.1852 84.211 23.1227 84.211 22.8727C84.211 22.5864 84.1649 22.5601 83.6595 22.5601C83.1821 22.5601 83.1024 22.5222 83.0681 22.2788C83.0343 22.041 82.9408 21.9917 82.4633 21.9605C82.1526 21.9401 81.8585 21.9636 81.8097 22.0126ZM86.2032 24.7319C86.2032 24.9933 86.1294 25.0383 85.5806 25.1114C85.0728 25.179 84.9581 25.2396 84.9581 25.44C84.9581 25.6298 84.8729 25.6858 84.5846 25.6858C84.2692 25.6858 84.211 25.7344 84.211 25.9983C84.211 26.29 84.1696 26.3109 83.5885 26.3109C83.0074 26.3109 82.966 26.3318 82.966 26.6235C82.966 26.9105 82.9203 26.9361 82.4057 26.9361C81.8911 26.9361 81.8454 26.9616 81.8454 27.2486C81.8454 27.5403 81.804 27.5612 81.2229 27.5612C80.6418 27.5612 80.6003 27.5821 80.6003 27.8738C80.6003 28.1214 80.5375 28.1863 80.2978 28.1863C80.0787 28.1863 79.9842 28.264 79.9554 28.4676C79.9214 28.7077 79.8288 28.7546 79.3242 28.7871C78.7901 28.8215 78.7327 28.8548 78.7327 29.1309C78.7327 29.4143 78.6875 29.4366 78.1102 29.4366C77.5291 29.4366 77.4877 29.4575 77.4877 29.7492C77.4877 30.0131 77.4295 30.0617 77.1142 30.0617C76.8275 30.0617 76.7406 30.1181 76.7406 30.3042C76.7406 30.4951 76.6232 30.5642 76.1873 30.6299C75.7486 30.6959 75.6261 30.7686 75.5959 30.9813C75.564 31.206 75.4618 31.2556 74.9664 31.2876C74.4324 31.322 74.375 31.3554 74.375 31.6314C74.375 31.9149 74.3298 31.9371 73.7525 31.9371C73.1714 31.9371 73.1299 31.958 73.1299 32.2497C73.1299 32.4998 73.0677 32.5623 72.8187 32.5623C72.5955 32.5623 72.5074 32.6298 72.5074 32.8006C72.5074 32.9917 72.3843 33.0559 71.8849 33.1249C71.3901 33.1933 71.2623 33.2589 71.2623 33.4448C71.2623 33.6313 71.1357 33.6958 70.6398 33.7618C70.091 33.8349 70.0173 33.8799 70.0173 34.1412C70.0173 34.4085 69.9631 34.4377 69.4657 34.4377C68.9883 34.4377 68.9086 34.4756 68.8743 34.719C68.8458 34.9204 68.7372 35.0116 68.4921 35.0398C68.2569 35.0671 68.1497 35.1515 68.1497 35.3095C68.1497 35.4907 68.0176 35.5577 67.5271 35.6254C67.0277 35.6944 66.9046 35.7586 66.9046 35.9498C66.9046 36.1047 66.8176 36.1881 66.6556 36.1881C66.4946 36.1881 66.4066 36.1047 66.4066 35.9524C66.4066 35.7606 66.2793 35.7008 65.7218 35.6308C65.1748 35.5622 65.037 35.4993 65.037 35.3181C65.037 35.1451 64.904 35.0712 64.4767 35.0068C64.042 34.9414 63.9164 34.87 63.9164 34.6884C63.9164 34.5259 63.8116 34.4422 63.574 34.4147C63.3316 34.3867 63.2203 34.2949 63.1927 34.1004C63.1599 33.8686 63.0624 33.8197 62.5701 33.7878C62.0735 33.7557 61.9806 33.7081 61.9467 33.4687C61.9124 33.2253 61.8327 33.1874 61.3553 33.1874C60.8557 33.1874 60.8037 33.159 60.8037 32.8866C60.8037 32.6204 60.732 32.5758 60.1812 32.4998C59.6908 32.432 59.5587 32.365 59.5587 32.1838C59.5587 32.0258 59.4515 31.9414 59.2163 31.9141C58.9711 31.8859 58.8626 31.7947 58.834 31.5933C58.7997 31.3499 58.72 31.312 58.2426 31.312C57.7373 31.312 57.6911 31.2857 57.6911 30.9994C57.6911 30.7077 57.6496 30.6869 57.0685 30.6869H56.446V31.6246C56.446 32.5414 56.453 32.5623 56.7573 32.5623C56.9818 32.5623 57.0685 32.6295 57.0685 32.8036C57.0685 32.9587 57.1686 33.0593 57.3487 33.0849C57.5249 33.11 57.643 33.2253 57.6672 33.3955C57.6987 33.617 57.8171 33.6815 58.3208 33.751C58.8008 33.8173 58.9361 33.8858 58.9361 34.0626C58.9361 34.2396 59.0721 34.308 59.5587 34.3752C60.0424 34.4419 60.1812 34.5112 60.1812 34.6852C60.1812 34.855 60.3171 34.9299 60.7415 34.9938C61.1761 35.0592 61.3018 35.1306 61.3018 35.3122C61.3018 35.4747 61.4066 35.5584 61.6442 35.5859C61.8847 35.6137 61.998 35.706 62.0249 35.896C62.0564 36.1175 62.1748 36.1821 62.6786 36.2516C63.1557 36.3175 63.2939 36.3869 63.2939 36.5606C63.2939 36.7304 63.4297 36.8053 63.8542 36.8692C64.2809 36.9335 64.4144 37.0075 64.4144 37.1798C64.4144 37.3569 64.5497 37.4241 65.037 37.4891C65.5448 37.5567 65.6595 37.6172 65.6595 37.8177C65.6595 38.04 65.7479 38.0635 66.5846 38.0635C67.4493 38.0635 67.5124 38.0451 67.5495 37.7822C67.5835 37.5421 67.6762 37.4952 68.1808 37.4627C68.7148 37.4283 68.7722 37.3949 68.7722 37.1189C68.7722 36.8626 68.8326 36.8132 69.1457 36.8132C69.4323 36.8132 69.5192 36.7568 69.5192 36.5708C69.5192 36.3793 69.637 36.3107 70.0795 36.2441C70.504 36.1802 70.6398 36.1053 70.6398 35.9355C70.6398 35.7615 70.7786 35.6922 71.2623 35.6254C71.7489 35.5583 71.8849 35.4899 71.8849 35.3129C71.8849 35.1358 72.0208 35.0674 72.5074 35.0003C73.0068 34.9313 73.1299 34.8671 73.1299 34.676C73.1299 34.5052 73.2181 34.4377 73.4412 34.4377C73.687 34.4377 73.7525 34.3744 73.7525 34.1369C73.7525 33.8707 73.8242 33.826 74.375 33.75C74.8616 33.6829 74.9975 33.6145 74.9975 33.4375C74.9975 33.2604 75.1335 33.192 75.6201 33.1249C76.1066 33.0578 76.2426 32.9894 76.2426 32.8123C76.2426 32.6353 76.3786 32.5669 76.8651 32.4998C77.3645 32.4307 77.4877 32.3666 77.4877 32.1754C77.4877 32.0047 77.5758 31.9371 77.7989 31.9371C78.0461 31.9371 78.1102 31.8741 78.1102 31.6314C78.1102 31.3554 78.1676 31.322 78.7016 31.2876C79.197 31.2556 79.2993 31.206 79.3311 30.9813C79.3613 30.7686 79.4838 30.6959 79.9225 30.6299C80.3429 30.5666 80.4758 30.4922 80.4758 30.3203C80.4758 30.1431 80.6111 30.076 81.0984 30.011C81.6062 29.9433 81.7209 29.8828 81.7209 29.6824C81.7209 29.4926 81.8061 29.4366 82.0944 29.4366C82.4076 29.4366 82.4679 29.3872 82.4679 29.1309C82.4679 28.8548 82.5253 28.8215 83.0594 28.7871C83.564 28.7546 83.6566 28.7077 83.6906 28.4676C83.725 28.2242 83.8047 28.1863 84.282 28.1863C84.7794 28.1863 84.8336 28.1572 84.8336 27.8899C84.8336 27.6286 84.9073 27.5836 85.4561 27.5104C85.964 27.4428 86.0787 27.3823 86.0787 27.1819C86.0787 26.9921 86.1638 26.9361 86.4522 26.9361C86.7675 26.9361 86.8257 26.8874 86.8257 26.6235C86.8257 26.3364 86.8714 26.3109 87.386 26.3109H87.9463V25.6858C87.9463 25.1023 87.9255 25.0606 87.635 25.0606C87.386 25.0606 87.3237 24.9981 87.3237 24.7481C87.3237 24.461 87.278 24.4355 86.7634 24.4355C86.2569 24.4355 86.2032 24.464 86.2032 24.7319ZM89.8139 27.8738C89.8139 28.1654 89.7724 28.1863 89.1913 28.1863C88.6103 28.1863 88.5688 28.2072 88.5688 28.4989C88.5688 28.786 88.5231 28.8115 88.0085 28.8115C87.4939 28.8115 87.4482 28.837 87.4482 29.124C87.4482 29.388 87.3901 29.4366 87.0747 29.4366C86.7863 29.4366 86.7012 29.4926 86.7012 29.6824C86.7012 29.8828 86.5865 29.9433 86.0787 30.011C85.5298 30.0841 85.4561 30.1291 85.4561 30.3904C85.4561 30.6577 85.402 30.6869 84.9045 30.6869C84.4272 30.6869 84.3475 30.7247 84.3131 30.9682C84.2792 31.2082 84.1865 31.2551 83.6819 31.2876C83.1479 31.322 83.0905 31.3554 83.0905 31.6314C83.0905 31.8877 83.0301 31.9371 82.717 31.9371C82.4304 31.9371 82.3434 31.9935 82.3434 32.1796C82.3434 32.3705 82.226 32.4396 81.7901 32.5053C81.3514 32.5713 81.2289 32.644 81.1987 32.8567C81.1669 33.0814 81.0646 33.131 80.5692 33.163C80.0352 33.1974 79.9778 33.2308 79.9778 33.5068C79.9778 33.7903 79.9326 33.8125 79.3553 33.8125C78.7742 33.8125 78.7327 33.8334 78.7327 34.1251C78.7327 34.389 78.6746 34.4377 78.3592 34.4377C78.0726 34.4377 77.9857 34.4941 77.9857 34.6801C77.9857 34.8715 77.8679 34.9402 77.4254 35.0068C77.001 35.0707 76.8651 35.1456 76.8651 35.3154C76.8651 35.4892 76.7269 35.5585 76.2498 35.6244C75.7461 35.694 75.6277 35.7585 75.5962 35.98C75.5639 36.2074 75.4636 36.2567 74.9664 36.2887C74.4324 36.3231 74.375 36.3565 74.375 36.6325C74.375 36.8752 74.3109 36.9382 74.0637 36.9382C73.8406 36.9382 73.7525 37.0057 73.7525 37.1765C73.7525 37.3677 73.6293 37.4318 73.1299 37.5008C72.6434 37.568 72.5074 37.6364 72.5074 37.8134C72.5074 37.9904 72.3714 38.0588 71.8849 38.126C71.3949 38.1936 71.2623 38.2609 71.2623 38.4415C71.2623 38.5846 71.1566 38.6863 70.9822 38.7111C70.8045 38.7365 70.6879 38.8516 70.6631 39.0259C70.6303 39.2577 70.5328 39.3066 70.0405 39.3385C69.5514 39.3701 69.4508 39.42 69.4186 39.6468C69.3871 39.8684 69.2687 39.9329 68.765 40.0024C68.2879 40.0683 68.1497 40.1377 68.1497 40.3115C68.1497 40.4812 68.0138 40.5561 67.5894 40.62C67.1469 40.6867 67.0291 40.7553 67.0291 40.9467C67.0291 41.1538 66.9396 41.1891 66.4153 41.1891C65.8734 41.1891 65.7967 41.1561 65.7616 40.9078C65.7331 40.7064 65.6245 40.6153 65.3794 40.587C65.1442 40.5598 65.037 40.4754 65.037 40.3173C65.037 40.1362 64.9049 40.0691 64.4144 40.0014C63.9233 39.9335 63.7919 39.8667 63.7919 39.6847C63.7919 39.5073 63.6628 39.4346 63.2316 39.3697C62.8072 39.3059 62.6714 39.231 62.6714 39.0612C62.6714 38.8874 62.5331 38.818 62.056 38.7521C61.5523 38.6826 61.4339 38.6181 61.4024 38.3965C61.3755 38.2065 61.2622 38.1142 61.0216 38.0865C60.7841 38.059 60.6792 37.9752 60.6792 37.8128C60.6792 37.6311 60.5536 37.5597 60.119 37.4943C59.6945 37.4305 59.5587 37.3556 59.5587 37.1858C59.5587 37.0117 59.4199 36.9425 58.9361 36.8757C58.4496 36.8086 58.3136 36.7402 58.3136 36.5631C58.3136 36.3861 58.1777 36.3177 57.6911 36.2506C57.1917 36.1816 57.0685 36.1174 57.0685 35.9263C57.0685 35.7555 56.9804 35.6879 56.7573 35.6879C56.5129 35.6879 56.446 35.6243 56.446 35.3918C56.446 35.1466 56.3656 35.0822 55.9791 35.0181C55.2423 34.8958 55.2009 34.9114 55.2009 35.3129C55.2009 35.5963 55.1439 35.6879 54.9675 35.6879C54.8056 35.6879 54.7101 35.8077 54.6562 36.0787C54.5289 36.7184 54.559 36.8132 54.8897 36.8132C55.1387 36.8132 55.2009 36.8757 55.2009 37.1258C55.2009 37.4174 55.2424 37.4383 55.8235 37.4383C56.4008 37.4383 56.446 37.4606 56.446 37.744C56.446 38.0201 56.5034 38.0535 57.0374 38.0878C57.5346 38.1199 57.6349 38.1691 57.6672 38.3965C57.6987 38.6181 57.8171 38.6826 58.3208 38.7521C58.8135 38.8201 58.9361 38.8846 58.9361 39.0754C58.9361 39.2462 59.0243 39.3137 59.2474 39.3137C59.4964 39.3137 59.5587 39.3762 59.5587 39.6263C59.5587 39.918 59.6001 39.9389 60.1812 39.9389C60.7586 39.9389 60.8037 39.9611 60.8037 40.2446C60.8037 40.5206 60.8611 40.554 61.3952 40.5884C61.8906 40.6204 61.9928 40.67 62.0247 40.8947C62.0548 41.1074 62.1773 41.1801 62.6161 41.2462C63.052 41.3118 63.1694 41.3809 63.1694 41.5718C63.1694 41.7579 63.2563 41.8143 63.5429 41.8143C63.8583 41.8143 63.9164 41.8629 63.9164 42.1268C63.9164 42.4185 63.9579 42.4394 64.539 42.4394C65.1163 42.4394 65.1615 42.4617 65.1615 42.7451C65.1615 43.0212 65.2189 43.0545 65.7529 43.0889C66.2575 43.1214 66.3502 43.1683 66.3841 43.4084C66.4424 43.8203 66.9046 43.7926 66.9046 43.3771C66.9046 43.1132 66.9627 43.0645 67.2781 43.0645C67.5647 43.0645 67.6516 43.0082 67.6516 42.8221C67.6516 42.6312 67.769 42.5621 68.2049 42.4964C68.6437 42.4304 68.7662 42.3576 68.7963 42.145C68.8282 41.9203 68.9304 41.8707 69.4258 41.8387C69.9599 41.8043 70.0173 41.7709 70.0173 41.4948C70.0173 41.2114 70.0625 41.1891 70.6398 41.1891C71.2209 41.1891 71.2623 41.1683 71.2623 40.8766C71.2623 40.6126 71.3205 40.564 71.6358 40.564C71.9225 40.564 72.0094 40.5076 72.0094 40.3216C72.0094 40.1307 72.1268 40.0615 72.5627 39.9959C73.0014 39.9299 73.124 39.8571 73.1541 39.6444C73.186 39.4198 73.2882 39.3701 73.7836 39.3381C74.3176 39.3037 74.375 39.2704 74.375 38.9943C74.375 38.7109 74.4202 38.6886 74.9975 38.6886C75.5786 38.6886 75.6201 38.6677 75.6201 38.376C75.6201 38.126 75.6823 38.0635 75.9313 38.0635C76.1545 38.0635 76.2426 37.9959 76.2426 37.8252C76.2426 37.634 76.3657 37.5699 76.8651 37.5008C77.3599 37.4325 77.4877 37.3668 77.4877 37.1809C77.4877 36.9945 77.6143 36.93 78.1102 36.864C78.5975 36.7989 78.7327 36.7318 78.7327 36.5546C78.7327 36.3827 78.8657 36.3083 79.286 36.2451C79.7248 36.1791 79.8473 36.1063 79.8775 35.8936C79.9041 35.7061 80.0185 35.6136 80.2579 35.5859C80.4931 35.5587 80.6003 35.4743 80.6003 35.3162C80.6003 35.1351 80.7324 35.0681 81.2229 35.0003C81.7066 34.9335 81.8454 34.8643 81.8454 34.6902C81.8454 34.5204 81.9813 34.4456 82.4057 34.3817C82.8369 34.3168 82.966 34.2441 82.966 34.0667C82.966 33.8851 83.0968 33.8179 83.5813 33.751C84.085 33.6815 84.2035 33.617 84.235 33.3955C84.2618 33.2054 84.3751 33.1131 84.6157 33.0854C84.8494 33.0584 84.9581 32.9735 84.9581 32.8182C84.9581 32.6444 85.0903 32.5708 85.5184 32.5063C85.9451 32.442 86.0787 32.368 86.0787 32.1957C86.0787 32.0185 86.2139 31.9514 86.7012 31.8864C87.1971 31.8204 87.3237 31.7558 87.3237 31.5694C87.3237 31.3835 87.4515 31.3179 87.9463 31.2495C88.4456 31.1805 88.5688 31.1163 88.5688 30.9252C88.5688 30.7544 88.6569 30.6869 88.8801 30.6869C89.1246 30.6869 89.1913 30.6232 89.1913 30.3904C89.1913 30.1291 89.265 30.0841 89.8139 30.011C90.3217 29.9433 90.4364 29.8828 90.4364 29.6824C90.4364 29.5036 90.5212 29.4366 90.7477 29.4366C91.0381 29.4366 91.0589 29.395 91.0589 28.8115C91.0589 28.228 91.0381 28.1863 90.7477 28.1863C90.4986 28.1863 90.4364 28.1238 90.4364 27.8738C90.4364 27.6237 90.3741 27.5612 90.1251 27.5612C89.8761 27.5612 89.8139 27.6237 89.8139 27.8738ZM91.7126 31.9043C91.1146 31.9463 91.0589 31.9763 91.0589 32.2562C91.0589 32.5401 91.0139 32.5623 90.4364 32.5623C89.8553 32.5623 89.8139 32.5832 89.8139 32.8748C89.8139 33.1249 89.7516 33.1874 89.5026 33.1874C89.2795 33.1874 89.1913 33.2549 89.1913 33.4257C89.1913 33.6169 89.0682 33.681 88.5688 33.75C88.0776 33.8179 87.9463 33.8847 87.9463 34.0667C87.9463 34.2441 87.8171 34.3168 87.386 34.3817C86.9615 34.4456 86.8257 34.5204 86.8257 34.6902C86.8257 34.864 86.6875 34.9334 86.2104 34.9993C85.7066 35.0688 85.5882 35.1333 85.5567 35.3549C85.5298 35.5449 85.4165 35.6372 85.176 35.6649C84.9364 35.6927 84.8336 35.776 84.8336 35.942C84.8336 36.1325 84.7106 36.1958 84.211 36.2623C83.7237 36.3273 83.5885 36.3945 83.5885 36.5716C83.5885 36.7439 83.4549 36.8179 83.0282 36.8822C82.6038 36.9461 82.4679 37.021 82.4679 37.1908C82.4679 37.3646 82.3297 37.434 81.8526 37.4998C81.3489 37.5694 81.2305 37.6339 81.199 37.8554C81.1721 38.0455 81.0588 38.1377 80.8182 38.1655C80.5807 38.193 80.4758 38.2768 80.4758 38.4392C80.4758 38.6208 80.3502 38.6922 79.9156 38.7576C79.4911 38.8215 79.3553 38.8964 79.3553 39.0662C79.3553 39.2402 79.2165 39.3095 78.7327 39.3762C78.2462 39.4434 78.1102 39.5118 78.1102 39.6888C78.1102 39.8659 77.9742 39.9342 77.4877 40.0014C76.9883 40.0704 76.8651 40.1345 76.8651 40.3257C76.8651 40.4965 76.777 40.564 76.5539 40.564C76.3049 40.564 76.2426 40.6265 76.2426 40.8766C76.2426 41.1683 76.2011 41.1891 75.6201 41.1891C75.039 41.1891 74.9975 41.21 74.9975 41.5017C74.9975 41.7934 74.9561 41.8143 74.375 41.8143C73.8019 41.8143 73.7525 41.8379 73.7525 42.1126C73.7525 42.3704 73.6763 42.4225 73.1922 42.4954C72.7497 42.5621 72.6319 42.6307 72.6319 42.8221C72.6319 43.0082 72.545 43.0645 72.2584 43.0645C71.9452 43.0645 71.8849 43.1139 71.8849 43.3702C71.8849 43.6463 71.8275 43.6797 71.2935 43.7141C70.7888 43.7466 70.6962 43.7935 70.6622 44.0335C70.6278 44.2769 70.5482 44.3148 70.0708 44.3148C69.5654 44.3148 69.5192 44.3411 69.5192 44.6274C69.5192 44.8913 69.4611 44.94 69.1457 44.94C68.8303 44.94 68.7722 44.9886 68.7722 45.2525C68.7722 45.5442 68.7307 45.5651 68.1497 45.5651C67.5686 45.5651 67.5271 45.586 67.5271 45.8777C67.5271 46.1832 67.5063 46.1902 66.5933 46.1902C65.6803 46.1902 65.6595 46.1832 65.6595 45.8777C65.6595 45.5906 65.6138 45.5651 65.0992 45.5651C64.5846 45.5651 64.539 45.5396 64.539 45.2525C64.539 44.9608 64.4975 44.94 63.9164 44.94C63.3353 44.94 63.2939 44.9191 63.2939 44.6274C63.2939 44.3635 63.2357 44.3148 62.9204 44.3148C62.6338 44.3148 62.5468 44.2584 62.5468 44.0724C62.5468 43.8815 62.4294 43.8123 61.9935 43.7467C61.5548 43.6807 61.4323 43.6079 61.4021 43.3952C61.3703 43.1706 61.268 43.1209 60.7726 43.0889C60.2386 43.0545 60.1812 43.0212 60.1812 42.7451C60.1812 42.4617 60.136 42.4394 59.5587 42.4394C58.9776 42.4394 58.9361 42.4185 58.9361 42.1268C58.9361 41.8768 58.8739 41.8143 58.6249 41.8143C58.4018 41.8143 58.3136 41.7468 58.3136 41.576C58.3136 41.3848 58.1905 41.3207 57.6911 41.2517C57.2045 41.1845 57.0685 41.1161 57.0685 40.9391C57.0685 40.762 56.9326 40.6937 56.446 40.6265C55.8952 40.5505 55.8235 40.5059 55.8235 40.2397C55.8235 39.962 55.7755 39.9389 55.2009 39.9389H54.5784L54.5798 42.2831C54.5814 45.0637 54.6408 45.5651 54.9682 45.5651C55.1748 45.5651 55.2009 45.6704 55.2009 46.5028C55.2009 47.4196 55.2079 47.4405 55.5122 47.4405C55.8027 47.4405 55.8235 47.4821 55.8235 48.0656C55.8235 48.6491 55.8443 48.6908 56.1347 48.6908C56.4252 48.6908 56.446 48.7324 56.446 49.3159C56.446 49.854 56.4801 49.941 56.6908 49.941C56.8904 49.941 56.9506 50.0562 57.018 50.5662C57.0908 51.1173 57.1357 51.1913 57.3959 51.1913C57.6627 51.1913 57.6911 51.2453 57.6911 51.7539C57.6911 52.2707 57.7165 52.3166 58.0023 52.3166C58.2652 52.3166 58.3136 52.3749 58.3136 52.6916C58.3136 53.0083 58.362 53.0667 58.6249 53.0667C58.8739 53.0667 58.9361 53.1292 58.9361 53.3793C58.9361 53.6293 58.9984 53.6919 59.2474 53.6919C59.4964 53.6919 59.5587 53.7544 59.5587 54.0044C59.5587 54.2545 59.6209 54.317 59.8699 54.317C60.119 54.317 60.1812 54.3795 60.1812 54.6296C60.1812 54.8796 60.2435 54.9421 60.4925 54.9421C60.7415 54.9421 60.8037 55.0046 60.8037 55.2547C60.8037 55.5047 60.866 55.5673 61.115 55.5673C61.3395 55.5673 61.4263 55.6345 61.4263 55.8086C61.4263 55.9637 61.5264 56.0642 61.7064 56.0899C61.8865 56.1156 62.0008 56.2304 62.0264 56.4112C62.0552 56.6149 62.1497 56.6925 62.3688 56.6925C62.6054 56.6925 62.6714 56.7581 62.6714 56.9933C62.6714 57.2595 62.7431 57.3041 63.2939 57.3801C63.7776 57.4469 63.9164 57.5162 63.9164 57.6902C63.9164 57.86 64.0523 57.9349 64.4767 57.9988C64.9192 58.0654 65.037 58.1341 65.037 58.3255C65.037 58.5115 65.1239 58.5679 65.4105 58.5679C65.7259 58.5679 65.784 58.6165 65.784 58.8805C65.784 59.1842 65.8089 59.193 66.6556 59.193C67.5022 59.193 67.5271 59.2019 67.5271 59.5056C67.5271 59.8112 67.5479 59.8182 68.4609 59.8182C69.3581 59.8182 69.3947 59.8297 69.3947 60.1121V60.4059L71.916 60.4734C73.3027 60.5107 75.5439 60.5108 76.8963 60.4739C79.118 60.4133 79.3553 60.3859 79.3553 60.1906C79.3553 59.9277 79.8174 59.8182 80.9272 59.8182C81.6908 59.8182 81.7209 59.8063 81.7209 59.5056C81.7209 59.2144 81.763 59.193 82.3347 59.193C82.8766 59.193 82.9533 59.16 82.9884 58.9117C83.0223 58.6723 83.1151 58.6248 83.6118 58.5927C84.1041 58.5608 84.2016 58.5119 84.2343 58.2801C84.2673 58.0477 84.3646 57.9994 84.8647 57.9672C85.3987 57.9328 85.4561 57.8994 85.4561 57.6233C85.4561 57.3829 85.5207 57.3176 85.7587 57.3176C85.9778 57.3176 86.0723 57.24 86.1011 57.0363C86.1296 56.8349 86.2381 56.7438 86.4833 56.7155C86.7209 56.688 86.8257 56.6042 86.8257 56.4418C86.8257 56.2602 86.9513 56.1888 87.386 56.1234C87.8701 56.0505 87.9463 55.9983 87.9463 55.7405C87.9463 55.5057 88.0125 55.4422 88.2575 55.4422C88.5065 55.4422 88.5688 55.3797 88.5688 55.1297C88.5688 54.8796 88.631 54.8171 88.8801 54.8171C89.1291 54.8171 89.1913 54.7546 89.1913 54.5045C89.1913 54.2545 89.2536 54.192 89.5026 54.192C89.7516 54.192 89.8139 54.1294 89.8139 53.8794C89.8139 53.6293 89.8761 53.5668 90.1251 53.5668C90.411 53.5668 90.4364 53.5209 90.4364 53.0042C90.4364 52.4875 90.4618 52.4416 90.7477 52.4416C91.0105 52.4416 91.0589 52.3832 91.0589 52.0665C91.0589 51.7498 91.1074 51.6914 91.3702 51.6914C91.6561 51.6914 91.6815 51.6455 91.6815 51.1288C91.6815 50.6121 91.7069 50.5662 91.9927 50.5662C92.2832 50.5662 92.304 50.5245 92.304 49.941C92.304 49.3575 92.3248 49.3159 92.6153 49.3159C92.9057 49.3159 92.9265 49.2743 92.9265 48.6908C92.9265 48.1073 92.9473 48.0656 93.2378 48.0656C93.5421 48.0656 93.5491 48.0448 93.5491 47.1279C93.5491 46.2111 93.556 46.1902 93.8603 46.1902H94.1716V44.94C94.1716 43.8022 94.1925 43.6897 94.4043 43.6897C94.7262 43.6897 94.7911 43.186 94.7928 40.6753C94.7945 38.08 94.7182 37.4383 94.4082 37.4383C94.2057 37.4383 94.1767 37.3037 94.145 36.2193C94.1112 35.0629 94.0949 34.9983 93.8292 34.9603C93.5674 34.923 93.5491 34.8596 93.5491 33.9913C93.5491 33.0838 93.5418 33.0624 93.2378 33.0624C92.9473 33.0624 92.9265 33.0207 92.9265 32.4372C92.9265 31.8655 92.9026 31.8141 92.6464 31.8352C92.4924 31.848 92.0722 31.879 91.7126 31.9043ZM31.7936 71.3037C31.7936 71.5636 31.1823 71.6958 29.9796 71.6958C29.3912 71.6958 29.3166 71.7258 29.2811 71.9771C29.2526 72.1785 29.144 72.2696 28.8989 72.2979C28.6619 72.3253 28.5565 72.4093 28.5565 72.5706C28.5565 72.7171 28.4524 72.8185 28.2763 72.8435C28.0963 72.8693 27.982 72.984 27.9563 73.1648C27.9317 73.34 27.8303 73.4461 27.6879 73.4461C27.508 73.4461 27.441 73.5793 27.3736 74.0713C27.3079 74.5511 27.2373 74.6964 27.0697 74.6964C26.8776 74.6964 26.8413 74.8853 26.7677 76.2685C26.7216 77.1331 26.7217 78.6803 26.7678 79.7067C26.851 81.5574 26.8541 81.5729 27.1438 81.5729C27.4114 81.5729 27.4359 81.6255 27.4359 82.198C27.4359 82.7815 27.4567 82.8232 27.7472 82.8232C27.9721 82.8232 28.0584 82.8903 28.0584 83.0656C28.0584 83.257 28.1762 83.3257 28.6187 83.3923C29.1028 83.4652 29.179 83.5173 29.179 83.7751C29.179 84.0628 29.2121 84.0734 30.1041 84.0734C30.9688 84.0734 31.0319 84.0918 31.069 84.3547C31.106 84.6158 31.1804 84.6388 32.1049 84.6749C33.5284 84.7306 34.1593 84.6203 34.1593 84.3159C34.1593 84.0976 34.2522 84.0734 35.0931 84.0734C36.0061 84.0734 36.0269 84.0664 36.0269 83.7609C36.0269 83.5108 36.0891 83.4483 36.3381 83.4483C36.5872 83.4483 36.6494 83.3858 36.6494 83.1357C36.6494 82.8857 36.5872 82.8232 36.3381 82.8232C36.0891 82.8232 36.0269 82.8857 36.0269 83.1357V83.4483H33.599H31.1711V83.1357C31.1711 82.8718 31.113 82.8232 30.7976 82.8232C30.4822 82.8232 30.4241 82.7745 30.4241 82.5106C30.4241 82.2887 30.3566 82.198 30.1914 82.198C29.9417 82.198 29.8055 81.7052 29.8029 80.7915C29.8018 80.4174 29.7545 80.3226 29.5688 80.3226C29.2515 80.3226 29.1817 79.8156 29.1817 77.5095C29.1817 75.2034 29.2515 74.6964 29.5688 74.6964C29.7561 74.6964 29.8015 74.6018 29.8015 74.2119C29.8015 73.3594 29.9301 72.9632 30.2204 72.9216C30.3814 72.8985 30.5013 72.7781 30.5243 72.6165C30.5656 72.325 30.9602 72.1959 31.8092 72.1959C32.2086 72.1959 32.2917 72.1529 32.2917 71.9458C32.2917 71.7291 32.3747 71.6958 32.9142 71.6958C33.4537 71.6958 33.5367 71.7291 33.5367 71.9458C33.5367 72.1625 33.6198 72.1959 34.1593 72.1959C34.7403 72.1959 34.7818 72.2167 34.7818 72.5084C34.7818 72.754 34.8452 72.821 35.077 72.821C35.3372 72.821 35.3821 72.895 35.4549 73.4461L35.5374 74.0713H36.0934H36.6494V72.8835V71.6958L35.9957 71.6949C35.6363 71.6944 34.9638 71.6581 34.5017 71.6142C33.7946 71.5472 33.6612 71.4977 33.6612 71.3025C33.6612 71.0972 33.5539 71.0706 32.7274 71.0706C31.8993 71.0706 31.7936 71.097 31.7936 71.3037ZM38.517 71.9458C38.517 72.1292 38.6001 72.1959 38.8283 72.1959H39.1395V77.8221V83.4483H38.8283C38.6069 83.4483 38.517 83.5161 38.517 83.6827C38.517 84.0075 38.9498 84.0734 41.085 84.0734H42.8748V83.7609C42.8748 83.4692 42.8333 83.4483 42.2522 83.4483H41.6297V80.0101V76.5718H42.8125C43.9912 76.5718 43.9953 76.5729 43.9953 76.8844C43.9953 77.1483 44.0535 77.1969 44.3688 77.1969C44.6842 77.1969 44.7424 77.2456 44.7424 77.5095C44.7424 77.7596 44.8046 77.8221 45.0536 77.8221C45.3441 77.8221 45.3649 77.8637 45.3649 78.4472C45.3649 78.989 45.3981 79.0724 45.6139 79.0724C45.8464 79.0724 45.8629 79.1557 45.8629 80.3226C45.8629 81.4895 45.8464 81.5729 45.6139 81.5729C45.3981 81.5729 45.3649 81.6563 45.3649 82.198C45.3649 82.7815 45.3441 82.8232 45.0536 82.8232C44.8046 82.8232 44.7424 82.8857 44.7424 83.1357C44.7424 83.4313 44.705 83.4483 44.0576 83.4483C43.4101 83.4483 43.3728 83.4653 43.3728 83.7609V84.0734H44.9291H46.4855V83.7609C46.4855 83.4969 46.5436 83.4483 46.859 83.4483C47.1744 83.4483 47.2325 83.3997 47.2325 83.1357C47.2325 82.9066 47.2989 82.8232 47.4815 82.8232C47.6642 82.8232 47.7305 82.7398 47.7305 82.5106C47.7305 82.2605 47.7928 82.198 48.0418 82.198H48.3531V80.3226C48.3531 78.5504 48.3397 78.4472 48.1116 78.4472C47.9215 78.4472 47.8527 78.3293 47.7873 77.8916C47.7216 77.451 47.6491 77.328 47.4373 77.2977C47.2756 77.2746 47.1553 77.1544 47.1324 76.9934C47.0886 76.6848 46.6364 76.5754 45.396 76.5732C44.7013 76.5719 44.6179 76.5449 44.6179 76.3218C44.6179 76.0856 44.5348 76.0717 43.1238 76.0717H41.6297V74.1338V72.1959H43.6685C46.0943 72.1959 46.4577 72.2496 46.5097 72.6165C46.5331 72.7809 46.6529 72.8985 46.8214 72.9226C47.0408 72.9539 47.1115 73.0718 47.178 73.5165C47.2423 73.9474 47.3132 74.0713 47.4957 74.0713C47.7094 74.0713 47.7305 73.9641 47.7305 72.8835V71.6958H43.1238C38.6001 71.6958 38.517 71.7003 38.517 71.9458ZM50.3452 71.9458C50.3452 72.1125 50.4282 72.1959 50.5942 72.1959C50.8397 72.1959 50.8432 72.2793 50.8432 78.1347V84.0734H53.0221H55.2009V83.7609C55.2009 83.4553 55.1801 83.4483 54.2671 83.4483H53.3333V80.6352V77.8221H55.45H57.5666V77.5095C57.5666 77.2803 57.5002 77.1969 57.3176 77.1969C57.1516 77.1969 57.0685 77.1136 57.0685 76.9469C57.0685 76.7635 56.9855 76.6968 56.7573 76.6968C56.5291 76.6968 56.446 76.7635 56.446 76.9469C56.446 77.1803 56.363 77.1969 55.2009 77.1969C54.0389 77.1969 53.9559 77.1803 53.9559 76.9469C53.9559 76.7629 53.8728 76.6968 53.6417 76.6968H53.3276L53.3616 74.4776L53.3956 72.2584H55.5122H57.6288L57.6682 72.6022C57.6992 72.8723 57.7726 72.946 58.0106 72.946C58.2867 72.946 58.3136 72.9959 58.3136 73.5086C58.3136 74.0254 58.339 74.0713 58.6249 74.0713C58.935 74.0713 58.9361 74.0671 58.9361 72.8835V71.6958H54.6407C50.4282 71.6958 50.3452 71.7006 50.3452 71.9458ZM61.4263 71.9371C61.4263 72.0922 61.5264 72.1927 61.7064 72.2184L61.9866 72.2584L62.0189 77.8533L62.0514 83.4483H61.7388C61.4884 83.4483 61.4263 83.5104 61.4263 83.7609V84.0734H62.959H64.4918L64.4376 82.2692C64.408 81.2768 64.4225 80.1516 64.4702 79.7686L64.5569 79.0724H66.6645H68.7722V78.7598C68.7722 78.4959 68.8303 78.4472 69.1457 78.4472C69.4362 78.4472 69.5192 78.3917 69.5192 78.1972C69.5192 78.0305 69.6023 77.9471 69.7682 77.9471C69.962 77.9471 70.0173 77.8637 70.0173 77.572C70.0173 77.2553 70.0657 77.1969 70.3285 77.1969H70.6398V75.0715V72.946H70.3285C70.0835 72.946 70.0173 72.8825 70.0173 72.6477C70.0173 72.3899 69.9411 72.3378 69.457 72.2649C69.0145 72.1982 68.8967 72.1296 68.8967 71.9382C68.8967 71.7038 68.7743 71.6958 65.1615 71.6958C61.5542 71.6958 61.4263 71.704 61.4263 71.9371ZM72.5074 71.9458C72.5074 72.1292 72.5904 72.1959 72.8187 72.1959H73.1299V77.8221C73.1299 83.3649 73.1262 83.4483 72.8809 83.4483C72.6983 83.4483 72.6319 83.5317 72.6319 83.7609V84.0734H74.7485H76.8651V83.7609C76.8651 83.4692 76.8237 83.4483 76.2426 83.4483H75.6201V80.0101V76.5718H76.8029C77.9816 76.5718 77.9857 76.5729 77.9857 76.8844C77.9857 77.1483 78.0438 77.1969 78.3592 77.1969C78.6746 77.1969 78.7327 77.2456 78.7327 77.5095C78.7327 77.7596 78.795 77.8221 79.044 77.8221C79.3483 77.8221 79.3553 77.843 79.3553 78.7598C79.3553 79.6141 79.3774 79.6975 79.6043 79.6975C79.8201 79.6975 79.8533 79.7809 79.8533 80.3226C79.8533 80.8644 79.8201 80.9478 79.6043 80.9478C79.3774 80.9478 79.3553 81.0312 79.3553 81.8855C79.3553 82.8023 79.3483 82.8232 79.044 82.8232C78.795 82.8232 78.7327 82.8857 78.7327 83.1357C78.7327 83.4317 78.696 83.4483 78.0392 83.4483C77.3914 83.4483 77.3485 83.4668 77.3856 83.7296C77.424 84.0017 77.4758 84.0121 78.9506 84.0461L80.4758 84.0812V83.7647C80.4758 83.4964 80.5327 83.4483 80.8494 83.4483C81.1647 83.4483 81.2229 83.3997 81.2229 83.1357C81.2229 82.8857 81.2851 82.8232 81.5341 82.8232C81.8246 82.8232 81.8454 82.7815 81.8454 82.198C81.8454 81.6563 81.8787 81.5729 82.0944 81.5729C82.3301 81.5729 82.3434 81.4895 82.3434 80.0101C82.3434 78.5619 82.3263 78.4472 82.1086 78.4472C81.9261 78.4472 81.8551 78.3232 81.7906 77.8912C81.7095 77.3474 81.6958 77.3335 81.1609 77.253C80.7286 77.1878 80.6063 77.1146 80.5762 76.9025C80.5415 76.6585 80.4514 76.6311 79.5732 76.5978C78.7106 76.5652 78.6082 76.5353 78.6082 76.3165C78.6082 76.0871 78.5145 76.0717 77.1142 76.0717H75.6201V74.1338V72.1959L77.6433 72.1972C78.7561 72.198 79.8767 72.2335 80.1334 72.2761C80.59 72.3519 80.6003 72.3658 80.6003 72.8999C80.6003 73.3992 80.6271 73.4461 80.9116 73.4461C81.1606 73.4461 81.2229 73.5086 81.2229 73.7587C81.2229 73.9879 81.2892 74.0713 81.4719 74.0713C81.7035 74.0713 81.7209 73.9879 81.7209 72.8835V71.6958H77.1142C72.5904 71.6958 72.5074 71.7003 72.5074 71.9458ZM87.3461 71.9771C87.3718 72.1579 87.4861 72.2726 87.6661 72.2984C87.9085 72.3329 87.9463 72.4129 87.9463 72.8923C87.9463 73.3559 87.9072 73.4461 87.7062 73.4461C87.5086 73.4461 87.451 73.5678 87.3806 74.1338C87.3135 74.6733 87.248 74.8214 87.0767 74.8214C86.8484 74.8214 86.7053 75.3354 86.7026 76.1655C86.7014 76.4829 86.6486 76.5718 86.4611 76.5718C86.2635 76.5718 86.2059 76.6935 86.1355 77.2595C86.0684 77.799 86.003 77.9471 85.8316 77.9471C85.6033 77.9471 85.4602 78.4611 85.4575 79.2912C85.4564 79.607 85.4032 79.6975 85.2188 79.6975C85.0284 79.6975 84.9646 79.8211 84.8958 80.3226C84.8271 80.8241 84.7632 80.9478 84.5729 80.9478C84.371 80.9478 84.3356 81.0414 84.3356 81.5729C84.3356 82.1564 84.3148 82.198 84.0243 82.198C83.7338 82.198 83.713 82.2397 83.713 82.8232C83.713 83.4067 83.6922 83.4483 83.4017 83.4483C83.1804 83.4483 83.0905 83.5161 83.0905 83.6827C83.0905 83.9469 83.519 84.0734 84.4134 84.0734C84.9114 84.0734 84.9581 84.0467 84.9581 83.7609C84.9581 83.5317 85.0245 83.4483 85.2071 83.4483C85.4293 83.4483 85.4562 83.3645 85.4575 82.6669C85.4596 81.4489 85.5729 80.9478 85.8459 80.9478C86.0423 80.9478 86.0787 80.8497 86.0787 80.3197V79.6917L88.2887 79.7259C90.474 79.7596 90.4991 79.7631 90.5385 80.0413C90.564 80.2221 90.6641 80.3226 90.8186 80.3226C91.0131 80.3226 91.0592 80.4121 91.0603 80.7915C91.0629 81.6962 91.1996 82.198 91.4433 82.198C91.639 82.198 91.6756 82.3237 91.7071 83.1045L91.7437 84.0109L93.2859 84.0462L94.828 84.0814L94.7502 83.6086C94.7074 83.3485 94.6717 83.0655 94.671 82.9795C94.6702 82.8936 94.5576 82.8232 94.4206 82.8232C94.2048 82.8232 94.1716 82.7398 94.1716 82.198C94.1716 81.6145 94.1508 81.5729 93.8603 81.5729C93.556 81.5729 93.5491 81.552 93.5491 80.6352C93.5491 79.7184 93.5421 79.6975 93.2378 79.6975C92.9354 79.6975 92.9265 79.6725 92.9265 78.8223C92.9265 77.9721 92.9177 77.9471 92.6153 77.9471C92.311 77.9471 92.304 77.9262 92.304 77.0094C92.304 76.0926 92.297 76.0717 91.9927 76.0717C91.6984 76.0717 91.6815 76.0342 91.6815 75.3841C91.6815 74.7951 91.648 74.6964 91.448 74.6964C91.1849 74.6964 91.0589 74.2661 91.0589 73.368C91.0589 72.9101 91.0196 72.821 90.8175 72.821C90.6269 72.821 90.5585 72.7027 90.4922 72.2584L90.4081 71.6958H88.8573C87.3202 71.6958 87.3068 71.6983 87.3461 71.9771ZM96.6617 71.9371C96.6617 72.0922 96.7618 72.1927 96.9419 72.2184L97.222 72.2584L97.2544 77.8533L97.2869 83.4483H96.9743C96.7239 83.4483 96.6617 83.5104 96.6617 83.7609V84.0734L98.187 84.0736H99.7122V80.9791V77.8846L102.233 77.8507L104.755 77.817V80.9451V84.0734H106.249H107.743V77.8846V71.6958H106.218H104.692L104.737 73.7693C104.761 74.9098 104.743 76.1477 104.697 76.5201L104.612 77.1969H102.442C100.382 77.1969 100.272 77.1848 100.272 76.9556C100.272 76.8005 100.172 76.7 99.9923 76.6743C99.7125 76.6343 99.7122 76.6306 99.7122 74.165V71.6956L98.187 71.6958C96.7631 71.6958 96.6617 71.7118 96.6617 71.9371ZM110.856 72.0083C110.856 72.2584 110.918 72.3209 111.167 72.3209H111.478V77.8846V83.4483H111.167C110.918 83.4483 110.856 83.5108 110.856 83.7609V84.0734H112.412H113.968V77.8846V71.6958H112.412H110.856V72.0083ZM118.27 72.2584C118.205 72.6948 118.134 72.821 117.953 72.821C117.791 72.821 117.708 72.9263 117.68 73.1648C117.653 73.4053 117.561 73.5202 117.374 73.5469C117.162 73.5772 117.09 73.7002 117.024 74.1408C116.959 74.5785 116.89 74.6964 116.7 74.6964C116.525 74.6964 116.458 74.7831 116.458 75.009C116.458 75.2568 116.396 75.3215 116.155 75.3215C115.917 75.3215 115.844 75.3953 115.813 75.6654C115.785 75.9115 115.694 76.0206 115.493 76.0492C115.291 76.0781 115.213 76.173 115.213 76.393C115.213 76.6337 115.149 76.6968 114.902 76.6968C114.6 76.6968 114.591 76.7218 114.591 77.572C114.591 78.4222 114.6 78.4472 114.902 78.4472C115.165 78.4472 115.213 78.5056 115.213 78.8223C115.213 79.1101 115.269 79.1974 115.455 79.1974C115.645 79.1974 115.714 79.3157 115.78 79.76C115.853 80.2461 115.905 80.3226 116.161 80.3226C116.435 80.3226 116.458 80.3723 116.458 80.9478C116.458 81.5313 116.479 81.5729 116.77 81.5729C117.019 81.5729 117.081 81.6354 117.081 81.8855C117.081 82.1095 117.148 82.198 117.318 82.198C117.509 82.198 117.572 82.3217 117.641 82.8232C117.709 83.3151 117.775 83.4483 117.955 83.4483C118.098 83.4483 118.199 83.5545 118.224 83.7296C118.263 84.005 118.302 84.0117 120.1 84.0456L121.937 84.0801V83.7642C121.937 83.5106 121.875 83.4483 121.625 83.4483C121.376 83.4483 121.314 83.3858 121.314 83.1357C121.314 82.8857 121.252 82.8232 121.003 82.8232C120.754 82.8232 120.692 82.7607 120.692 82.5106C120.692 82.2814 120.625 82.198 120.443 82.198C120.26 82.198 120.194 82.1146 120.194 81.8855C120.194 81.6387 120.131 81.5729 119.894 81.5729C119.629 81.5729 119.584 81.5009 119.509 80.9478C119.433 80.3946 119.389 80.3226 119.124 80.3226C118.887 80.3226 118.824 80.2569 118.824 80.0101C118.824 79.7809 118.758 79.6975 118.575 79.6975C118.392 79.6975 118.326 79.6141 118.326 79.3849C118.326 79.1381 118.263 79.0724 118.026 79.0724C117.761 79.0724 117.717 79.0003 117.641 78.4472C117.572 77.9457 117.509 77.8221 117.318 77.8221C117.148 77.8221 117.081 77.7336 117.081 77.5095C117.081 77.2595 117.019 77.1969 116.77 77.1969C116.479 77.1969 116.458 77.1553 116.458 76.5718C116.458 76.0376 116.493 75.9467 116.699 75.9467C116.853 75.9467 116.953 75.8462 116.979 75.6654C117.004 75.4895 117.119 75.3697 117.286 75.3458C117.497 75.3157 117.57 75.1928 117.635 74.7598C117.7 74.322 117.771 74.2042 117.99 74.1729C118.161 74.1484 118.278 74.031 118.302 73.8601C118.327 73.6897 118.444 73.5719 118.614 73.5475C118.784 73.5233 118.901 73.4055 118.925 73.2338C118.956 73.0135 119.074 72.9425 119.517 72.8758C119.993 72.8041 120.069 72.7514 120.069 72.4942C120.069 72.2594 120.135 72.1959 120.38 72.1959C120.609 72.1959 120.692 72.1292 120.692 71.9458C120.692 71.7135 120.609 71.6958 119.523 71.6958H118.354L118.27 72.2584ZM67.0056 72.5321C67.0298 72.7025 67.1471 72.8203 67.3168 72.8446C67.4893 72.8693 67.6039 72.9868 67.6292 73.1648C67.6547 73.3456 67.7548 73.4461 67.9094 73.4461C68.1361 73.4461 68.1497 73.552 68.1497 75.3215C68.1497 77.0922 68.1362 77.1969 67.9089 77.1969C67.7388 77.1969 67.6566 77.2978 67.6287 77.5408C67.6006 77.7869 67.5098 77.896 67.3092 77.9246C67.1292 77.9502 67.0291 78.0508 67.0291 78.2059C67.0291 78.429 66.9304 78.4472 65.7218 78.4472H64.4144V75.4049C64.4144 73.7316 64.4537 72.3231 64.5016 72.275C64.5497 72.2269 65.1239 72.2034 65.7778 72.2229C66.8934 72.2561 66.9692 72.2753 67.0056 72.5321ZM88.6709 74.4151C88.6964 74.5959 88.7965 74.6964 88.951 74.6964C89.1455 74.6964 89.1916 74.7859 89.1927 75.1653C89.1953 76.079 89.3315 76.5718 89.5812 76.5718C89.7424 76.5718 89.8139 76.662 89.8139 76.8655C89.8139 77.027 89.8501 77.5897 89.8944 78.1158L89.9748 79.0724H88.3381H86.7012L86.7026 78.6035C86.7052 77.6898 86.8414 77.1969 87.091 77.1969C87.2783 77.1969 87.3237 77.1023 87.3237 76.7125C87.3237 75.8754 87.4556 75.4466 87.7128 75.4466C87.9131 75.4466 87.9463 75.3478 87.9463 74.7507C87.9463 74.0651 87.9514 74.0553 88.2887 74.0943C88.5338 74.1225 88.6424 74.2137 88.6709 74.4151ZM58.288 82.4793L58.2514 83.3858L57.3487 83.4225C56.4831 83.4578 56.446 83.4718 56.446 83.7664C56.446 84.0719 56.452 84.0734 57.6911 84.0734H58.9361V82.8232C58.9361 81.5789 58.9347 81.5729 58.6304 81.5729C58.337 81.5729 58.3231 81.6102 58.288 82.4793ZM11.3745 88.3869V88.9495H74.4373H137.5V88.3869V87.8242H74.4373H11.3745V88.3869ZM11.31 92.8067C11.277 92.8398 11.25 93.3921 11.25 94.034C11.25 95.1883 11.2532 95.2008 11.5544 95.2008C11.8293 95.2008 11.8626 95.1432 11.8968 94.607C11.9289 94.1055 11.9772 94.0071 12.2073 93.9742C12.377 93.9498 12.4943 93.8321 12.5186 93.6616C12.5557 93.3993 12.6208 93.3865 14.0825 93.3528L15.6077 93.3177V99.2604V105.203H17.1641H18.7204V104.89C18.7204 104.64 18.6582 104.578 18.4091 104.578H18.0979V99.2642V93.9506H18.4091C18.6582 93.9506 18.7204 93.8881 18.7204 93.638C18.7204 93.3281 18.7298 93.3254 19.8254 93.3254C21.5456 93.3254 21.6819 93.3745 21.7795 94.0276C21.8499 94.4989 21.9029 94.5757 22.1585 94.5757C22.3924 94.5757 22.4556 94.6422 22.4556 94.8883C22.4556 95.1175 22.522 95.2008 22.7046 95.2008C22.9362 95.2008 22.9536 95.1175 22.9536 94.0131C22.9536 92.869 22.9433 92.8248 22.6735 92.8111C21.7027 92.7617 11.3588 92.7578 11.31 92.8067ZM49.0966 92.7316C49.0946 92.7488 49.0807 95.5619 49.0655 98.9829L49.0378 105.203H50.5631H52.0883V104.89C52.0883 104.64 52.026 104.578 51.777 104.578H51.4657V101.765V98.9517H54.2671H57.0685V101.765V104.578H56.7573C56.5083 104.578 56.446 104.64 56.446 104.89V105.203H57.9712L59.4964 105.203V99.0254V92.8478L59.0607 92.7754C58.4913 92.6808 57.4993 92.6832 56.9129 92.7806C56.3743 92.87 56.2397 93.2787 56.7261 93.3479C57.0028 93.3875 57.0067 93.4151 57.0404 95.5447L57.0744 97.7014H56.7603C56.508 97.7014 56.446 97.7632 56.446 98.014V98.3265H54.2671H52.0883V98.014C52.0883 97.7632 52.0263 97.7014 51.774 97.7014H51.4599L51.4939 95.5447C51.5276 93.4151 51.5315 93.3875 51.8081 93.3479C52.2946 93.2787 52.16 92.87 51.6214 92.7806C51.1754 92.7066 49.104 92.6663 49.0966 92.7316ZM65.1926 92.7924C64.6519 92.8305 64.539 92.8791 64.539 93.0736C64.539 93.2373 64.4347 93.3208 64.1966 93.3484C63.9546 93.3763 63.8428 93.4682 63.8154 93.6616C63.7912 93.8321 63.6739 93.9498 63.5042 93.9742C63.3317 93.9988 63.2171 94.1164 63.1918 94.2944C63.1671 94.4696 63.0658 94.5757 62.9234 94.5757C62.7434 94.5757 62.6765 94.7089 62.6091 95.2008C62.5427 95.6855 62.4735 95.826 62.3012 95.826C62.1024 95.826 62.0733 95.9921 62.0267 97.4029C61.9979 98.2703 61.998 99.8175 62.027 100.841L62.0797 102.702H62.3755C62.6476 102.702 62.6714 102.753 62.6714 103.328C62.6714 103.911 62.6921 103.953 62.9826 103.953C63.2316 103.953 63.2939 104.015 63.2939 104.265C63.2939 104.515 63.3561 104.578 63.6052 104.578C63.8262 104.578 63.9164 104.646 63.9164 104.812C63.9164 105.062 64.4072 105.199 65.3171 105.202C65.7006 105.203 65.784 105.248 65.784 105.453C65.784 105.692 65.8671 105.703 67.5894 105.703C69.3117 105.703 69.3947 105.692 69.3947 105.453C69.3947 105.248 69.4781 105.203 69.8616 105.202C70.7715 105.199 71.2623 105.062 71.2623 104.812C71.2623 104.646 71.3526 104.578 71.5736 104.578C71.8226 104.578 71.8849 104.515 71.8849 104.265C71.8849 104.015 71.9471 103.953 72.1961 103.953C72.459 103.953 72.5074 103.894 72.5074 103.578C72.5074 103.261 72.5558 103.203 72.8187 103.203C73.1255 103.203 73.1299 103.188 73.1313 102.171C73.1333 100.706 73.2328 100.202 73.5198 100.202C73.7315 100.202 73.7525 100.089 73.7525 98.9517V97.7014H73.4412H73.1299V96.4511V95.2008H72.8187C72.5328 95.2008 72.5074 95.155 72.5074 94.6382C72.5074 94.1215 72.482 94.0756 72.1961 94.0756C71.9504 94.0756 71.8849 94.0123 71.8849 93.7748C71.8849 93.5086 71.8131 93.464 71.2623 93.388C70.7834 93.3218 70.6398 93.2512 70.6398 93.0818C70.6398 92.9011 70.4889 92.8472 69.7994 92.7818C68.9526 92.7014 66.4038 92.7074 65.1926 92.7924ZM77.4877 93.0041C77.4877 93.2237 77.5651 93.3192 77.7666 93.3479C78.1024 93.3961 78.1616 93.6425 78.0513 94.5297C77.9828 95.0802 77.9246 95.2008 77.7277 95.2008C77.5014 95.2008 77.4877 95.3075 77.4877 97.0763V98.9517H77.1764H76.8651V100.202C76.8651 101.445 76.8633 101.452 76.5607 101.452C76.2858 101.452 76.2526 101.51 76.2183 102.046L76.1804 102.64L75.5889 102.678C75.0549 102.712 74.9975 102.746 74.9975 103.022C74.9975 103.305 74.9523 103.328 74.375 103.328H73.7525V103.953C73.7525 104.536 73.7733 104.578 74.0637 104.578C74.3496 104.578 74.375 104.624 74.375 105.141C74.375 105.657 74.4004 105.703 74.6863 105.703C74.9083 105.703 74.9975 105.635 74.9975 105.467C74.9975 105.284 75.1209 105.213 75.55 105.148C75.9928 105.081 76.1103 105.01 76.1414 104.79C76.1658 104.618 76.2827 104.501 76.454 104.476C76.6734 104.445 76.7441 104.327 76.8106 103.882C76.882 103.404 76.9345 103.328 77.1906 103.328C77.4773 103.328 77.4877 103.295 77.4877 102.39C77.4877 101.557 77.5138 101.452 77.7204 101.452C78.0314 101.452 78.1071 100.946 78.1088 98.8579C78.1101 97.3158 78.1265 97.2013 78.3462 97.2013C78.5637 97.2013 78.5891 97.0501 78.6725 95.2634L78.7629 93.3254H80.1641C80.9348 93.3254 81.7403 93.3606 81.9544 93.4036L82.3434 93.4817V98.9673C82.3434 104.369 82.3397 104.453 82.0944 104.453C81.9007 104.453 81.8454 104.536 81.8454 104.828V105.203H83.3395H84.8336V98.9517V92.7003H81.1606H77.4877V93.0041ZM90.2185 92.7907C89.9265 92.8271 89.8139 92.9053 89.8139 93.0716C89.8139 93.2533 89.6821 93.3202 89.1913 93.388C88.7014 93.4556 88.5688 93.5229 88.5688 93.7035C88.5688 93.8465 88.4631 93.9483 88.2887 93.9731C88.0881 94.0017 87.9973 94.1107 87.9692 94.3569C87.9423 94.5907 87.8576 94.7007 87.7046 94.7007C87.4563 94.7007 87.3237 95.1413 87.3237 95.9666C87.3237 96.3677 87.2809 96.4511 87.0747 96.4511C86.834 96.4511 86.8257 96.5345 86.8257 98.9517C86.8257 101.369 86.834 101.452 87.0747 101.452C87.2791 101.452 87.324 101.536 87.3251 101.921C87.3277 102.835 87.4639 103.328 87.7135 103.328C87.8788 103.328 87.9463 103.418 87.9463 103.64C87.9463 103.89 88.0085 103.953 88.2575 103.953C88.5065 103.953 88.5688 104.015 88.5688 104.265C88.5688 104.513 88.6317 104.578 88.8713 104.578C89.0905 104.578 89.185 104.656 89.2137 104.859C89.2503 105.117 89.3279 105.144 90.1562 105.177C90.9567 105.21 91.0589 105.242 91.0589 105.459C91.0589 105.688 91.1535 105.703 92.6153 105.703C94.077 105.703 94.1716 105.688 94.1716 105.459C94.1716 105.242 94.2738 105.21 95.0743 105.177C95.8888 105.144 95.9807 105.114 96.0151 104.872C96.0452 104.66 96.1674 104.587 96.5997 104.522C97.1346 104.441 97.1483 104.427 97.2295 103.884C97.3011 103.404 97.3535 103.328 97.6097 103.328C97.8833 103.328 97.9068 103.278 97.9068 102.702C97.9068 102.177 97.9437 102.077 98.1375 102.077C98.3351 102.077 98.3799 101.94 98.4488 101.121C98.5518 99.8985 98.5524 97.7803 98.4502 97.0312C98.3882 96.577 98.3207 96.4511 98.1389 96.4511C97.9524 96.4511 97.9068 96.356 97.9068 95.9666C97.9068 95.1413 97.7742 94.7007 97.5259 94.7007C97.3729 94.7007 97.2883 94.5907 97.2614 94.3569C97.2332 94.1107 97.1425 94.0017 96.9419 93.9731C96.7674 93.9483 96.6617 93.8465 96.6617 93.7035C96.6617 93.5229 96.5291 93.4556 96.0392 93.388C95.5581 93.3216 95.4167 93.2515 95.4167 93.08C95.4167 92.9206 95.2849 92.8362 94.9498 92.7806C94.4536 92.6982 90.8997 92.7058 90.2185 92.7907ZM100.739 92.8006C100.306 92.853 100.256 93.2879 100.677 93.3479L100.957 93.388V99.2996V105.211L102.182 105.176L103.407 105.141L103.427 99.2642L103.447 93.388L105.595 93.3537L107.743 93.3196V93.635C107.743 93.8883 107.804 93.9506 108.054 93.9506C108.345 93.9506 108.365 93.9922 108.365 94.5757C108.365 95.1592 108.386 95.2008 108.677 95.2008C108.987 95.2008 108.988 95.1987 108.988 93.9818V92.7628L105.035 92.7609C102.861 92.7599 100.928 92.7778 100.739 92.8006ZM111.82 92.7898C111.555 92.8302 111.478 92.9102 111.478 93.1461C111.478 93.3875 111.543 93.4505 111.789 93.4505H112.101V99.0142V104.578H111.789C111.54 104.578 111.478 104.64 111.478 104.89V105.203H113.034H114.591V103.328V101.452H114.902C115.151 101.452 115.213 101.39 115.213 101.14C115.213 100.89 115.276 100.827 115.525 100.827C115.774 100.827 115.836 100.765 115.836 100.514C115.836 100.264 115.898 100.202 116.147 100.202C116.396 100.202 116.458 100.139 116.458 99.8894C116.458 99.6393 116.521 99.5768 116.77 99.5768C117.019 99.5768 117.081 99.5143 117.081 99.2642C117.081 99.0142 117.143 98.9517 117.392 98.9517C117.641 98.9517 117.703 98.8891 117.703 98.6391C117.703 98.389 117.766 98.3265 118.015 98.3265C118.264 98.3265 118.326 98.264 118.326 98.014C118.326 97.7103 118.351 97.7014 119.197 97.7014H120.069V101.077C120.069 104.369 120.063 104.453 119.82 104.453C119.626 104.453 119.571 104.536 119.571 104.828V105.203H121.065H122.559V99.0305V92.8581L122.092 92.7806C121.836 92.7379 121.373 92.703 121.065 92.703C120.757 92.703 120.295 92.7379 120.038 92.7806C119.573 92.8577 119.571 92.8605 119.571 93.4668C119.571 93.9922 119.605 94.0756 119.82 94.0756C120.036 94.0756 120.069 94.159 120.069 94.7007C120.069 95.2425 120.036 95.3259 119.82 95.3259C119.608 95.3259 119.571 95.4093 119.571 95.8885C119.571 96.4052 119.546 96.4511 119.26 96.4511C119.011 96.4511 118.948 96.5136 118.948 96.7637C118.948 97.0137 118.886 97.0763 118.637 97.0763C118.39 97.0763 118.326 97.1393 118.326 97.3806C118.326 97.6195 118.252 97.6933 117.984 97.7244C117.742 97.7523 117.63 97.8442 117.602 98.0376C117.578 98.208 117.461 98.3258 117.291 98.3502C117.121 98.3744 117.004 98.4922 116.98 98.6638C116.949 98.8835 116.831 98.9552 116.395 99.0208C115.964 99.0858 115.842 99.1592 115.812 99.3711C115.788 99.5389 115.669 99.6543 115.493 99.6793C115.313 99.7049 115.213 99.8055 115.213 99.9606C115.213 100.135 115.126 100.202 114.902 100.202H114.591V96.53V92.8581L114.124 92.7806C113.628 92.6982 112.39 92.7032 111.82 92.7898ZM126.623 92.7912C126.3 92.8397 126.274 92.8796 126.343 93.2257C126.385 93.4352 126.419 93.6841 126.419 93.7787C126.419 93.8732 126.531 93.9506 126.668 93.9506C126.913 93.9506 126.917 94.034 126.917 99.193V104.435L126.637 104.475C126.432 104.505 126.357 104.599 126.357 104.828V105.141L127.882 105.176L129.407 105.211V103.331V101.452H129.718C129.967 101.452 130.03 101.39 130.03 101.14C130.03 100.89 130.092 100.827 130.341 100.827C130.59 100.827 130.652 100.765 130.652 100.514C130.652 100.264 130.714 100.202 130.963 100.202C131.212 100.202 131.275 100.139 131.275 99.8894C131.275 99.6393 131.337 99.5768 131.586 99.5768C131.835 99.5768 131.897 99.5143 131.897 99.2642C131.897 99.0142 131.959 98.9517 132.208 98.9517C132.457 98.9517 132.52 98.8891 132.52 98.6391C132.52 98.389 132.582 98.3265 132.831 98.3265C133.08 98.3265 133.142 98.264 133.142 98.014C133.142 97.7639 133.205 97.7014 133.454 97.7014C133.682 97.7014 133.765 97.6348 133.765 97.4513C133.765 97.2902 133.848 97.2013 133.998 97.2013C134.351 97.2013 134.387 97.6115 134.387 101.593V105.203H135.881H137.375V104.828C137.375 104.536 137.32 104.453 137.126 104.453C136.881 104.453 136.877 104.369 136.877 98.9604V93.4678L137.158 93.428C137.331 93.4032 137.452 93.2876 137.475 93.1245C137.507 92.8977 137.432 92.8498 136.929 92.7807C136.199 92.6802 135.459 92.6802 134.854 92.7806L134.387 92.8581V94.6546V96.4511H134.076C133.827 96.4511 133.765 96.5136 133.765 96.7637C133.765 97.0137 133.703 97.0763 133.454 97.0763C133.205 97.0763 133.142 97.1388 133.142 97.3888C133.142 97.6389 133.08 97.7014 132.831 97.7014C132.585 97.7014 132.52 97.7647 132.52 98.0022C132.52 98.2679 132.448 98.313 131.904 98.388C131.401 98.4576 131.282 98.5221 131.251 98.7436C131.227 98.9138 131.108 99.0291 130.932 99.0542C130.752 99.0798 130.652 99.1803 130.652 99.3355C130.652 99.5095 130.565 99.5768 130.341 99.5768C130.092 99.5768 130.03 99.6393 130.03 99.8894C130.03 100.139 129.967 100.202 129.718 100.202H129.407V96.53V92.8581L128.94 92.7806C128.441 92.6977 127.209 92.7033 126.623 92.7912ZM24.9458 93.0754C24.9458 93.2602 25.0288 93.3254 25.2638 93.3254H25.5817L25.5439 99.2642L25.506 105.203L27.2647 105.203C29.3686 105.203 29.8015 105.136 29.8015 104.812C29.8015 104.606 29.6996 104.578 28.9463 104.578H28.0911L28.0139 104.109C27.9714 103.851 27.936 102.585 27.9353 101.296L27.9339 98.9517H29.8638H31.7936V98.6391V98.3265H29.9423H28.0911L28.0139 97.8577C27.9714 97.5999 27.9367 96.6855 27.9367 95.826C27.9367 94.9664 27.9714 94.0522 28.0139 93.7943L28.0911 93.3254L29.7245 93.3268C30.6228 93.3276 31.5655 93.3627 31.8194 93.4048C32.2529 93.4769 32.2859 93.5147 32.3628 94.0286C32.426 94.4524 32.4974 94.5757 32.6794 94.5757C32.8468 94.5757 32.9142 94.6654 32.9142 94.8883C32.9142 95.1383 32.9765 95.2008 33.2255 95.2008C33.5356 95.2008 33.5367 95.1967 33.5367 94.0131V92.8253H29.2412C25.0288 92.8253 24.9458 92.8302 24.9458 93.0754ZM35.5288 93.0754C35.5288 93.2421 35.6119 93.3254 35.7779 93.3254C35.9605 93.3254 36.0269 93.4088 36.0269 93.638C36.0269 93.8881 36.0891 93.9506 36.3381 93.9506C36.5872 93.9506 36.6494 94.0131 36.6494 94.2631C36.6494 94.5132 36.7117 94.5757 36.9607 94.5757C37.2512 94.5757 37.2719 94.6173 37.2719 95.2008C37.2719 95.7843 37.2927 95.826 37.5832 95.826C37.8322 95.826 37.8945 95.8885 37.8945 96.1385C37.8945 96.3886 37.9567 96.4511 38.2057 96.4511C38.4962 96.4511 38.517 96.4928 38.517 97.0763C38.517 97.6598 38.5378 97.7014 38.8283 97.7014C39.0911 97.7014 39.1395 97.7598 39.1395 98.0765C39.1395 98.3599 39.1966 98.4516 39.373 98.4516C39.6302 98.4516 39.7621 98.8804 39.7621 99.7175C39.7621 100.151 39.7293 100.202 39.4508 100.202C39.2018 100.202 39.1395 100.264 39.1395 100.514C39.1395 100.765 39.0773 100.827 38.8283 100.827C38.5378 100.827 38.517 100.869 38.517 101.452C38.517 102.036 38.4962 102.077 38.2057 102.077C37.9567 102.077 37.8945 102.14 37.8945 102.39C37.8945 102.64 37.8322 102.702 37.5832 102.702C37.3342 102.702 37.2719 102.765 37.2719 103.015C37.2719 103.265 37.2097 103.328 36.9607 103.328C36.6702 103.328 36.6494 103.369 36.6494 103.953C36.6494 104.536 36.6286 104.578 36.3381 104.578C36.0891 104.578 36.0269 104.64 36.0269 104.89C36.0269 105.196 36.0477 105.203 36.9607 105.203C37.8737 105.203 37.8945 105.196 37.8945 104.89C37.8945 104.64 37.9567 104.578 38.2057 104.578C38.4957 104.578 38.517 104.536 38.517 103.961C38.517 103.417 38.5499 103.34 38.7972 103.305C39.0356 103.271 39.0829 103.178 39.1149 102.679C39.1466 102.185 39.1953 102.087 39.4262 102.054C39.6576 102.021 39.7057 101.923 39.7378 101.421L39.7758 100.827H40.3175H40.8592L40.9449 101.452C41.011 101.935 41.0807 102.077 41.2516 102.077C41.4819 102.077 41.6255 102.586 41.6283 103.413C41.6294 103.729 41.6867 103.818 41.9098 103.85C42.1478 103.884 42.1956 103.978 42.2273 104.47C42.2619 105.006 42.2936 105.055 42.6475 105.126C42.8581 105.168 43.6995 105.203 44.5171 105.203H46.004L45.9645 104.859C45.9366 104.616 45.8452 104.504 45.6515 104.476C45.4321 104.445 45.3614 104.327 45.2949 103.882C45.2305 103.452 45.1597 103.328 44.9772 103.328C44.8097 103.328 44.7424 103.238 44.7424 103.015C44.7424 102.768 44.6794 102.702 44.4428 102.702C44.1777 102.702 44.1333 102.63 44.0576 102.077C43.9907 101.589 43.9226 101.452 43.7463 101.452C43.57 101.452 43.5019 101.316 43.435 100.827C43.3663 100.326 43.3024 100.202 43.1121 100.202C42.942 100.202 42.8748 100.113 42.8748 99.8894C42.8748 99.6393 42.8125 99.5768 42.5635 99.5768C42.2592 99.5768 42.2522 99.5559 42.2522 98.6391C42.2522 97.7223 42.2592 97.7014 42.5635 97.7014C42.8125 97.7014 42.8748 97.6389 42.8748 97.3888C42.8748 97.1648 42.942 97.0763 43.1121 97.0763C43.3024 97.0763 43.3663 96.9526 43.435 96.4511C43.5024 95.9591 43.5694 95.826 43.7493 95.826C43.8917 95.826 43.9931 95.7198 44.0177 95.5447C44.0428 95.3678 44.1575 95.2491 44.327 95.2249C44.5476 95.1932 44.6119 95.0743 44.6811 94.5685C44.7558 94.0227 44.8008 93.9506 45.0653 93.9506C45.3019 93.9506 45.3649 93.8848 45.3649 93.638C45.3649 93.4088 45.4313 93.3254 45.6139 93.3254C45.7799 93.3254 45.8629 93.2421 45.8629 93.0754C45.8629 92.8428 45.7799 92.8253 44.6801 92.8253H43.4973L43.4959 93.2317C43.4931 94.0854 43.3514 94.5757 43.1075 94.5757C42.9112 94.5757 42.8748 94.6736 42.8748 95.2008C42.8748 95.7843 42.854 95.826 42.5635 95.826C42.273 95.826 42.2522 95.8676 42.2522 96.4511V97.0763H41.6439H41.0354L40.9514 96.5136C40.886 96.0754 40.8154 95.951 40.6325 95.951C40.4369 95.951 40.3913 95.8411 40.36 95.2946C40.3272 94.7227 40.2863 94.6331 40.0422 94.5982C39.795 94.563 39.7621 94.4859 39.7621 93.9418C39.7621 93.3677 39.7408 93.3254 39.4508 93.3254C39.2226 93.3254 39.1395 93.2588 39.1395 93.0754C39.1395 92.8368 39.0565 92.8253 37.3342 92.8253C35.6119 92.8253 35.5288 92.8368 35.5288 93.0754ZM69.0056 93.4036C69.2754 93.4577 69.3947 93.5536 69.3947 93.7161C69.3947 93.8794 69.4842 93.9506 69.6899 93.9506C69.9501 93.9506 69.995 94.0246 70.0678 94.5757C70.1352 95.0857 70.1954 95.2008 70.395 95.2008C70.6333 95.2008 70.6398 95.308 70.6398 99.2642V103.328H70.3285C70.0795 103.328 70.0173 103.39 70.0173 103.64C70.0173 103.869 69.9509 103.953 69.7682 103.953C69.5856 103.953 69.5192 104.036 69.5192 104.265C69.5192 104.529 69.4611 104.578 69.1457 104.578C68.8303 104.578 68.7722 104.627 68.7722 104.89C68.7722 105.191 68.7421 105.203 67.9785 105.203C66.8523 105.203 66.4066 105.095 66.4066 104.821C66.4066 104.667 66.297 104.582 66.0642 104.555C65.819 104.527 65.7104 104.435 65.6819 104.234C65.6575 104.061 65.5557 103.953 65.4181 103.953C65.1779 103.953 65.041 103.446 65.0384 102.546C65.0372 102.174 64.9897 102.077 64.8063 102.077C64.6087 102.077 64.5639 101.94 64.495 101.121C64.4507 100.595 64.4144 99.6186 64.4144 98.9517C64.4144 98.2848 64.4507 97.3087 64.495 96.7826C64.5639 95.9636 64.6087 95.826 64.8063 95.826C64.9912 95.826 65.037 95.7298 65.037 95.3415C65.037 94.4889 65.1656 94.0927 65.4558 94.0512C65.6192 94.0278 65.7367 93.9076 65.7605 93.7394C65.7839 93.575 65.908 93.4446 66.0718 93.4127C66.5176 93.3257 68.5858 93.3193 69.0056 93.4036ZM94.1716 93.638C94.1716 93.8881 94.2339 93.9506 94.4829 93.9506C94.7295 93.9506 94.7941 94.0137 94.7941 94.2544C94.7941 94.4744 94.8715 94.5693 95.0743 94.5982C95.3452 94.6368 95.3555 94.6889 95.3894 96.1698C95.4212 97.5605 95.4454 97.7014 95.6532 97.7014C95.9118 97.7014 96.0365 98.2095 96.0365 99.2642C96.0365 100.325 95.9122 100.827 95.6494 100.827C95.4396 100.827 95.4167 100.936 95.4167 101.937C95.4167 103.391 95.3268 103.828 95.0276 103.828C94.8512 103.828 94.7941 103.919 94.7941 104.203C94.7941 104.57 94.7803 104.578 94.1716 104.578C93.5905 104.578 93.5491 104.599 93.5491 104.89C93.5491 105.196 93.5283 105.203 92.6153 105.203C91.712 105.203 91.6815 105.193 91.6815 104.902C91.6815 104.636 91.6097 104.591 91.0589 104.515L90.4364 104.429V103.878C90.4364 103.374 90.41 103.328 90.1251 103.328H89.8139V101.515C89.8139 99.7852 89.8024 99.7018 89.5648 99.7018C89.346 99.7018 89.3158 99.6184 89.3158 99.0142C89.3158 98.4099 89.346 98.3265 89.5648 98.3265C89.8028 98.3265 89.8139 98.2431 89.8139 96.4511V94.5757H90.1251C90.3741 94.5757 90.4364 94.5132 90.4364 94.2631C90.4364 94.0131 90.4986 93.9506 90.7477 93.9506C90.9967 93.9506 91.0589 93.8881 91.0589 93.638V93.3254H92.6153H94.1716V93.638ZM32.9765 103.328C32.9077 103.829 32.8439 103.953 32.6535 103.953C32.4834 103.953 32.4162 104.041 32.4162 104.265C32.4162 104.561 32.3794 104.578 31.7227 104.578C31.0749 104.578 31.0319 104.596 31.069 104.859C31.1069 105.126 31.1712 105.142 32.3228 105.176L33.5367 105.212V103.957C33.5367 102.806 33.5171 102.702 33.2994 102.702C33.1091 102.702 33.0452 102.826 32.9765 103.328Z" fill="#727181"/>
</svg>
