<svg width="150" height="126" viewBox="0 0 150 126" fill="none" xmlns="http://www.w3.org/2000/svg">
<path d="M18.5043 23.5089L18.7232 91.1786L52.691 101.704L131.496 23.5089H18.5043Z" fill="#727181"/>
<path d="M51.7996 48.4531C51.8778 50.3141 52.9882 51.534 54.943 51.534C56.0534 51.534 57.1325 51.0335 57.5704 50.0483H61.8867C61.0579 53.1917 58.0395 54.5523 54.8961 54.5523C50.3139 54.5523 47.2017 51.878 47.2017 47.3427C47.2017 43.1828 50.6423 40.2114 54.7866 40.2114C59.8224 40.2114 62.3403 43.8709 62.1213 48.4687H51.7996V48.4531ZM57.5078 45.9822C57.4296 44.4652 56.3193 43.2141 54.771 43.2141C53.1446 43.2141 52.0655 44.3401 51.784 45.9822H57.5078ZM78.7612 40.1957C83.1557 40.1957 86.2522 43.3079 86.2522 47.3897C86.2522 51.4714 83.1713 54.5523 78.7612 54.5523C74.351 54.5523 71.317 51.4714 71.317 47.3897C71.317 43.3079 74.3823 40.1957 78.7612 40.1957ZM78.7612 51.143C80.9193 51.143 81.5918 49.0943 81.5918 47.374C81.5918 45.6694 80.9037 43.5894 78.7612 43.5894C76.603 43.5894 75.9618 45.6381 75.9618 47.374C75.9618 49.1256 76.603 51.143 78.7612 51.143ZM40.305 43.6832H37.4743V49.7511C37.4743 50.8615 38.1155 51.0961 39.132 51.0961C39.5074 51.0961 39.914 51.0492 40.3206 51.0492V54.4115C39.4917 54.4428 38.6472 54.5523 37.8027 54.5523C33.8774 54.5523 32.8765 53.4263 32.8765 49.6104V43.6832H30.5463V40.7118H32.8765V36.1609H37.4743V40.7118H40.305V43.6832ZM46.0601 39.492H41.4779V36.1765H46.0601V39.492ZM41.4623 40.7431H46.0601V54.5523H41.4779L41.4623 40.7431ZM71.317 43.6832H68.4864V49.7511C68.4864 50.8615 69.1276 51.0961 70.1285 51.0961C70.5038 51.0961 70.9104 51.0492 71.317 51.0492V54.4115C70.4882 54.4428 69.6436 54.5523 68.7991 54.5523C64.8738 54.5523 63.8729 53.4263 63.8729 49.6104V43.6832H61.5427V40.7118H63.8416V36.1609H68.4551V40.7118H71.2857L71.317 43.6832Z" fill="white"/>
</svg>
