<svg width="25" height="24" viewBox="0 0 25 24" fill="none" xmlns="http://www.w3.org/2000/svg">
<g clip-path="url(#clip0)">
<path d="M16.6821 0H9.31411C2.59011 0 0.998108 1.592 0.998108 8.316V15.684C0.998108 22.408 2.59011 24 9.31411 24H16.6821C23.4061 24 24.9981 22.408 24.9981 15.684V8.316C24.9981 1.592 23.3891 0 16.6821 0ZM20.3741 17.123H18.6301C17.9701 17.123 17.7661 16.598 16.5801 15.396C15.5471 14.396 15.0901 14.261 14.8361 14.261C14.4801 14.261 14.3781 14.363 14.3781 14.854V16.429C14.3781 16.853 14.2431 17.107 13.1251 17.107C11.2791 17.107 9.22911 15.989 7.79011 13.905C5.62211 10.857 5.02811 8.57 5.02811 8.096C5.02811 7.842 5.13011 7.605 5.62111 7.605H7.36511C7.80511 7.605 7.97511 7.808 8.14511 8.282C9.00811 10.772 10.4481 12.957 11.0411 12.957C11.2611 12.957 11.3631 12.855 11.3631 12.297V9.721C11.2951 8.535 10.6681 8.434 10.6681 8.011C10.6681 7.807 10.8381 7.604 11.1081 7.604H13.8521C14.2251 7.604 14.3601 7.807 14.3601 8.247V11.72C14.3601 12.092 14.5301 12.228 14.6311 12.228C14.8511 12.228 15.0381 12.092 15.4441 11.686C16.6981 10.28 17.5951 8.112 17.5951 8.112C17.7141 7.858 17.9171 7.621 18.3581 7.621H20.1021C20.6271 7.621 20.7461 7.891 20.6271 8.264C20.4071 9.281 18.2731 12.295 18.2731 12.295C18.0871 12.6 18.0191 12.735 18.2731 13.075C18.4591 13.329 19.0691 13.854 19.4761 14.328C20.2211 15.175 20.7961 15.886 20.9491 16.378C21.1191 16.868 20.8641 17.122 20.3731 17.122L20.3741 17.123Z" fill="#191919"/>
</g>
<defs>
<clipPath id="clip0">
<rect width="24" height="24" fill="white" transform="translate(0.998108)"/>
</clipPath>
</defs>
</svg>
