<?xml version="1.0" standalone="no"?>
<!DOCTYPE svg PUBLIC "-//W3C//DTD SVG 20010904//EN"
 "http://www.w3.org/TR/2001/REC-SVG-20010904/DTD/svg10.dtd">
<svg version="1.0" xmlns="http://www.w3.org/2000/svg"
 width="960.000000pt" height="960.000000pt" viewBox="0 0 960.000000 960.000000"
 preserveAspectRatio="xMidYMid meet">
<metadata>
Created by potrace 1.11, written by Peter Selinger 2001-2013
</metadata>
<g transform="translate(0.000000,960.000000) scale(0.100000,-0.100000)"
fill="#000000" stroke="none">
<path d="M3029 8156 c-2 -2 -35 -7 -74 -11 -138 -14 -142 -14 -250 -33 -60
-11 -88 -17 -135 -28 -14 -3 -38 -7 -55 -10 -16 -3 -37 -8 -45 -11 -8 -3 -19
-7 -25 -7 -76 -11 -423 -135 -537 -192 -27 -14 -48 -21 -48 -17 0 5 -4 3 -8
-2 -4 -6 -32 -23 -62 -38 -169 -82 -482 -284 -576 -372 -6 -5 -35 -30 -65 -55
-150 -127 -303 -284 -419 -430 -28 -36 -56 -66 -61 -68 -5 -2 -9 -9 -9 -15 0
-6 -8 -20 -19 -31 -40 -45 -168 -242 -233 -361 -36 -65 -140 -277 -142 -290
-1 -5 -7 -19 -13 -30 -21 -38 -102 -273 -132 -382 -38 -135 -74 -305 -86 -403
-3 -25 -8 -56 -10 -70 -21 -119 -28 -586 -12 -720 4 -36 10 -83 12 -105 2 -22
6 -51 9 -65 2 -14 7 -47 11 -75 4 -27 14 -79 22 -115 8 -36 17 -74 19 -85 2
-11 7 -33 11 -50 4 -16 7 -32 8 -35 1 -3 4 -14 7 -25 4 -11 19 -60 34 -110 30
-102 122 -345 135 -360 5 -5 9 -15 9 -23 0 -8 8 -26 18 -40 10 -15 25 -43 32
-62 49 -122 301 -516 395 -616 5 -6 32 -38 60 -70 99 -117 370 -377 424 -408
9 -5 21 -15 26 -21 12 -14 110 -86 175 -130 25 -16 46 -33 48 -37 2 -5 8 -8
12 -8 5 0 48 -25 97 -56 122 -77 382 -203 543 -263 74 -28 142 -51 150 -51 9
0 21 -5 28 -12 7 -7 12 -9 12 -5 0 4 17 1 38 -7 20 -8 51 -18 67 -22 17 -4 35
-8 40 -10 6 -1 21 -5 35 -7 14 -3 40 -10 58 -16 17 -5 32 -8 32 -6 0 3 11 0
24 -5 13 -5 46 -11 72 -14 27 -4 56 -8 64 -11 25 -8 196 -27 248 -28 12 -1 22
-4 22 -8 0 -8 6267 -5 6298 4 34 9 115 57 128 76 7 9 21 27 32 39 12 13 29 47
38 75 17 49 18 228 19 3062 0 2339 -2 3021 -12 3059 -21 84 -73 149 -157 197
l-41 24 -3141 2 c-1728 2 -3143 1 -3145 -1z"/>
</g>
</svg>
