<svg width="38" height="38" viewBox="0 0 38 38" fill="none" xmlns="http://www.w3.org/2000/svg">
<path d="M13.008 19.2514C13.0458 19.6418 13.2034 20.0109 13.4593 20.3082L20.2993 28.2882C20.4586 28.487 20.6562 28.6516 20.8804 28.7725C21.1046 28.8933 21.3508 28.9679 21.6044 28.9917C21.858 29.0155 22.1137 28.9881 22.3565 28.9111C22.5993 28.834 22.8241 28.709 23.0176 28.5434C23.2111 28.3778 23.3693 28.1749 23.4829 27.9469C23.5964 27.719 23.663 27.4705 23.6786 27.2162C23.6942 26.962 23.6585 26.7073 23.5737 26.4671C23.4889 26.2269 23.3567 26.0063 23.1849 25.8182L17.4018 19.0732L23.1849 12.3282C23.3567 12.1402 23.4889 11.9195 23.5737 11.6793C23.6585 11.4392 23.6942 11.1844 23.6786 10.9302C23.663 10.676 23.5964 10.4275 23.4829 10.1995C23.3693 9.9715 23.2111 9.76867 23.0176 9.60305C22.8241 9.43742 22.5993 9.31239 22.3565 9.23537C22.1137 9.15836 21.858 9.13094 21.6044 9.15474C21.3508 9.17855 21.1046 9.25309 20.8804 9.37394C20.6562 9.49479 20.4586 9.65947 20.2993 9.85821L13.4593 17.8382C13.2931 18.0315 13.1676 18.2562 13.0901 18.4989C13.0125 18.7417 12.9846 18.9976 13.008 19.2514Z" fill="#2B2B2B"/>
</svg>
