<svg width="38" height="38" viewBox="0 0 38 38" fill="none" xmlns="http://www.w3.org/2000/svg">
<path d="M24.992 18.7486C24.9542 18.3582 24.7966 17.9891 24.5407 17.6918L17.7007 9.71178C17.5414 9.51304 17.3438 9.34836 17.1196 9.22751C16.8954 9.10666 16.6492 9.03212 16.3956 9.00832C16.142 8.98451 15.8863 9.01193 15.6435 9.08894C15.4007 9.16596 15.1759 9.29099 14.9824 9.45662C14.7889 9.62224 14.6307 9.82507 14.5171 10.0531C14.4036 10.281 14.337 10.5295 14.3214 10.7838C14.3058 11.038 14.3415 11.2927 14.4263 11.5329C14.5111 11.7731 14.6433 11.9937 14.8151 12.1818L20.5982 18.9268L14.8151 25.6718C14.6433 25.8598 14.5111 26.0805 14.4263 26.3207C14.3415 26.5608 14.3058 26.8156 14.3214 27.0698C14.337 27.324 14.4036 27.5725 14.5171 27.8005C14.6307 28.0285 14.7889 28.2313 14.9824 28.397C15.1759 28.5626 15.4007 28.6876 15.6435 28.7646C15.8863 28.8416 16.142 28.8691 16.3956 28.8453C16.6492 28.8215 16.8954 28.7469 17.1196 28.6261C17.3438 28.5052 17.5414 28.3405 17.7007 28.1418L24.5407 20.1618C24.7069 19.9685 24.8324 19.7438 24.9099 19.5011C24.9875 19.2583 25.0154 19.0024 24.992 18.7486Z" fill="#2B2B2B"/>
</svg>
