<svg width="300" height="464" viewBox="0 0 300 464" fill="none" xmlns="http://www.w3.org/2000/svg">
<mask id="mask0" mask-type="alpha" maskUnits="userSpaceOnUse" x="0" y="0" width="300" height="464">
<rect width="300" height="464" rx="10" fill="#0489DB"/>
</mask>
<g mask="url(#mask0)">
<path d="M293 0H10C4.47715 0 0 4.47714 0 9.99999V455C0 460.523 4.47715 465 10 465H151.5H227.25H265.125H284.062H293C298.523 465 303 460.523 303 455V232.5V10C303 4.47715 298.523 0 293 0Z" fill="#0489DB"/>
<path d="M84.3525 606.525C82.3614 610.918 77.9074 613.666 73.0885 613.475L-74.8503 607.622C-79.6049 607.434 -83.7861 604.42 -85.4686 599.97L-133.171 473.778C-134.378 470.585 -134.149 467.026 -132.544 464.013L-95.7909 395.039C-94.0352 391.744 -90.8297 389.469 -87.14 388.899L69.0714 364.769C73.8147 364.036 78.5316 366.236 81.0184 370.342L140.925 469.234C142.951 472.578 143.197 476.707 141.583 480.268L84.3525 606.525Z" fill="#38B3FF"/>
<path d="M317.837 150.432L315.805 104.323C315.632 100.394 312.372 97.3107 308.439 97.357L293.398 97.5345C289.06 97.5856 285.638 93.8582 286.059 89.5401L288.955 59.8564C289.308 56.2376 286.939 52.9123 283.404 52.0631L247.078 43.3377C242.096 42.1409 239.872 36.3115 242.791 32.1002L254.416 15.3291C257.205 11.3065 255.314 5.73328 250.653 4.23834L204.952 -10.4202C203.386 -10.9226 202.036 -11.94 201.121 -13.3071L170.266 -59.4258" stroke="#FF5058" stroke-width="1.98227"/>
</g>
</svg>
