<svg width="300" height="421" viewBox="0 0 300 421" fill="none" xmlns="http://www.w3.org/2000/svg">
<mask id="mask0" mask-type="alpha" maskUnits="userSpaceOnUse" x="0" y="0" width="300" height="421">
<rect width="300" height="421" rx="10" fill="#0489DB"/>
</mask>
<g mask="url(#mask0)">
<path d="M293 0H10C4.47715 0 0 4.47714 0 9.99999V412C0 417.523 4.47715 422 10 422H151.5H227.25H265.125H284.062H293C298.523 422 303 417.523 303 412V211V10C303 4.47715 298.523 0 293 0Z" fill="#0489DB"/>
<path d="M389.614 168.454C387.419 173.294 382.511 176.323 377.2 176.113L214.167 169.662C208.928 169.455 204.32 166.134 202.466 161.229L149.897 22.1622C148.567 18.6431 148.818 14.7214 150.587 11.4012L191.09 -64.611C193.025 -68.2421 196.558 -70.7493 200.624 -71.3774L372.773 -97.969C378.001 -98.7764 383.199 -96.3518 385.939 -91.8279L451.958 17.1543C454.191 20.84 454.462 25.3897 452.683 29.3146L389.614 168.454Z" fill="#38B3FF"/>
<path d="M116.833 495.648L115.686 425.809C115.588 419.857 110.785 415.056 104.833 414.962L82.0722 414.602C75.5069 414.498 70.486 408.716 71.3037 402.201L76.9247 357.415C77.6099 351.956 74.1657 346.826 68.8527 345.393L14.263 330.675C6.77534 328.656 3.65452 319.744 8.24682 313.495L26.535 288.609C30.9216 282.64 28.2936 274.13 21.3051 271.673L-47.2201 247.587C-49.5686 246.762 -51.5687 245.166 -52.8953 243.06L-97.6467 172" stroke="#FF5058" stroke-width="3"/>
</g>
</svg>
