<svg width="270" height="568" viewBox="0 0 270 568" fill="none" xmlns="http://www.w3.org/2000/svg">
<mask id="mask0" mask-type="alpha" maskUnits="userSpaceOnUse" x="0" y="0" width="271" height="568">
<rect x="0.000427246" width="270" height="568" fill="#0489DB"/>
</mask>
<g mask="url(#mask0)">
<rect x="0.000427246" width="270" height="568" fill="#0489DB"/>
<path d="M188.097 606.406C185.969 611.002 181.365 613.943 176.301 613.943L8.6073 613.944C1.42759 613.944 -4.39271 608.123 -4.39273 600.944L-4.39273 583.944L-4.39272 495.944L-4.39271 416.08C-4.39272 409.456 0.588671 403.891 7.17278 403.16L151.009 387.191C156.04 386.632 160.939 389.045 163.562 393.375L229.79 502.702C232.031 506.402 232.285 510.975 230.468 514.9L188.097 606.406Z" fill="#38B3FF"/>
<path d="M-63.9996 90.5581C-63.9996 90.5581 -23.4537 97.031 -16.8625 82.5477C-13.0039 74.0691 -26.4951 67.6645 -21.3517 59.6609C-14.0462 48.2929 6.37489 65.7628 18.6026 57.7537C34.0915 47.6083 3.66072 20.8034 22.6429 16.1759C36.5634 12.7824 41.6412 32.3099 55.8633 29.908C77.3948 26.2717 54.0189 0.0780103 64.3929 -15.8657C74.2015 -30.9403 103 -46 103 -46" stroke="#FF5058" stroke-width="2"/>
</g>
</svg>
