<svg width="24" height="18" viewBox="0 0 24 18" fill="none" xmlns="http://www.w3.org/2000/svg">
<path fill-rule="evenodd" clip-rule="evenodd" d="M0.545441 1.36355C0.545441 0.660639 1.11526 0.0908203 1.81817 0.0908203H22.1818C22.8847 0.0908203 23.4545 0.660639 23.4545 1.36355C23.4545 2.06645 22.8847 2.63628 22.1818 2.63628H1.81817C1.11526 2.63628 0.545441 2.06645 0.545441 1.36355ZM0.545441 16.6363C0.545441 15.9333 1.11526 15.3635 1.81817 15.3635H22.1818C22.8847 15.3635 23.4545 15.9333 23.4545 16.6363C23.4545 17.3392 22.8847 17.909 22.1818 17.909H1.81817C1.11526 17.909 0.545441 17.3392 0.545441 16.6363ZM1.81817 7.72718C1.11526 7.72718 0.545441 8.29701 0.545441 8.99991C0.545441 9.70281 1.11526 10.2726 1.81817 10.2726H22.1818C22.8847 10.2726 23.4545 9.70281 23.4545 8.99991C23.4545 8.29701 22.8847 7.72718 22.1818 7.72718H1.81817Z" fill="#1A1A1A"/>
</svg>
