<svg width="18" height="18" viewBox="0 0 18 18" fill="none" xmlns="http://www.w3.org/2000/svg">
<path fill-rule="evenodd" clip-rule="evenodd" d="M9 18C13.9706 18 18 13.9706 18 9C18 4.02944 13.9706 0 9 0C4.02944 0 0 4.02944 0 9C0 13.9706 4.02944 18 9 18Z" fill="#FF5058"/>
<path fill-rule="evenodd" clip-rule="evenodd" d="M11.3819 12.0183C11.5576 12.194 11.8426 12.194 12.0183 12.0183C12.194 11.8426 12.194 11.5576 12.0183 11.3819L9.6365 9.0001L12.0183 6.6183C12.194 6.44256 12.194 6.15764 12.0183 5.9819C11.8426 5.80617 11.5576 5.80617 11.3819 5.9819L9.0001 8.36371L6.6183 5.9819C6.44256 5.80616 6.15764 5.80616 5.9819 5.9819C5.80616 6.15764 5.80616 6.44256 5.9819 6.6183L8.36371 9.0001L5.9819 11.3819C5.80616 11.5576 5.80616 11.8426 5.9819 12.0183C6.15764 12.1941 6.44256 12.1941 6.6183 12.0183L9.0001 9.6365L11.3819 12.0183Z" fill="white"/>
</svg>
