<svg width="28" height="28" viewBox="0 0 28 28" fill="none" xmlns="http://www.w3.org/2000/svg">
<path fill-rule="evenodd" clip-rule="evenodd" d="M15.2727 6.36379C15.2727 5.66088 14.7029 5.09106 14 5.09106C13.2971 5.09106 12.7273 5.66088 12.7273 6.36379V12.7274H6.36364C5.66073 12.7274 5.09091 13.2973 5.09091 14.0002C5.09091 14.7031 5.66073 15.2729 6.36364 15.2729H12.7273V21.6365C12.7273 22.3394 13.2971 22.9092 14 22.9092C14.7029 22.9092 15.2727 22.3394 15.2727 21.6365V15.2729H21.6364C22.3393 15.2729 22.9091 14.7031 22.9091 14.0002C22.9091 13.2973 22.3393 12.7274 21.6364 12.7274H15.2727V6.36379Z" fill="#1A1A1A"/>
</svg>
