<svg width="42" height="52" viewBox="0 0 42 52" fill="none" xmlns="http://www.w3.org/2000/svg">
<path fill-rule="evenodd" clip-rule="evenodd" d="M31.752 16.8481C36.372 16.8481 40.11 20.5921 40.11 25.1681C40.11 29.7441 36.33 33.4881 31.71 33.4881C27.09 33.4881 23.31 29.7441 23.31 25.1681C23.31 15.9745 30.828 8.52814 40.11 8.52814C40.11 8.52814 34.608 10.5665 31.752 16.8481ZM19.11 25.1681C19.11 29.7441 15.33 33.4881 10.71 33.4881C6.09 33.4881 2.31 29.7441 2.31 25.1681C2.31 15.9745 9.828 8.52814 19.11 8.52814C19.11 8.52814 13.608 10.5665 10.752 16.8481C15.372 16.8481 19.11 20.5921 19.11 25.1681Z" fill="#727181"/>
</svg>
