<svg width="18" height="18" viewBox="0 0 18 18" fill="none" xmlns="http://www.w3.org/2000/svg">
<path fill-rule="evenodd" clip-rule="evenodd" d="M9 18C13.9706 18 18 13.9706 18 9C18 4.02944 13.9706 0 9 0C4.02944 0 0 4.02944 0 9C0 13.9706 4.02944 18 9 18Z" fill="#219653"/>
<path fill-rule="evenodd" clip-rule="evenodd" d="M11.9762 6.39481C12.1724 6.54736 12.2078 6.83008 12.0553 7.02628L8.55651 11.5263C8.4786 11.6265 8.36198 11.6892 8.2354 11.6988C8.10882 11.7084 7.98406 11.6641 7.89188 11.5768L5.9906 9.77685C5.81012 9.60599 5.80233 9.32117 5.97319 9.1407C6.14406 8.96022 6.42887 8.95243 6.60935 9.12329L8.15045 10.5823L11.3447 6.47386C11.4973 6.27766 11.78 6.24227 11.9762 6.39481Z" fill="white"/>
</svg>
